<?xml version="1.0" encoding="UTF-8" standalone="no"?>
<svg
   xmlns:dc="http://purl.org/dc/elements/1.1/"
   xmlns:cc="http://creativecommons.org/ns#"
   xmlns:rdf="http://www.w3.org/1999/02/22-rdf-syntax-ns#"
   xmlns:svg="http://www.w3.org/2000/svg"
   xmlns="http://www.w3.org/2000/svg"
   xmlns:sodipodi="http://sodipodi.sourceforge.net/DTD/sodipodi-0.dtd"
   xmlns:inkscape="http://www.inkscape.org/namespaces/inkscape"
   sodipodi:docname="controllerTOTAL2.svg"
   inkscape:version="0.92pre1 unknown"
   id="svg2"
   version="1.1"
   viewBox="0 0 1118.7568 645.87695"
   height="807.34619"
   width="1398.446"
   inkscape:export-filename="/home/alecive/Dropbox/PhD/Slides/16_GazeControllerStabilizer_RSS16/gfx/controller1.png"
   inkscape:export-xdpi="149.91916"
   inkscape:export-ydpi="149.91916">
  <sodipodi:namedview
     pagecolor="#ffffff"
     bordercolor="#666666"
     borderopacity="1"
     objecttolerance="10"
     gridtolerance="10"
     guidetolerance="10"
     inkscape:pageopacity="0"
     inkscape:pageshadow="2"
     inkscape:window-width="2495"
     inkscape:window-height="1416"
     id="namedview49"
     showgrid="false"
     inkscape:snap-intersection-paths="true"
     inkscape:object-nodes="true"
     inkscape:zoom="1.1164554"
     inkscape:cx="590.43647"
     inkscape:cy="409.09782"
     inkscape:window-x="1985"
     inkscape:window-y="24"
     inkscape:window-maximized="1"
     inkscape:current-layer="svg2"
     showguides="true"
     fit-margin-top="20"
     fit-margin-left="10"
     fit-margin-right="10"
     fit-margin-bottom="20"
     inkscape:object-paths="true"
     inkscape:snap-smooth-nodes="true"
     inkscape:snap-object-midpoints="true"
     inkscape:snap-center="true">
    <inkscape:grid
       originy="154.93845"
       originx="182.75695"
       id="grid4375"
       type="xygrid" />
  </sodipodi:namedview>
  <metadata
     id="metadata53">
    <rdf:RDF>
      <cc:Work
         rdf:about="">
        <dc:format>image/svg+xml</dc:format>
        <dc:type
           rdf:resource="http://purl.org/dc/dcmitype/StillImage" />
        <dc:title />
      </cc:Work>
    </rdf:RDF>
  </metadata>
  <defs
     id="defs51" />
  <path
     style="color:#000000;text-decoration:none;text-decoration-line:none;text-decoration-style:solid;text-decoration-color:#000000;clip-rule:nonzero;display:inline;overflow:visible;visibility:visible;opacity:1;isolation:auto;color-interpolation:sRGB;color-interpolation-filters:linearRGB;fill:#3c3c3c;fill-opacity:1;fill-rule:evenodd;stroke:#3c3c3c;stroke-width:2.44784045;stroke-linecap:butt;stroke-linejoin:miter;stroke-miterlimit:10;stroke-dasharray:none;stroke-dashoffset:0;stroke-opacity:1;color-rendering:auto;image-rendering:auto;shape-rendering:auto;text-rendering:auto;enable-background:accumulate"
     d="m 265.15728,107.40177 -5.26323,-10.52646 5.26323,2.63163 5.26322,-2.63163 z m 0,0"
     id="path4353"
     inkscape:connector-curvature="0" />
  <path
     style="color:#000000;text-decoration:none;text-decoration-line:none;text-decoration-style:solid;text-decoration-color:#000000;clip-rule:nonzero;display:inline;overflow:visible;visibility:visible;opacity:1;isolation:auto;color-interpolation:sRGB;color-interpolation-filters:linearRGB;fill:#3c3c3c;fill-opacity:1;fill-rule:evenodd;stroke:#3c3c3c;stroke-width:2.44784045;stroke-linecap:butt;stroke-linejoin:miter;stroke-miterlimit:10;stroke-dasharray:none;stroke-dashoffset:0;stroke-opacity:1;color-rendering:auto;image-rendering:auto;shape-rendering:auto;text-rendering:auto;enable-background:accumulate"
     d="m 773.95701,107.40177 -5.26323,-10.52646 5.26323,2.63163 5.26322,-2.63163 z m 0,0"
     id="path4648"
     inkscape:connector-curvature="0" />
  <g
     id="g4433"
     transform="translate(255.99988,64.00007)">
    <path
       inkscape:connector-curvature="0"
       id="path11"
       d="m 710.75696,66.938477 h 144 V 434.93847 h -144 z m 0,0"
       style="color:#000000;text-decoration:none;text-decoration-line:none;text-decoration-style:solid;text-decoration-color:#000000;clip-rule:nonzero;display:inline;overflow:visible;visibility:visible;opacity:1;isolation:auto;color-interpolation:sRGB;color-interpolation-filters:linearRGB;fill:#8c8c8c;fill-opacity:1;fill-rule:nonzero;stroke:none;stroke-width:0.00799999;stroke-linecap:butt;stroke-linejoin:miter;stroke-miterlimit:4;stroke-dasharray:none;stroke-dashoffset:0;stroke-opacity:1;marker:none;color-rendering:auto;image-rendering:auto;shape-rendering:auto;text-rendering:auto;enable-background:accumulate" />
    <text
       sodipodi:linespacing="125%"
       id="text4418"
       y="226.01834"
       x="781.42987"
       style="font-style:normal;font-variant:normal;font-weight:normal;font-stretch:normal;font-size:46.93333435px;line-height:125%;font-family:'Tw Cen MT Condensed';-inkscape-font-specification:'Tw Cen MT Condensed, ';text-align:center;letter-spacing:0px;word-spacing:0px;text-anchor:middle;fill:#ffffff;fill-opacity:1;stroke:none"
       xml:space="preserve"><tspan
         style="font-style:normal;font-variant:normal;font-weight:normal;font-stretch:normal;font-size:55.46667099px;font-family:'Tw Cen MT Condensed';-inkscape-font-specification:'Tw Cen MT Condensed, '"
         y="226.01834"
         x="781.42987"
         sodipodi:role="line"
         id="tspan4420">ROBOT</tspan><tspan
         style="font-style:normal;font-variant:normal;font-weight:normal;font-stretch:normal;font-size:55.46667099px;font-family:'Tw Cen MT Condensed';-inkscape-font-specification:'Tw Cen MT Condensed, '"
         id="tspan4290"
         y="287.06699"
         x="781.42987"
         sodipodi:role="line">PLANT</tspan></text>
  </g>
  <path
     sodipodi:nodetypes="cc"
     id="path4339"
     d="m 90.757284,322.93853 36.000006,4e-5"
     style="color:#000000;text-decoration:none;text-decoration-line:none;text-decoration-style:solid;text-decoration-color:#000000;clip-rule:nonzero;display:inline;overflow:visible;visibility:visible;opacity:1;isolation:auto;color-interpolation:sRGB;color-interpolation-filters:linearRGB;fill:none;fill-opacity:1;fill-rule:nonzero;stroke:#3c3c3c;stroke-width:3.20000005;stroke-linecap:butt;stroke-linejoin:miter;stroke-miterlimit:10;stroke-dasharray:none;stroke-dashoffset:0;stroke-opacity:1;color-rendering:auto;image-rendering:auto;shape-rendering:auto;text-rendering:auto;enable-background:accumulate"
     inkscape:connector-curvature="0" />
  <path
     sodipodi:nodetypes="cc"
     id="path4345"
     d="m 126.75729,476.53855 v -307.2"
     style="color:#000000;text-decoration:none;text-decoration-line:none;text-decoration-style:solid;text-decoration-color:#000000;clip-rule:nonzero;display:inline;overflow:visible;visibility:visible;opacity:1;isolation:auto;color-interpolation:sRGB;color-interpolation-filters:linearRGB;fill:none;fill-opacity:1;fill-rule:nonzero;stroke:#3c3c3c;stroke-width:3.20000005;stroke-linecap:butt;stroke-linejoin:miter;stroke-miterlimit:10;stroke-dasharray:none;stroke-dashoffset:0;stroke-opacity:1;color-rendering:auto;image-rendering:auto;shape-rendering:auto;text-rendering:auto;enable-background:accumulate"
     inkscape:connector-curvature="0" />
  <path
     sodipodi:nodetypes="cccc"
     inkscape:connector-curvature="0"
     id="path4355"
     d="M 1020.3568,498.93855 V 568.5389 H 265.15696 l -1.6e-4,-29.6"
     style="opacity:1;fill:none;fill-opacity:1;fill-rule:evenodd;stroke:#3c3c3c;stroke-width:3.20000005;stroke-linecap:butt;stroke-linejoin:miter;stroke-miterlimit:10;stroke-dasharray:none;stroke-dashoffset:0;stroke-opacity:1" />
  <path
     sodipodi:nodetypes="cccc"
     inkscape:connector-curvature="0"
     id="path4357"
     d="M 1052.3568,498.93855 V 598.1389 H 233.15696 l -1.6e-4,-59.2"
     style="opacity:1;fill:none;fill-opacity:1;fill-rule:evenodd;stroke:#3c3c3c;stroke-width:3.20000005;stroke-linecap:butt;stroke-linejoin:miter;stroke-miterlimit:10;stroke-dasharray:none;stroke-dashoffset:0;stroke-opacity:1" />
  <path
     style="opacity:1;fill:none;fill-opacity:1;fill-rule:evenodd;stroke:#3c3c3c;stroke-width:3.20000005;stroke-linecap:butt;stroke-linejoin:miter;stroke-miterlimit:10;stroke-dasharray:none;stroke-dashoffset:0;stroke-opacity:1"
     d="m 484.35696,77.33857 v 29.59999"
     id="path4377"
     inkscape:connector-curvature="0"
     sodipodi:nodetypes="cc" />
  <path
     style="opacity:1;fill:none;fill-opacity:1;fill-rule:evenodd;stroke:#3c3c3c;stroke-width:3.20000005;stroke-linecap:butt;stroke-linejoin:miter;stroke-miterlimit:10;stroke-dasharray:none;stroke-dashoffset:0;stroke-opacity:1"
     d="M 1052.3568,130.93855 V 47.738566 h -819.2 V 170.93856"
     id="path4379"
     inkscape:connector-curvature="0"
     sodipodi:nodetypes="cccc" />
  <g
     style="stroke-width:1.37640691"
     transform="matrix(0.72652939,0,0,0.72652933,428.38575,-306.16862)"
     id="g5294">
    <g
       style="font-style:normal;font-variant:normal;font-weight:normal;font-stretch:normal;letter-spacing:normal;word-spacing:normal;text-anchor:start;fill:none;fill-opacity:1;fill-rule:evenodd;stroke:#000000;stroke-width:1.37640691;stroke-linecap:butt;stroke-linejoin:miter;stroke-miterlimit:10.43299961;stroke-dasharray:none;stroke-dashoffset:0;stroke-opacity:1"
       id="g5296"
       transform="matrix(0.86763767,0,0,-0.86763767,-151.83659,825.39525)"
       xml:space="preserve"
       stroke-miterlimit="10.433"
       font-style="normal"
       font-variant="normal"
       font-weight="normal"
       font-stretch="normal"
       font-size-adjust="none"
       letter-spacing="normal"
       word-spacing="normal"><path
         style="opacity:1;fill:#2e2b21;fill-opacity:1;stroke:#2e2b21;stroke-width:0;stroke-linecap:butt;stroke-linejoin:miter;stroke-miterlimit:10.43299961;stroke-dasharray:none;stroke-dashoffset:0;stroke-opacity:1"
         inkscape:connector-curvature="0"
         d="m 474.16,436.39 0.04,0.16 0.04,0.16 0.04,0.15 0.04,0.14 0.04,0.14 0.04,0.13 0.05,0.12 0.05,0.11 0.05,0.11 0.06,0.11 0.07,0.09 0.07,0.09 0.08,0.09 0.08,0.08 0.1,0.07 0.1,0.07 0.12,0.06 0.12,0.06 0.14,0.05 0.15,0.05 0.17,0.04 0.08,0.02 0.09,0.02 0.1,0.02 0.1,0.02 0.1,0.01 0.1,0.02 0.11,0.01 0.12,0.01 0.12,0.02 0.12,0.01 0.13,0.01 h 0.13 l 0.13,0.01 0.14,0.01 0.15,0.01 h 0.15 0.16 l 0.16,0.01 h 0.16 0.17 0.18 0.18 c 1.19,0 1.6,0 1.6,0.96 0,0.59 -0.55,0.59 -0.75,0.59 -1.46,0 -5.15,-0.16 -6.58,-0.16 -1.5,0 -5.13,0.16 -6.63,0.16 -0.34,0 -1,0 -1,-1 0,-0.55 0.46,-0.55 1.39,-0.55 2.1,0 3.44,0 3.44,-0.95 0,-0.25 0,-0.34 -0.09,-0.8 l -6.72,-26.84 c -0.46,-1.84 -0.61,-2.34 -4.55,-2.34 -1.14,0 -1.59,0 -1.59,-1 0,-0.55 0.61,-0.55 0.75,-0.55 1.45,0 5.08,0.16 6.53,0.16 1.5,0 5.19,-0.16 6.67,-0.16 0.41,0 1,0 1,0.95 0,0.6 -0.41,0.6 -1.5,0.6 -0.89,0 -1.14,0 -2.14,0.09 -1.05,0.11 -1.23,0.3 -1.23,0.84 0,0.41 0.09,0.8 0.18,1.16 z"
         id="path5298" /><path
         style="opacity:1;fill:#2e2b21;fill-opacity:1;stroke:#2e2b21;stroke-width:0;stroke-linecap:butt;stroke-linejoin:miter;stroke-miterlimit:10.43299961;stroke-dasharray:none;stroke-dashoffset:0;stroke-opacity:1"
         inkscape:connector-curvature="0"
         d="m 527.46,436.39 0.04,0.16 0.04,0.16 0.04,0.15 0.04,0.14 0.04,0.14 0.04,0.13 0.04,0.12 0.05,0.11 0.05,0.11 0.06,0.11 0.06,0.09 0.06,0.09 0.08,0.09 0.08,0.08 0.09,0.07 0.1,0.07 0.1,0.06 0.12,0.06 0.13,0.05 0.14,0.05 0.16,0.04 0.08,0.02 0.08,0.02 0.09,0.02 0.09,0.02 0.1,0.01 0.1,0.02 0.1,0.01 0.11,0.01 0.11,0.02 0.12,0.01 0.12,0.01 h 0.12 l 0.13,0.01 0.13,0.01 0.14,0.01 h 0.14 0.15 l 0.15,0.01 h 0.16 0.16 0.17 0.17 c 1.14,0 1.6,0 1.6,1 0,0.55 -0.5,0.55 -1.35,0.55 h -6.58 c -1.29,0 -1.34,0 -1.93,-0.95 l -18.19,-28.39 -3.89,28.18 c -0.16,1.16 -0.25,1.16 -1.55,1.16 h -6.83 c -0.93,0 -1.48,0 -1.48,-0.95 0,-0.6 0.44,-0.6 1.44,-0.6 0.65,0 1.54,-0.04 2.14,-0.09 0.79,-0.11 1.09,-0.25 1.09,-0.8 0,-0.2 -0.05,-0.36 -0.19,-0.95 l -6.32,-25.36 c -0.5,-2 -1.35,-3.59 -5.4,-3.73 -0.25,0 -0.89,-0.05 -0.89,-0.96 0,-0.43 0.3,-0.59 0.71,-0.59 1.59,0 3.33,0.16 4.97,0.16 1.7,0 3.5,-0.16 5.14,-0.16 0.25,0 0.89,0 0.89,1 0,0.55 -0.55,0.55 -0.89,0.55 -2.85,0.04 -3.39,1.04 -3.39,2.18 0,0.35 0.04,0.6 0.2,1.14 l 6.76,27.16 h 0.07 l 4.28,-30.89 c 0.09,-0.59 0.14,-1.14 0.75,-1.14 0.55,0 0.84,0.55 1.09,0.89 l 20.13,31.55 h 0.04 l -7.12,-28.55 c -0.5,-1.95 -0.59,-2.34 -4.53,-2.34 -0.85,0 -1.39,0 -1.39,-0.96 0,-0.59 0.59,-0.59 0.75,-0.59 1.39,0 4.78,0.16 6.17,0.16 2.05,0 4.19,-0.16 6.23,-0.16 0.3,0 0.94,0 0.94,1 0,0.55 -0.45,0.55 -1.39,0.55 -1.84,0 -3.23,0 -3.23,0.89 0,0.2 0,0.29 0.25,1.2 z"
         id="path5300" /><path
         style="opacity:1;fill:#2e2b21;fill-opacity:1;stroke:#2e2b21;stroke-width:0;stroke-linecap:butt;stroke-linejoin:miter;stroke-miterlimit:10.43299961;stroke-dasharray:none;stroke-dashoffset:0;stroke-opacity:1"
         inkscape:connector-curvature="0"
         d="m 566.72,435 0.1,0.37 0.05,0.19 0.06,0.18 0.06,0.17 0.07,0.17 0.07,0.17 0.08,0.16 0.08,0.16 0.09,0.16 0.1,0.15 0.11,0.14 0.11,0.14 0.13,0.14 0.13,0.12 0.14,0.13 0.15,0.12 0.16,0.11 0.18,0.11 0.18,0.1 0.2,0.09 0.21,0.09 0.23,0.08 0.23,0.08 0.25,0.07 0.27,0.06 0.28,0.06 0.3,0.04 0.31,0.05 0.33,0.03 0.35,0.03 0.18,0.01 h 0.18 c 0.25,0 0.85,0.05 0.85,1 0,0.05 0,0.55 -0.64,0.55 -1.64,0 -3.39,-0.16 -5.08,-0.16 -1.7,0 -3.55,0.16 -5.19,0.16 -0.3,0 -0.89,0 -0.89,-1 0,-0.55 0.5,-0.55 0.89,-0.55 2.85,-0.04 3.39,-1.09 3.39,-2.18 0,-0.16 -0.11,-0.91 -0.15,-1.05 l -4.49,-17.8 c -1.69,-6.67 -7.42,-11 -12.4,-11 -3.38,0 -6.08,2.19 -6.08,6.47 0,0.11 0,1.7 0.54,3.89 l 4.85,19.38 c 0.43,1.79 0.54,2.29 4.19,2.29 1.28,0 1.68,0 1.68,1 0,0.55 -0.54,0.55 -0.7,0.55 -1.39,0 -4.98,-0.16 -6.38,-0.16 -1.43,0 -4.98,0.16 -6.42,0.16 -0.4,0 -0.95,0 -0.95,-1 0,-0.55 0.45,-0.55 1.41,-0.55 0.09,0 1.04,0 1.89,-0.09 0.89,-0.11 1.34,-0.16 1.34,-0.8 0,-0.31 -0.55,-2.39 -0.84,-3.54 l -1.11,-4.38 c -0.44,-1.95 -2.83,-11.36 -3.03,-12.31 -0.35,-1.39 -0.35,-2.14 -0.35,-2.89 0,-6.08 4.53,-9.56 9.77,-9.56 6.26,0 12.45,5.62 14.09,12.2 z"
         id="path5302" /></g>  </g>
  <path
     style="color:#000000;text-decoration:none;text-decoration-line:none;text-decoration-style:solid;text-decoration-color:#000000;clip-rule:nonzero;display:inline;overflow:visible;visibility:visible;opacity:1;isolation:auto;color-interpolation:sRGB;color-interpolation-filters:linearRGB;fill:#3c3c3c;fill-opacity:1;fill-rule:evenodd;stroke:#3c3c3c;stroke-width:2.44784045;stroke-linecap:butt;stroke-linejoin:miter;stroke-miterlimit:10;stroke-dasharray:none;stroke-dashoffset:0;stroke-opacity:1;color-rendering:auto;image-rendering:auto;shape-rendering:auto;text-rendering:auto;enable-background:accumulate"
     d="m 964.02004,474.93855 -10.5265,5.26323 2.6316,-5.26323 -2.6316,-5.26322 z m 0,0"
     id="path4421"
     inkscape:connector-curvature="0" />
  <path
     inkscape:connector-curvature="0"
     style="color:#000000;text-decoration:none;text-decoration-line:none;text-decoration-style:solid;text-decoration-color:#000000;clip-rule:nonzero;display:inline;overflow:visible;visibility:visible;opacity:1;isolation:auto;color-interpolation:sRGB;color-interpolation-filters:linearRGB;fill:none;fill-opacity:1;fill-rule:nonzero;stroke:#3c3c3c;stroke-width:3.20000005;stroke-linecap:butt;stroke-linejoin:miter;stroke-miterlimit:10;stroke-dasharray:none;stroke-dashoffset:0;stroke-opacity:1;color-rendering:auto;image-rendering:auto;shape-rendering:auto;text-rendering:auto;enable-background:accumulate"
     d="M 963.55678,474.93856 H 566.75727"
     id="path4423"
     sodipodi:nodetypes="cc" />
  <path
     inkscape:connector-curvature="0"
     id="path5709"
     d="m 265.15728,538.47529 -5.26323,10.52647 5.26323,-2.63164 5.26322,2.63164 z m 0,0"
     style="color:#000000;text-decoration:none;text-decoration-line:none;text-decoration-style:solid;text-decoration-color:#000000;clip-rule:nonzero;display:inline;overflow:visible;visibility:visible;opacity:1;isolation:auto;color-interpolation:sRGB;color-interpolation-filters:linearRGB;fill:#3c3c3c;fill-opacity:1;fill-rule:evenodd;stroke:#3c3c3c;stroke-width:2.44784045;stroke-linecap:butt;stroke-linejoin:miter;stroke-miterlimit:10;stroke-dasharray:none;stroke-dashoffset:0;stroke-opacity:1;color-rendering:auto;image-rendering:auto;shape-rendering:auto;text-rendering:auto;enable-background:accumulate" />
  <path
     sodipodi:nodetypes="cc"
     inkscape:connector-curvature="0"
     id="path4359"
     d="M 484.35727,570.13855 V 538.93857"
     style="opacity:1;fill:none;fill-opacity:1;fill-rule:evenodd;stroke:#3c3c3c;stroke-width:3.20000005;stroke-linecap:butt;stroke-linejoin:miter;stroke-miterlimit:10;stroke-dasharray:none;stroke-dashoffset:0;stroke-opacity:1" />
  <path
     style="color:#000000;text-decoration:none;text-decoration-line:none;text-decoration-style:solid;text-decoration-color:#000000;clip-rule:nonzero;display:inline;overflow:visible;visibility:visible;opacity:1;isolation:auto;color-interpolation:sRGB;color-interpolation-filters:linearRGB;fill:#3c3c3c;fill-opacity:1;fill-rule:evenodd;stroke:#3c3c3c;stroke-width:2.44784045;stroke-linecap:butt;stroke-linejoin:miter;stroke-miterlimit:10;stroke-dasharray:none;stroke-dashoffset:0;stroke-opacity:1;color-rendering:auto;image-rendering:auto;shape-rendering:auto;text-rendering:auto;enable-background:accumulate"
     d="m 484.35728,538.47529 -5.26323,10.52647 5.26323,-2.63164 5.26322,2.63164 z m 0,0"
     id="path5711"
     inkscape:connector-curvature="0" />
  <path
     style="color:#000000;text-decoration:none;text-decoration-line:none;text-decoration-style:solid;text-decoration-color:#000000;clip-rule:nonzero;display:inline;overflow:visible;visibility:visible;opacity:1;isolation:auto;color-interpolation:sRGB;color-interpolation-filters:linearRGB;fill:#3c3c3c;fill-opacity:1;fill-rule:evenodd;stroke:#3c3c3c;stroke-width:2.44784045;stroke-linecap:butt;stroke-linejoin:miter;stroke-miterlimit:10;stroke-dasharray:none;stroke-dashoffset:0;stroke-opacity:1;color-rendering:auto;image-rendering:auto;shape-rendering:auto;text-rendering:auto;enable-background:accumulate"
     d="m 233.15727,538.47529 -5.26323,10.52647 5.26323,-2.63164 5.26322,2.63164 z m 0,0"
     id="path5705"
     inkscape:connector-curvature="0" />
  <path
     style="color:#000000;text-decoration:none;text-decoration-line:none;text-decoration-style:solid;text-decoration-color:#000000;clip-rule:nonzero;display:inline;overflow:visible;visibility:visible;opacity:1;isolation:auto;color-interpolation:sRGB;color-interpolation-filters:linearRGB;fill:#3c3c3c;fill-opacity:1;fill-rule:evenodd;stroke:#3c3c3c;stroke-width:2.44784045;stroke-linecap:butt;stroke-linejoin:miter;stroke-miterlimit:10;stroke-dasharray:none;stroke-dashoffset:0;stroke-opacity:1;color-rendering:auto;image-rendering:auto;shape-rendering:auto;text-rendering:auto;enable-background:accumulate"
     d="m 183.22051,474.93855 -10.52646,5.26323 2.63162,-5.26323 -2.63162,-5.26322 z m 0,0"
     id="path5703"
     inkscape:connector-curvature="0" />
  <path
     inkscape:connector-curvature="0"
     id="path5697"
     d="m 407.22051,474.93855 -10.52646,5.26323 2.63162,-5.26323 -2.63162,-5.26322 z m 0,0"
     style="color:#000000;text-decoration:none;text-decoration-line:none;text-decoration-style:solid;text-decoration-color:#000000;clip-rule:nonzero;display:inline;overflow:visible;visibility:visible;opacity:1;isolation:auto;color-interpolation:sRGB;color-interpolation-filters:linearRGB;fill:#3c3c3c;fill-opacity:1;fill-rule:evenodd;stroke:#3c3c3c;stroke-width:2.44784045;stroke-linecap:butt;stroke-linejoin:miter;stroke-miterlimit:10;stroke-dasharray:none;stroke-dashoffset:0;stroke-opacity:1;color-rendering:auto;image-rendering:auto;shape-rendering:auto;text-rendering:auto;enable-background:accumulate" />
  <path
     style="color:#000000;text-decoration:none;text-decoration-line:none;text-decoration-style:solid;text-decoration-color:#000000;clip-rule:nonzero;display:inline;overflow:visible;visibility:visible;opacity:1;isolation:auto;color-interpolation:sRGB;color-interpolation-filters:linearRGB;fill:#c44d58;fill-opacity:1;fill-rule:nonzero;stroke:none;stroke-width:0.16;stroke-linecap:butt;stroke-linejoin:miter;stroke-miterlimit:4;stroke-dasharray:none;stroke-dashoffset:0;stroke-opacity:1;marker:none;color-rendering:auto;image-rendering:auto;shape-rendering:auto;text-rendering:auto;enable-background:accumulate"
     d="m 406.75727,410.93857 h 159.99999 v 128 H 406.75727 Z m 0,0"
     id="path4266"
     inkscape:connector-curvature="0" />
  <path
     sodipodi:nodetypes="cc"
     id="path4308"
     d="m 406.75727,474.93856 h -96"
     style="color:#000000;text-decoration:none;text-decoration-line:none;text-decoration-style:solid;text-decoration-color:#000000;clip-rule:nonzero;display:inline;overflow:visible;visibility:visible;opacity:1;isolation:auto;color-interpolation:sRGB;color-interpolation-filters:linearRGB;fill:none;fill-opacity:1;fill-rule:nonzero;stroke:#3c3c3c;stroke-width:3.20000005;stroke-linecap:butt;stroke-linejoin:miter;stroke-miterlimit:10;stroke-dasharray:none;stroke-dashoffset:0;stroke-opacity:1;color-rendering:auto;image-rendering:auto;shape-rendering:auto;text-rendering:auto;enable-background:accumulate"
     inkscape:connector-curvature="0" />
  <path
     inkscape:connector-curvature="0"
     id="path4509"
     d="m 182.75727,410.93857 h 128 v 128 h -128 z m 0,0"
     style="color:#000000;text-decoration:none;text-decoration-line:none;text-decoration-style:solid;text-decoration-color:#000000;clip-rule:nonzero;display:inline;overflow:visible;visibility:visible;opacity:1;isolation:auto;color-interpolation:sRGB;color-interpolation-filters:linearRGB;fill:#c44d58;fill-opacity:1;fill-rule:nonzero;stroke:none;stroke-width:0.16;stroke-linecap:butt;stroke-linejoin:miter;stroke-miterlimit:4;stroke-dasharray:none;stroke-dashoffset:0;stroke-opacity:1;marker:none;color-rendering:auto;image-rendering:auto;shape-rendering:auto;text-rendering:auto;enable-background:accumulate" />
  <text
     sodipodi:linespacing="125%"
     id="text4511"
     y="462.93857"
     x="246.20415"
     style="font-style:normal;font-variant:normal;font-weight:normal;font-stretch:normal;font-size:38.40000153px;line-height:125%;font-family:'Tw Cen MT Condensed';-inkscape-font-specification:'Tw Cen MT Condensed, ';text-align:center;letter-spacing:0px;word-spacing:0px;text-anchor:middle;fill:#ffffff;fill-opacity:1;stroke:none"
     xml:space="preserve"><tspan
       y="462.93857"
       x="246.20415"
       sodipodi:role="line"
       id="tspan4235">EYES IK</tspan><tspan
       y="510.9386"
       x="246.20415"
       sodipodi:role="line"
       id="tspan4495">SOLVER</tspan></text>
  <text
     xml:space="preserve"
     style="font-style:normal;font-variant:normal;font-weight:normal;font-stretch:normal;font-size:38.40000153px;line-height:48.00000381px;font-family:'Tw Cen MT Condensed';-inkscape-font-specification:'Tw Cen MT Condensed, ';text-align:center;letter-spacing:0px;word-spacing:0px;text-anchor:middle;fill:#ffffff;fill-opacity:1;stroke:none"
     x="485.92288"
     y="462.93857"
     id="text4268"><tspan
       id="tspan4421"
       sodipodi:role="line"
       x="485.92288"
       y="462.93857">EYES</tspan><tspan
       sodipodi:role="line"
       x="485.92288"
       y="510.9386"
       id="tspan4497">CONTROLLER</tspan></text>
  <path
     sodipodi:nodetypes="cc"
     id="path4341"
     d="m 126.7576,474.93855 55.99967,10e-6"
     style="color:#000000;text-decoration:none;text-decoration-line:none;text-decoration-style:solid;text-decoration-color:#000000;clip-rule:nonzero;display:inline;overflow:visible;visibility:visible;opacity:1;isolation:auto;color-interpolation:sRGB;color-interpolation-filters:linearRGB;fill:none;fill-opacity:1;fill-rule:nonzero;stroke:#3c3c3c;stroke-width:3.20000005;stroke-linecap:butt;stroke-linejoin:miter;stroke-miterlimit:10;stroke-dasharray:none;stroke-dashoffset:0;stroke-opacity:1;color-rendering:auto;image-rendering:auto;shape-rendering:auto;text-rendering:auto;enable-background:accumulate"
     inkscape:connector-curvature="0" />
  <g
     id="g4573"
     transform="translate(721.69783,80.78766)">
    <g
       id="g4570"
       transform="matrix(0.86763767,0,0,-0.86763767,-151.83659,825.39525)"
       xml:space="preserve"
       stroke-miterlimit="10.433"
       font-style="normal"
       font-variant="normal"
       font-weight="normal"
       font-stretch="normal"
       font-size-adjust="none"
       letter-spacing="normal"
       word-spacing="normal"
       style="font-style:normal;font-variant:normal;font-weight:normal;font-stretch:normal;letter-spacing:normal;word-spacing:normal;text-anchor:start;fill:none;fill-opacity:1;fill-rule:evenodd;stroke:#000000;stroke-linecap:butt;stroke-linejoin:miter;stroke-miterlimit:10.43299961;stroke-dasharray:none;stroke-dashoffset:0;stroke-opacity:1"><path
         d="m 482.57,427.82 v 0.03 l -0.01,0.03 v 0.02 0.03 l -0.01,0.04 -0.01,0.03 v 0.03 l -0.01,0.04 -0.02,0.03 -0.01,0.04 -0.01,0.04 -0.02,0.04 -0.02,0.03 -0.02,0.04 -0.02,0.04 -0.03,0.03 -0.02,0.04 -0.03,0.03 -0.03,0.04 -0.03,0.03 -0.04,0.03 -0.04,0.03 -0.04,0.03 -0.04,0.02 -0.04,0.02 -0.05,0.02 -0.03,0.01 -0.02,0.01 -0.03,0.01 -0.02,0.01 h -0.03 l -0.03,0.01 h -0.03 l -0.03,0.01 h -0.03 -0.03 -0.03 -0.03 c -0.05,0 -2.99,-0.68 -4.54,-2.14 -0.7,0.8 -2.39,2.14 -5.32,2.14 l 0.09,-1.79 c 2.94,0 4.14,-2.33 4.14,-2.88 0,-0.2 -0.05,-0.56 -0.11,-0.7 l -2.98,-11.81 c -0.25,-0.85 -0.25,-0.94 -0.8,-1.44 -1.59,-1.59 -3.69,-2.5 -5.44,-2.5 -3.08,0 -3.33,2.69 -3.33,3.8 0,2.57 1.69,8.72 2.49,10.65 1.55,3.64 3.98,4.88 6.03,4.88 l -0.09,1.79 c -8.68,0 -14.07,-7.87 -14.07,-14.68 0,-6.14 4.6,-8.24 8.72,-8.24 2.41,0 4.39,0.96 5.44,1.61 l -1.89,-7.58 c -0.2,-0.75 -0.25,-0.79 -0.59,-0.84 -0.55,-0.11 -1.35,-0.11 -1.91,-0.11 -0.84,0 -1.14,0 -1.39,-0.3 -0.25,-0.29 -0.39,-1.09 -0.39,-1.14 0,-0.29 0.19,-0.9 0.98,-0.9 1.71,0 3.55,0.15 5.28,0.15 1.85,0 3.75,-0.15 5.54,-0.15 0.35,0 1.29,0 1.29,1.45 0,0.84 -0.84,0.89 -1.29,0.89 -0.69,0 -1.49,0 -2.15,0.05 z"
         id="path4566"
         inkscape:connector-curvature="0"
         style="opacity:1;fill:#2e2b21;fill-opacity:1;stroke:#2e2b21;stroke-width:0;stroke-linecap:butt;stroke-linejoin:miter;stroke-miterlimit:10.43299961;stroke-dasharray:none;stroke-dashoffset:0;stroke-opacity:1" /><path
         d="m 510.11,406.81 0.01,0.02 0.01,0.02 0.01,0.02 0.01,0.02 0.01,0.02 0.01,0.02 0.01,0.02 0.01,0.01 v 0.02 l 0.01,0.02 0.01,0.03 0.02,0.03 0.01,0.03 0.01,0.03 0.01,0.03 0.01,0.02 0.01,0.03 0.01,0.02 v 0.02 l 0.01,0.02 v 0.02 l 0.01,0.02 v 0.01 l 0.01,0.02 v 0.01 0.01 l 0.01,0.02 v 0.01 0.01 0.01 0 0.01 0.01 0 0.01 0 0 c 0,0.22 -0.14,0.5 -0.59,0.5 -0.08,0 -0.25,0 -0.39,-0.14 -0.06,-0.08 -0.11,-0.11 -0.52,-1.01 -2.26,-5.02 -4.04,-6.77 -9.73,-6.77 h -5.92 c -1.08,0 -1.11,0.05 -1.11,0.36 0,0.03 0,0.2 0.14,0.72 l 2.33,9.34 h 3.9 c 2.75,0 3.17,-0.45 3.17,-1.61 0,-0.37 -0.11,-0.96 -0.25,-1.56 -0.09,-0.31 -0.09,-0.34 -0.09,-0.42 0,-0.06 0.03,-0.48 0.59,-0.48 0.49,0 0.52,0.17 0.66,0.76 l 1.92,7.64 c 0.1,0.41 0.1,0.49 0.1,0.52 0,0.34 -0.27,0.48 -0.6,0.48 -0.45,0 -0.48,-0.17 -0.69,-0.9 -0.73,-2.72 -1.78,-3.18 -4.73,-3.18 h -3.67 l 2.09,8.3 c 0.28,1.08 0.31,1.19 1.78,1.19 h 5.67 c 4.58,0 5.72,-0.94 5.72,-4.05 0,-0.91 -0.14,-1.95 -0.14,-2.12 0,-0.29 0.11,-0.6 0.6,-0.6 0.53,0 0.56,0.31 0.62,0.91 l 0.63,6.06 c 0.11,1.05 -0.13,1.05 -1,1.05 h -19.18 c -0.68,0 -1.1,0 -1.1,-0.77 0,-0.48 0.37,-0.48 1.15,-0.48 0.55,0 0.69,0 1.31,-0.08 0.71,-0.06 0.77,-0.13 0.77,-0.48 0,-0.24 -0.09,-0.6 -0.14,-0.77 l -4.56,-18.22 c -0.35,-1.36 -0.38,-1.61 -3.1,-1.61 -0.62,0 -1.04,0 -1.04,-0.76 0,-0.49 0.42,-0.49 1.04,-0.49 h 19.69 c 0.86,0 0.91,0 1.19,0.63 z"
         id="path4568"
         inkscape:connector-curvature="0"
         style="opacity:1;fill:#2e2b21;fill-opacity:1;stroke:#2e2b21;stroke-width:0;stroke-linecap:butt;stroke-linejoin:miter;stroke-miterlimit:10.43299961;stroke-dasharray:none;stroke-dashoffset:0;stroke-opacity:1" /></g>  </g>
  <g
     id="g4797"
     transform="translate(81.965513,-16.395684)">
    <g
       word-spacing="normal"
       letter-spacing="normal"
       font-size-adjust="none"
       font-stretch="normal"
       font-weight="normal"
       font-variant="normal"
       font-style="normal"
       stroke-miterlimit="10.433"
       xml:space="preserve"
       transform="matrix(0.86763767,0,0,-0.86763767,-151.83659,825.39525)"
       id="g4795"
       style="font-style:normal;font-variant:normal;font-weight:normal;font-stretch:normal;letter-spacing:normal;word-spacing:normal;text-anchor:start;fill:none;fill-opacity:1;fill-rule:evenodd;stroke:#000000;stroke-linecap:butt;stroke-linejoin:miter;stroke-miterlimit:10.43299961;stroke-dasharray:none;stroke-dashoffset:0;stroke-opacity:1"><path
         id="path4789"
         d="m 482.57,427.82 v 0.03 l -0.01,0.03 v 0.02 0.03 l -0.01,0.04 -0.01,0.03 v 0.03 l -0.01,0.04 -0.02,0.03 -0.01,0.04 -0.01,0.04 -0.02,0.04 -0.02,0.03 -0.02,0.04 -0.02,0.04 -0.03,0.03 -0.02,0.04 -0.03,0.03 -0.03,0.04 -0.03,0.03 -0.04,0.03 -0.04,0.03 -0.04,0.03 -0.04,0.02 -0.04,0.02 -0.05,0.02 -0.03,0.01 -0.02,0.01 -0.03,0.01 -0.02,0.01 h -0.03 l -0.03,0.01 h -0.03 l -0.03,0.01 h -0.03 -0.03 -0.03 -0.03 c -0.05,0 -2.99,-0.68 -4.54,-2.14 -0.7,0.8 -2.39,2.14 -5.32,2.14 l 0.09,-1.79 c 2.94,0 4.14,-2.33 4.14,-2.88 0,-0.2 -0.05,-0.56 -0.11,-0.7 l -2.98,-11.81 c -0.25,-0.85 -0.25,-0.94 -0.8,-1.44 -1.59,-1.59 -3.69,-2.5 -5.44,-2.5 -3.08,0 -3.33,2.69 -3.33,3.8 0,2.57 1.69,8.72 2.49,10.65 1.55,3.64 3.98,4.88 6.03,4.88 l -0.09,1.79 c -8.68,0 -14.07,-7.87 -14.07,-14.68 0,-6.14 4.6,-8.24 8.72,-8.24 2.41,0 4.39,0.96 5.44,1.61 l -1.89,-7.58 c -0.2,-0.75 -0.25,-0.79 -0.59,-0.84 -0.55,-0.11 -1.35,-0.11 -1.91,-0.11 -0.84,0 -1.14,0 -1.39,-0.3 -0.25,-0.29 -0.39,-1.09 -0.39,-1.14 0,-0.29 0.19,-0.9 0.98,-0.9 1.71,0 3.55,0.15 5.28,0.15 1.85,0 3.75,-0.15 5.54,-0.15 0.35,0 1.29,0 1.29,1.45 0,0.84 -0.84,0.89 -1.29,0.89 -0.69,0 -1.49,0 -2.15,0.05 z"
         inkscape:connector-curvature="0"
         style="opacity:1;fill:#2e2b21;fill-opacity:1;stroke:#2e2b21;stroke-width:0;stroke-linecap:butt;stroke-linejoin:miter;stroke-miterlimit:10.43299961;stroke-dasharray:none;stroke-dashoffset:0;stroke-opacity:1" /><path
         id="path4791"
         d="m 495.57,432.87 0.26,0.12 0.26,0.11 0.24,0.11 0.24,0.1 0.23,0.1 0.22,0.1 0.21,0.09 0.21,0.09 0.2,0.08 0.19,0.08 0.18,0.08 0.18,0.07 0.17,0.08 0.16,0.06 0.16,0.07 0.15,0.06 0.14,0.06 0.14,0.06 0.14,0.06 0.13,0.05 0.12,0.06 0.12,0.05 0.11,0.05 0.11,0.04 0.11,0.05 0.1,0.04 0.19,0.09 0.18,0.08 0.17,0.08 c 0.67,0.27 0.98,0.41 0.98,1.08 0,0.59 -0.45,1.11 -1.08,1.11 -0.25,0 -0.31,0 -0.73,-0.31 l -4.74,-3.17 0.52,5.15 c 0.08,0.63 0,1.5 -1.05,1.5 -0.42,0 -1.08,-0.28 -1.08,-1.04 0,-0.32 0.14,-1.36 0.18,-1.71 0.07,-0.59 0.31,-3.11 0.39,-3.9 l -4.71,3.17 c -0.36,0.2 -0.45,0.31 -0.76,0.31 -0.64,0 -1.1,-0.52 -1.1,-1.11 0,-0.7 0.43,-0.87 0.74,-1.01 l 5.26,-2.19 c -2.86,-1.27 -4.14,-1.75 -5.01,-2.17 -0.66,-0.29 -0.99,-0.43 -0.99,-1.08 0,-0.6 0.46,-1.11 1.1,-1.11 0.23,0 0.31,0 0.72,0.31 l 4.75,3.17 -0.57,-5.61 c 0,-0.76 0.66,-1.04 1.08,-1.04 0.42,0 1.08,0.28 1.08,1.04 0,0.32 -0.14,1.36 -0.17,1.71 -0.06,0.59 -0.31,3.09 -0.38,3.9 l 4.18,-2.79 c 0.9,-0.69 0.98,-0.69 1.29,-0.69 0.63,0 1.08,0.51 1.08,1.11 0,0.7 -0.42,0.87 -0.73,1.01 z"
         inkscape:connector-curvature="0"
         style="opacity:1;fill:#2e2b21;fill-opacity:1;stroke:#2e2b21;stroke-width:0;stroke-linecap:butt;stroke-linejoin:miter;stroke-miterlimit:10.43299961;stroke-dasharray:none;stroke-dashoffset:0;stroke-opacity:1" /><path
         id="path4793"
         d="m 510.11,400.45 0.01,0.02 0.01,0.02 0.01,0.02 0.01,0.02 0.01,0.02 0.01,0.01 0.01,0.02 0.01,0.02 v 0.02 l 0.01,0.02 0.01,0.03 0.02,0.03 0.01,0.03 0.01,0.03 0.01,0.02 0.01,0.03 0.01,0.02 0.01,0.03 v 0.02 l 0.01,0.02 v 0.02 l 0.01,0.01 v 0.02 l 0.01,0.01 v 0.02 0.01 l 0.01,0.01 v 0.01 0.01 0.01 0.01 0.01 0 0.01 0 0.01 0 c 0,0.22 -0.14,0.5 -0.59,0.5 -0.08,0 -0.25,0 -0.39,-0.14 -0.06,-0.08 -0.11,-0.11 -0.52,-1.02 -2.26,-5.01 -4.04,-6.76 -9.73,-6.76 h -5.92 c -1.08,0 -1.11,0.05 -1.11,0.36 0,0.03 0,0.2 0.14,0.72 l 2.33,9.34 h 3.9 c 2.75,0 3.17,-0.45 3.17,-1.61 0,-0.37 -0.11,-0.97 -0.25,-1.56 -0.09,-0.31 -0.09,-0.35 -0.09,-0.42 0,-0.07 0.03,-0.49 0.59,-0.49 0.49,0 0.52,0.17 0.66,0.77 l 1.92,7.64 c 0.1,0.4 0.1,0.48 0.1,0.51 0,0.35 -0.27,0.49 -0.6,0.49 -0.45,0 -0.48,-0.17 -0.69,-0.91 -0.73,-2.72 -1.78,-3.17 -4.73,-3.17 h -3.67 l 2.09,8.3 c 0.28,1.08 0.31,1.18 1.78,1.18 h 5.67 c 4.58,0 5.72,-0.93 5.72,-4.04 0,-0.91 -0.14,-1.96 -0.14,-2.13 0,-0.28 0.11,-0.59 0.6,-0.59 0.53,0 0.56,0.31 0.62,0.91 l 0.63,6.06 c 0.11,1.04 -0.13,1.04 -1,1.04 h -19.18 c -0.68,0 -1.1,0 -1.1,-0.76 0,-0.49 0.37,-0.49 1.15,-0.49 0.55,0 0.69,0 1.31,-0.07 0.71,-0.07 0.77,-0.13 0.77,-0.49 0,-0.23 -0.09,-0.59 -0.14,-0.76 l -4.56,-18.22 c -0.35,-1.36 -0.38,-1.61 -3.1,-1.61 -0.62,0 -1.04,0 -1.04,-0.77 0,-0.48 0.42,-0.48 1.04,-0.48 h 19.69 c 0.86,0 0.91,0 1.19,0.62 z"
         inkscape:connector-curvature="0"
         style="opacity:1;fill:#2e2b21;fill-opacity:1;stroke:#2e2b21;stroke-width:0;stroke-linecap:butt;stroke-linejoin:miter;stroke-miterlimit:10.43299961;stroke-dasharray:none;stroke-dashoffset:0;stroke-opacity:1" /></g>  </g>
  <g
     id="g5535"
     transform="translate(333.96532,-16.395684)">
    <g
       id="g5533"
       transform="matrix(0.86763767,0,0,-0.86763767,-151.83659,825.39525)"
       xml:space="preserve"
       stroke-miterlimit="10.433"
       font-style="normal"
       font-variant="normal"
       font-weight="normal"
       font-stretch="normal"
       font-size-adjust="none"
       letter-spacing="normal"
       word-spacing="normal"
       style="font-style:normal;font-variant:normal;font-weight:normal;font-stretch:normal;letter-spacing:normal;word-spacing:normal;text-anchor:start;fill:none;fill-opacity:1;fill-rule:evenodd;stroke:#000000;stroke-linecap:butt;stroke-linejoin:miter;stroke-miterlimit:10.43299961;stroke-dasharray:none;stroke-dashoffset:0;stroke-opacity:1"><path
         d="m 477.44,437.61 v 0.12 l -0.01,0.13 -0.02,0.12 -0.02,0.13 -0.03,0.12 -0.03,0.12 -0.04,0.12 -0.05,0.12 -0.05,0.11 -0.06,0.12 -0.06,0.11 -0.07,0.11 -0.07,0.1 -0.08,0.1 -0.08,0.1 -0.09,0.09 -0.09,0.09 -0.09,0.09 -0.1,0.08 -0.1,0.08 -0.11,0.07 -0.11,0.07 -0.12,0.06 -0.11,0.06 -0.12,0.05 -0.13,0.04 -0.13,0.04 -0.12,0.03 -0.14,0.03 -0.13,0.02 -0.14,0.01 h -0.14 c -1.69,0 -2.69,-1.39 -2.69,-2.64 0,-1.34 1.14,-2.64 2.64,-2.64 1.69,0 2.69,1.39 2.69,2.64 z"
         id="path5525"
         inkscape:connector-curvature="0"
         style="opacity:1;fill:#2e2b21;fill-opacity:1;stroke:#2e2b21;stroke-width:0;stroke-linecap:butt;stroke-linejoin:miter;stroke-miterlimit:10.43299961;stroke-dasharray:none;stroke-dashoffset:0;stroke-opacity:1" /><path
         d="m 482.57,427.82 v 0.03 l -0.01,0.03 v 0.02 0.03 l -0.01,0.04 -0.01,0.03 v 0.03 l -0.01,0.04 -0.02,0.03 -0.01,0.04 -0.01,0.04 -0.02,0.04 -0.02,0.03 -0.02,0.04 -0.02,0.04 -0.03,0.03 -0.02,0.04 -0.03,0.03 -0.03,0.04 -0.03,0.03 -0.04,0.03 -0.04,0.03 -0.04,0.03 -0.04,0.02 -0.04,0.02 -0.05,0.02 -0.03,0.01 -0.02,0.01 -0.03,0.01 -0.02,0.01 h -0.03 l -0.03,0.01 h -0.03 l -0.03,0.01 h -0.03 -0.03 -0.03 -0.03 c -0.05,0 -2.99,-0.68 -4.54,-2.14 -0.7,0.8 -2.39,2.14 -5.32,2.14 l 0.09,-1.79 c 2.94,0 4.14,-2.33 4.14,-2.88 0,-0.2 -0.05,-0.56 -0.11,-0.7 l -2.98,-11.81 c -0.25,-0.85 -0.25,-0.94 -0.8,-1.44 -1.59,-1.59 -3.69,-2.5 -5.44,-2.5 -3.08,0 -3.33,2.69 -3.33,3.8 0,2.57 1.69,8.72 2.49,10.65 1.55,3.64 3.98,4.88 6.03,4.88 l -0.09,1.79 c -8.68,0 -14.07,-7.87 -14.07,-14.68 0,-6.14 4.6,-8.24 8.72,-8.24 2.41,0 4.39,0.96 5.44,1.61 l -1.89,-7.58 c -0.2,-0.75 -0.25,-0.79 -0.59,-0.84 -0.55,-0.11 -1.35,-0.11 -1.91,-0.11 -0.84,0 -1.14,0 -1.39,-0.3 -0.25,-0.29 -0.39,-1.09 -0.39,-1.14 0,-0.29 0.19,-0.9 0.98,-0.9 1.71,0 3.55,0.15 5.28,0.15 1.85,0 3.75,-0.15 5.54,-0.15 0.35,0 1.29,0 1.29,1.45 0,0.84 -0.84,0.89 -1.29,0.89 -0.69,0 -1.49,0 -2.15,0.05 z"
         id="path5527"
         inkscape:connector-curvature="0"
         style="opacity:1;fill:#2e2b21;fill-opacity:1;stroke:#2e2b21;stroke-width:0;stroke-linecap:butt;stroke-linejoin:miter;stroke-miterlimit:10.43299961;stroke-dasharray:none;stroke-dashoffset:0;stroke-opacity:1" /><path
         d="m 495.57,432.87 0.26,0.12 0.26,0.11 0.24,0.11 0.24,0.1 0.23,0.1 0.22,0.1 0.21,0.09 0.21,0.09 0.2,0.08 0.19,0.08 0.18,0.08 0.18,0.07 0.17,0.08 0.16,0.06 0.16,0.07 0.15,0.06 0.14,0.06 0.14,0.06 0.14,0.06 0.13,0.05 0.12,0.06 0.12,0.05 0.11,0.05 0.11,0.04 0.11,0.05 0.1,0.04 0.19,0.09 0.18,0.08 0.17,0.08 c 0.67,0.27 0.98,0.41 0.98,1.08 0,0.59 -0.45,1.11 -1.08,1.11 -0.25,0 -0.31,0 -0.73,-0.31 l -4.74,-3.17 0.52,5.15 c 0.08,0.63 0,1.5 -1.05,1.5 -0.42,0 -1.08,-0.28 -1.08,-1.04 0,-0.32 0.14,-1.36 0.18,-1.71 0.07,-0.59 0.31,-3.11 0.39,-3.9 l -4.71,3.17 c -0.36,0.2 -0.45,0.31 -0.76,0.31 -0.64,0 -1.1,-0.52 -1.1,-1.11 0,-0.7 0.43,-0.87 0.74,-1.01 l 5.26,-2.19 c -2.86,-1.27 -4.14,-1.75 -5.01,-2.17 -0.66,-0.29 -0.99,-0.43 -0.99,-1.08 0,-0.6 0.46,-1.11 1.1,-1.11 0.23,0 0.31,0 0.72,0.31 l 4.75,3.17 -0.57,-5.61 c 0,-0.76 0.66,-1.04 1.08,-1.04 0.42,0 1.08,0.28 1.08,1.04 0,0.32 -0.14,1.36 -0.17,1.71 -0.06,0.59 -0.31,3.09 -0.38,3.9 l 4.18,-2.79 c 0.9,-0.69 0.98,-0.69 1.29,-0.69 0.63,0 1.08,0.51 1.08,1.11 0,0.7 -0.42,0.87 -0.73,1.01 z"
         id="path5529"
         inkscape:connector-curvature="0"
         style="opacity:1;fill:#2e2b21;fill-opacity:1;stroke:#2e2b21;stroke-width:0;stroke-linecap:butt;stroke-linejoin:miter;stroke-miterlimit:10.43299961;stroke-dasharray:none;stroke-dashoffset:0;stroke-opacity:1" /><path
         d="m 510.11,400.45 0.01,0.02 0.01,0.02 0.01,0.02 0.01,0.02 0.01,0.02 0.01,0.01 0.01,0.02 0.01,0.02 v 0.02 l 0.01,0.02 0.01,0.03 0.02,0.03 0.01,0.03 0.01,0.03 0.01,0.02 0.01,0.03 0.01,0.02 0.01,0.03 v 0.02 l 0.01,0.02 v 0.02 l 0.01,0.01 v 0.02 l 0.01,0.01 v 0.02 0.01 l 0.01,0.01 v 0.01 0.01 0.01 0.01 0.01 0 0.01 0 0.01 0 c 0,0.22 -0.14,0.5 -0.59,0.5 -0.08,0 -0.25,0 -0.39,-0.14 -0.06,-0.08 -0.11,-0.11 -0.52,-1.02 -2.26,-5.01 -4.04,-6.76 -9.73,-6.76 h -5.92 c -1.08,0 -1.11,0.05 -1.11,0.36 0,0.03 0,0.2 0.14,0.72 l 2.33,9.34 h 3.9 c 2.75,0 3.17,-0.45 3.17,-1.61 0,-0.37 -0.11,-0.97 -0.25,-1.56 -0.09,-0.31 -0.09,-0.35 -0.09,-0.42 0,-0.07 0.03,-0.49 0.59,-0.49 0.49,0 0.52,0.17 0.66,0.77 l 1.92,7.64 c 0.1,0.4 0.1,0.48 0.1,0.51 0,0.35 -0.27,0.49 -0.6,0.49 -0.45,0 -0.48,-0.17 -0.69,-0.91 -0.73,-2.72 -1.78,-3.17 -4.73,-3.17 h -3.67 l 2.09,8.3 c 0.28,1.08 0.31,1.18 1.78,1.18 h 5.67 c 4.58,0 5.72,-0.93 5.72,-4.04 0,-0.91 -0.14,-1.96 -0.14,-2.13 0,-0.28 0.11,-0.59 0.6,-0.59 0.53,0 0.56,0.31 0.62,0.91 l 0.63,6.06 c 0.11,1.04 -0.13,1.04 -1,1.04 h -19.18 c -0.68,0 -1.1,0 -1.1,-0.76 0,-0.49 0.37,-0.49 1.15,-0.49 0.55,0 0.69,0 1.31,-0.07 0.71,-0.07 0.77,-0.13 0.77,-0.49 0,-0.23 -0.09,-0.59 -0.14,-0.76 l -4.56,-18.22 c -0.35,-1.36 -0.38,-1.61 -3.1,-1.61 -0.62,0 -1.04,0 -1.04,-0.77 0,-0.48 0.42,-0.48 1.04,-0.48 h 19.69 c 0.86,0 0.91,0 1.19,0.62 z"
         id="path5531"
         inkscape:connector-curvature="0"
         style="opacity:1;fill:#2e2b21;fill-opacity:1;stroke:#2e2b21;stroke-width:0;stroke-linecap:butt;stroke-linejoin:miter;stroke-miterlimit:10.43299961;stroke-dasharray:none;stroke-dashoffset:0;stroke-opacity:1" /></g>  </g>
  <g
     transform="matrix(0.94922623,0,0,0.94922623,-224.58848,-114.53573)"
     id="g4263"
     style="stroke-width:1.05348969">
    <g
       style="font-style:normal;font-variant:normal;font-weight:normal;font-stretch:normal;letter-spacing:normal;word-spacing:normal;text-anchor:start;fill:none;fill-opacity:1;fill-rule:evenodd;stroke:#000000;stroke-width:1.05348969;stroke-linecap:butt;stroke-linejoin:miter;stroke-miterlimit:10.43299961;stroke-dasharray:none;stroke-dashoffset:0;stroke-opacity:1"
       id="g4261"
       transform="matrix(0.86763767,0,0,-0.86763767,-151.83659,825.39525)"
       xml:space="preserve"
       stroke-miterlimit="10.433"
       font-style="normal"
       font-variant="normal"
       font-weight="normal"
       font-stretch="normal"
       font-size-adjust="none"
       letter-spacing="normal"
       word-spacing="normal"><polygon
         style="opacity:1;fill:#2e2b21;fill-opacity:1;stroke:#2e2b21;stroke-width:0;stroke-linecap:butt;stroke-linejoin:miter;stroke-miterlimit:10.43299961;stroke-dasharray:none;stroke-dashoffset:0;stroke-opacity:1"
         points="466.94,434.72 467.83,433.83 473.61,438.91 479.35,433.83 480.24,434.72 473.61,441.5 "
         id="polygon4253" /><path
         style="opacity:1;fill:#2e2b21;fill-opacity:1;stroke:#2e2b21;stroke-width:0;stroke-linecap:butt;stroke-linejoin:miter;stroke-miterlimit:10.43299961;stroke-dasharray:none;stroke-dashoffset:0;stroke-opacity:1"
         inkscape:connector-curvature="0"
         d="m 482.22,426.18 -0.16,-0.05 -0.16,-0.05 -0.16,-0.07 -0.15,-0.07 -0.14,-0.07 -0.14,-0.08 -0.14,-0.09 -0.13,-0.09 -0.12,-0.1 -0.12,-0.1 -0.11,-0.1 -0.11,-0.11 -0.1,-0.11 -0.1,-0.11 -0.09,-0.12 -0.08,-0.12 -0.09,-0.12 -0.07,-0.12 -0.07,-0.13 -0.07,-0.13 -0.06,-0.12 -0.05,-0.13 -0.05,-0.13 -0.05,-0.13 -0.04,-0.12 -0.03,-0.13 -0.03,-0.13 -0.02,-0.12 -0.02,-0.13 -0.01,-0.12 -0.01,-0.12 v -0.11 c 0,-1.11 0.84,-2.3 2.48,-2.3 1.75,0 3.59,1.44 3.59,3.89 0,2.64 -2.64,4.37 -5.68,4.37 -2.83,0 -4.68,-2.14 -5.33,-3.03 -1.24,2.1 -4.03,3.03 -6.88,3.03 -6.28,0 -9.65,-6.12 -9.65,-7.76 0,-0.7 0.73,-0.7 1.18,-0.7 0.6,0 0.96,0 1.14,0.65 1.46,4.53 5.05,6.02 7.08,6.02 1.89,0 2.8,-0.89 2.8,-2.49 0,-0.95 -0.7,-3.68 -1.16,-5.48 l -1.68,-6.83 c -0.75,-3.03 -2.55,-4.53 -4.24,-4.53 -0.25,0 -1.39,0 -2.39,0.75 1.8,0.5 2.69,2.19 2.69,3.44 0,1.09 -0.85,2.29 -2.49,2.29 -1.75,0 -3.59,-1.45 -3.59,-3.89 0,-2.64 2.64,-4.39 5.69,-4.39 2.83,0 4.67,2.16 5.33,3.05 1.25,-2.09 4.03,-3.05 6.87,-3.05 6.28,0 9.66,6.14 9.66,7.78 0,0.71 -0.74,0.71 -1.19,0.71 -0.59,0 -0.95,0 -1.14,-0.66 -1.45,-4.53 -5.03,-6.03 -7.08,-6.03 -1.89,0 -2.8,0.91 -2.8,2.5 0,1.05 0.66,3.69 1.1,5.53 0.36,1.3 1.5,5.97 1.75,6.77 0.75,3 2.48,4.53 4.23,4.53 0.25,0 1.39,0 2.39,-0.74 z"
         id="path4255" /><path
         style="opacity:1;fill:#2e2b21;fill-opacity:1;stroke:#2e2b21;stroke-width:0;stroke-linecap:butt;stroke-linejoin:miter;stroke-miterlimit:10.43299961;stroke-dasharray:none;stroke-dashoffset:0;stroke-opacity:1"
         inkscape:connector-curvature="0"
         d="m 500.32,409.98 h 3.72 c 2.66,0 3.11,-0.42 3.11,-1.56 0,-0.53 0,-0.6 -0.25,-1.58 -0.06,-0.2 -0.11,-0.31 -0.11,-0.41 0,-0.36 0.25,-0.53 0.59,-0.53 0.46,0 0.5,0.17 0.67,0.8 l 1.88,7.39 c 0.03,0.11 0.14,0.62 0.14,0.7 0,0.35 -0.25,0.52 -0.59,0.52 -0.49,0 -0.52,-0.2 -0.69,-0.83 -0.7,-2.72 -1.72,-3.25 -4.67,-3.25 h -3.49 l 2.19,8.75 c 0.28,1.08 0.31,1.19 1.78,1.19 h 5.33 c 4.64,0 5.52,-1.11 5.52,-4.02 0,-1.14 -0.15,-1.87 -0.15,-2.15 0,-0.29 0.1,-0.6 0.6,-0.6 0.51,0 0.55,0.31 0.62,0.91 l 0.63,6.06 c 0.09,1.05 -0.14,1.05 -1.02,1.05 h -18.61 c -0.65,0 -1.11,0 -1.11,-0.77 0,-0.48 0.43,-0.48 1.11,-0.48 0.05,0 0.71,0 1.33,-0.08 0.74,-0.06 0.8,-0.13 0.8,-0.48 0,-0.24 -0.1,-0.6 -0.14,-0.77 l -4.56,-18.22 c -0.35,-1.36 -0.38,-1.61 -3.1,-1.61 -0.59,0 -1.05,0 -1.05,-0.73 0,-0.35 0.24,-0.52 0.57,-0.52 1,0 3.58,0.14 4.59,0.14 l 2.69,-0.03 c 0.9,0 1.87,-0.11 2.75,-0.11 0.23,0 0.76,0 0.76,0.77 0,0.48 -0.42,0.48 -1.21,0.48 -0.08,0 -0.94,0 -1.82,0.08 -0.73,0.06 -1.08,0.09 -1.08,0.59 0,0.14 0,0.24 0.1,0.63 z"
         id="path4257" /><path
         style="opacity:1;fill:#2e2b21;fill-opacity:1;stroke:#2e2b21;stroke-width:0;stroke-linecap:butt;stroke-linejoin:miter;stroke-miterlimit:10.43299961;stroke-dasharray:none;stroke-dashoffset:0;stroke-opacity:1"
         inkscape:connector-curvature="0"
         d="m 530.99,409.56 0.14,1.12 2.38,9.44 c 0.28,1.08 0.31,1.19 1.78,1.19 h 4.08 c 3.23,0 5.25,-0.99 5.25,-3.45 0,-1.08 -0.41,-3.83 -2.16,-5.41 -1.25,-1.11 -3.23,-1.77 -5.75,-1.77 h -5.58 l -0.14,-1.12 h 6.31 c 5.9,0 10.88,3.76 10.88,7.56 0,2.94 -2.86,5.44 -7.64,5.44 h -12.19 c -0.7,0 -1.11,0 -1.11,-0.77 0,-0.48 0.38,-0.48 1.14,-0.48 0.57,0 0.71,0 1.33,-0.08 0.7,-0.06 0.77,-0.14 0.77,-0.48 0,-0.07 0,-0.24 -0.14,-0.77 l -4.6,-18.36 c -0.36,-1.36 -0.39,-1.61 -3.11,-1.61 -0.62,0 -1.04,0 -1.04,-0.76 0,-0.04 0,-0.49 0.56,-0.49 1.01,0 3.51,0.14 4.53,0.14 0.59,0 1.81,0 2.41,-0.03 0.68,-0.05 1.56,-0.11 2.23,-0.11 0.2,0 0.72,0 0.72,0.77 0,0.48 -0.41,0.48 -1.11,0.48 -0.03,0 -0.7,0 -1.33,0.08 -0.8,0.06 -0.8,0.17 -0.8,0.52 0,0.03 0,0.25 0.15,0.76 z"
         id="path4259" /></g>  </g>
  <g
     id="g4262"
     transform="matrix(0.72652939,0,0,0.72652933,428.38575,285.56994)"
     style="stroke-width:1.37640691">
    <g
       word-spacing="normal"
       letter-spacing="normal"
       font-size-adjust="none"
       font-stretch="normal"
       font-weight="normal"
       font-variant="normal"
       font-style="normal"
       stroke-miterlimit="10.433"
       xml:space="preserve"
       transform="matrix(0.86763767,0,0,-0.86763767,-151.83659,825.39525)"
       id="g4260"
       style="font-style:normal;font-variant:normal;font-weight:normal;font-stretch:normal;letter-spacing:normal;word-spacing:normal;text-anchor:start;fill:none;fill-opacity:1;fill-rule:evenodd;stroke:#000000;stroke-width:1.37640691;stroke-linecap:butt;stroke-linejoin:miter;stroke-miterlimit:10.43299961;stroke-dasharray:none;stroke-dashoffset:0;stroke-opacity:1"><path
         id="path4253"
         d="m 474.16,436.39 0.04,0.16 0.04,0.16 0.04,0.15 0.04,0.14 0.04,0.14 0.04,0.13 0.05,0.12 0.05,0.11 0.05,0.11 0.06,0.11 0.07,0.09 0.07,0.09 0.08,0.09 0.08,0.08 0.1,0.07 0.1,0.07 0.12,0.06 0.12,0.06 0.14,0.05 0.15,0.05 0.17,0.04 0.08,0.02 0.09,0.02 0.1,0.02 0.1,0.02 0.1,0.01 0.1,0.02 0.11,0.01 0.12,0.01 0.12,0.02 0.12,0.01 0.13,0.01 h 0.13 l 0.13,0.01 0.14,0.01 0.15,0.01 h 0.15 0.16 l 0.16,0.01 h 0.16 0.17 0.18 0.18 c 1.19,0 1.6,0 1.6,0.96 0,0.59 -0.55,0.59 -0.75,0.59 -1.46,0 -5.15,-0.16 -6.58,-0.16 -1.5,0 -5.13,0.16 -6.63,0.16 -0.34,0 -1,0 -1,-1 0,-0.55 0.46,-0.55 1.39,-0.55 2.1,0 3.44,0 3.44,-0.95 0,-0.25 0,-0.34 -0.09,-0.8 l -6.72,-26.84 c -0.46,-1.84 -0.61,-2.34 -4.55,-2.34 -1.14,0 -1.59,0 -1.59,-1 0,-0.55 0.61,-0.55 0.75,-0.55 1.45,0 5.08,0.16 6.53,0.16 1.5,0 5.19,-0.16 6.67,-0.16 0.41,0 1,0 1,0.95 0,0.6 -0.41,0.6 -1.5,0.6 -0.89,0 -1.14,0 -2.14,0.09 -1.05,0.11 -1.23,0.3 -1.23,0.84 0,0.41 0.09,0.8 0.18,1.16 z"
         inkscape:connector-curvature="0"
         style="opacity:1;fill:#2e2b21;fill-opacity:1;stroke:#2e2b21;stroke-width:0;stroke-linecap:butt;stroke-linejoin:miter;stroke-miterlimit:10.43299961;stroke-dasharray:none;stroke-dashoffset:0;stroke-opacity:1" /><path
         id="path4256"
         d="m 527.46,436.39 0.04,0.16 0.04,0.16 0.04,0.15 0.04,0.14 0.04,0.14 0.04,0.13 0.04,0.12 0.05,0.11 0.05,0.11 0.06,0.11 0.06,0.09 0.06,0.09 0.08,0.09 0.08,0.08 0.09,0.07 0.1,0.07 0.1,0.06 0.12,0.06 0.13,0.05 0.14,0.05 0.16,0.04 0.08,0.02 0.08,0.02 0.09,0.02 0.09,0.02 0.1,0.01 0.1,0.02 0.1,0.01 0.11,0.01 0.11,0.02 0.12,0.01 0.12,0.01 h 0.12 l 0.13,0.01 0.13,0.01 0.14,0.01 h 0.14 0.15 l 0.15,0.01 h 0.16 0.16 0.17 0.17 c 1.14,0 1.6,0 1.6,1 0,0.55 -0.5,0.55 -1.35,0.55 h -6.58 c -1.29,0 -1.34,0 -1.93,-0.95 l -18.19,-28.39 -3.89,28.18 c -0.16,1.16 -0.25,1.16 -1.55,1.16 h -6.83 c -0.93,0 -1.48,0 -1.48,-0.95 0,-0.6 0.44,-0.6 1.44,-0.6 0.65,0 1.54,-0.04 2.14,-0.09 0.79,-0.11 1.09,-0.25 1.09,-0.8 0,-0.2 -0.05,-0.36 -0.19,-0.95 l -6.32,-25.36 c -0.5,-2 -1.35,-3.59 -5.4,-3.73 -0.25,0 -0.89,-0.05 -0.89,-0.96 0,-0.43 0.3,-0.59 0.71,-0.59 1.59,0 3.33,0.16 4.97,0.16 1.7,0 3.5,-0.16 5.14,-0.16 0.25,0 0.89,0 0.89,1 0,0.55 -0.55,0.55 -0.89,0.55 -2.85,0.04 -3.39,1.04 -3.39,2.18 0,0.35 0.04,0.6 0.2,1.14 l 6.76,27.16 h 0.07 l 4.28,-30.89 c 0.09,-0.59 0.14,-1.14 0.75,-1.14 0.55,0 0.84,0.55 1.09,0.89 l 20.13,31.55 h 0.04 l -7.12,-28.55 c -0.5,-1.95 -0.59,-2.34 -4.53,-2.34 -0.85,0 -1.39,0 -1.39,-0.96 0,-0.59 0.59,-0.59 0.75,-0.59 1.39,0 4.78,0.16 6.17,0.16 2.05,0 4.19,-0.16 6.23,-0.16 0.3,0 0.94,0 0.94,1 0,0.55 -0.45,0.55 -1.39,0.55 -1.84,0 -3.23,0 -3.23,0.89 0,0.2 0,0.29 0.25,1.2 z"
         inkscape:connector-curvature="0"
         style="opacity:1;fill:#2e2b21;fill-opacity:1;stroke:#2e2b21;stroke-width:0;stroke-linecap:butt;stroke-linejoin:miter;stroke-miterlimit:10.43299961;stroke-dasharray:none;stroke-dashoffset:0;stroke-opacity:1" /><path
         id="path4258"
         d="m 566.72,435 0.1,0.37 0.05,0.19 0.06,0.18 0.06,0.17 0.07,0.17 0.07,0.17 0.08,0.16 0.08,0.16 0.09,0.16 0.1,0.15 0.11,0.14 0.11,0.14 0.13,0.14 0.13,0.12 0.14,0.13 0.15,0.12 0.16,0.11 0.18,0.11 0.18,0.1 0.2,0.09 0.21,0.09 0.23,0.08 0.23,0.08 0.25,0.07 0.27,0.06 0.28,0.06 0.3,0.04 0.31,0.05 0.33,0.03 0.35,0.03 0.18,0.01 h 0.18 c 0.25,0 0.85,0.05 0.85,1 0,0.05 0,0.55 -0.64,0.55 -1.64,0 -3.39,-0.16 -5.08,-0.16 -1.7,0 -3.55,0.16 -5.19,0.16 -0.3,0 -0.89,0 -0.89,-1 0,-0.55 0.5,-0.55 0.89,-0.55 2.85,-0.04 3.39,-1.09 3.39,-2.18 0,-0.16 -0.11,-0.91 -0.15,-1.05 l -4.49,-17.8 c -1.69,-6.67 -7.42,-11 -12.4,-11 -3.38,0 -6.08,2.19 -6.08,6.47 0,0.11 0,1.7 0.54,3.89 l 4.85,19.38 c 0.43,1.79 0.54,2.29 4.19,2.29 1.28,0 1.68,0 1.68,1 0,0.55 -0.54,0.55 -0.7,0.55 -1.39,0 -4.98,-0.16 -6.38,-0.16 -1.43,0 -4.98,0.16 -6.42,0.16 -0.4,0 -0.95,0 -0.95,-1 0,-0.55 0.45,-0.55 1.41,-0.55 0.09,0 1.04,0 1.89,-0.09 0.89,-0.11 1.34,-0.16 1.34,-0.8 0,-0.31 -0.55,-2.39 -0.84,-3.54 l -1.11,-4.38 c -0.44,-1.95 -2.83,-11.36 -3.03,-12.31 -0.35,-1.39 -0.35,-2.14 -0.35,-2.89 0,-6.08 4.53,-9.56 9.77,-9.56 6.26,0 12.45,5.62 14.09,12.2 z"
         inkscape:connector-curvature="0"
         style="opacity:1;fill:#2e2b21;fill-opacity:1;stroke:#2e2b21;stroke-width:0;stroke-linecap:butt;stroke-linejoin:miter;stroke-miterlimit:10.43299961;stroke-dasharray:none;stroke-dashoffset:0;stroke-opacity:1" /></g>  </g>
  <path
     style="color:#000000;text-decoration:none;text-decoration-line:none;text-decoration-style:solid;text-decoration-color:#000000;clip-rule:nonzero;display:inline;overflow:visible;visibility:visible;opacity:1;isolation:auto;color-interpolation:sRGB;color-interpolation-filters:linearRGB;fill:#3c3c3c;fill-opacity:1;fill-rule:evenodd;stroke:#3c3c3c;stroke-width:2.44784045;stroke-linecap:butt;stroke-linejoin:miter;stroke-miterlimit:10;stroke-dasharray:none;stroke-dashoffset:0;stroke-opacity:1;color-rendering:auto;image-rendering:auto;shape-rendering:auto;text-rendering:auto;enable-background:accumulate"
     d="m 484.35697,107.40177 -5.26323,-10.52646 5.26323,2.63163 5.26322,-2.63163 z m 0,0"
     id="path5707"
     inkscape:connector-curvature="0" />
  <path
     inkscape:connector-curvature="0"
     id="path5685"
     d="m 233.15727,107.40177 -5.26323,-10.52646 5.26323,2.63163 5.26322,-2.63163 z m 0,0"
     style="color:#000000;text-decoration:none;text-decoration-line:none;text-decoration-style:solid;text-decoration-color:#000000;clip-rule:nonzero;display:inline;overflow:visible;visibility:visible;opacity:1;isolation:auto;color-interpolation:sRGB;color-interpolation-filters:linearRGB;fill:#3c3c3c;fill-opacity:1;fill-rule:evenodd;stroke:#3c3c3c;stroke-width:2.44784045;stroke-linecap:butt;stroke-linejoin:miter;stroke-miterlimit:10;stroke-dasharray:none;stroke-dashoffset:0;stroke-opacity:1;color-rendering:auto;image-rendering:auto;shape-rendering:auto;text-rendering:auto;enable-background:accumulate" />
  <path
     inkscape:connector-curvature="0"
     id="path5693"
     d="m 183.2202,170.93855 -10.52646,5.26323 2.63162,-5.26323 -2.63162,-5.26322 z m 0,0"
     style="color:#000000;text-decoration:none;text-decoration-line:none;text-decoration-style:solid;text-decoration-color:#000000;clip-rule:nonzero;display:inline;overflow:visible;visibility:visible;opacity:1;isolation:auto;color-interpolation:sRGB;color-interpolation-filters:linearRGB;fill:#3c3c3c;fill-opacity:1;fill-rule:evenodd;stroke:#3c3c3c;stroke-width:2.44784045;stroke-linecap:butt;stroke-linejoin:miter;stroke-miterlimit:10;stroke-dasharray:none;stroke-dashoffset:0;stroke-opacity:1;color-rendering:auto;image-rendering:auto;shape-rendering:auto;text-rendering:auto;enable-background:accumulate" />
  <path
     style="color:#000000;text-decoration:none;text-decoration-line:none;text-decoration-style:solid;text-decoration-color:#000000;clip-rule:nonzero;display:inline;overflow:visible;visibility:visible;opacity:1;isolation:auto;color-interpolation:sRGB;color-interpolation-filters:linearRGB;fill:#3c3c3c;fill-opacity:1;fill-rule:evenodd;stroke:#3c3c3c;stroke-width:2.44784045;stroke-linecap:butt;stroke-linejoin:miter;stroke-miterlimit:10;stroke-dasharray:none;stroke-dashoffset:0;stroke-opacity:1;color-rendering:auto;image-rendering:auto;shape-rendering:auto;text-rendering:auto;enable-background:accumulate"
     d="m 407.2202,170.93855 -10.52646,5.26323 2.63162,-5.26323 -2.63162,-5.26322 z m 0,0"
     id="path5699"
     inkscape:connector-curvature="0" />
  <path
     inkscape:connector-curvature="0"
     style="color:#000000;text-decoration:none;text-decoration-line:none;text-decoration-style:solid;text-decoration-color:#000000;clip-rule:nonzero;display:inline;overflow:visible;visibility:visible;opacity:1;isolation:auto;color-interpolation:sRGB;color-interpolation-filters:linearRGB;fill:none;fill-opacity:1;fill-rule:nonzero;stroke:#3c3c3c;stroke-width:3.20000005;stroke-linecap:butt;stroke-linejoin:miter;stroke-miterlimit:10;stroke-dasharray:none;stroke-dashoffset:0;stroke-opacity:1;color-rendering:auto;image-rendering:auto;shape-rendering:auto;text-rendering:auto;enable-background:accumulate"
     d="m 406.75696,170.93856 h -96"
     id="path19"
     sodipodi:nodetypes="cc" />
  <path
     style="color:#000000;text-decoration:none;text-decoration-line:none;text-decoration-style:solid;text-decoration-color:#000000;clip-rule:nonzero;display:inline;overflow:visible;visibility:visible;opacity:1;isolation:auto;color-interpolation:sRGB;color-interpolation-filters:linearRGB;fill:#3fb9af;fill-opacity:1;fill-rule:nonzero;stroke:none;stroke-width:0.2742857;stroke-linecap:butt;stroke-linejoin:miter;stroke-miterlimit:4;stroke-dasharray:none;stroke-dashoffset:0;stroke-opacity:1;marker:none;color-rendering:auto;image-rendering:auto;shape-rendering:auto;text-rendering:auto;enable-background:accumulate"
     d="m 182.75696,106.93856 h 128 v 127.99999 h -128 z m 0,0"
     id="path7"
     inkscape:connector-curvature="0" />
  <text
     xml:space="preserve"
     style="font-style:normal;font-variant:normal;font-weight:normal;font-stretch:normal;font-size:38.40000153px;line-height:125%;font-family:'Tw Cen MT Condensed';-inkscape-font-specification:'Tw Cen MT Condensed, ';text-align:center;letter-spacing:0px;word-spacing:0px;text-anchor:middle;fill:#ffffff;fill-opacity:1;stroke:none"
     x="246.15695"
     y="158.95731"
     id="text4495"
     sodipodi:linespacing="125%"><tspan
       sodipodi:role="line"
       x="246.15695"
       y="158.95731"
       id="tspan4231">NECK IK</tspan><tspan
       sodipodi:role="line"
       x="246.15695"
       y="206.95731"
       id="tspan4794">SOLVER</tspan></text>
  <path
     inkscape:connector-curvature="0"
     id="path4274"
     d="M 406.75697,106.93856 H 566.75696 V 234.93855 H 406.75697 Z m 0,0"
     style="color:#000000;text-decoration:none;text-decoration-line:none;text-decoration-style:solid;text-decoration-color:#000000;clip-rule:nonzero;display:inline;overflow:visible;visibility:visible;opacity:1;isolation:auto;color-interpolation:sRGB;color-interpolation-filters:linearRGB;fill:#3fb9af;fill-opacity:1;fill-rule:nonzero;stroke:none;stroke-width:0.2742857;stroke-linecap:butt;stroke-linejoin:miter;stroke-miterlimit:4;stroke-dasharray:none;stroke-dashoffset:0;stroke-opacity:1;marker:none;color-rendering:auto;image-rendering:auto;shape-rendering:auto;text-rendering:auto;enable-background:accumulate" />
  <text
     id="text4276"
     y="158.95731"
     x="485.92258"
     style="font-style:normal;font-variant:normal;font-weight:normal;font-stretch:normal;font-size:38.40000153px;line-height:48.00000381px;font-family:'Tw Cen MT Condensed';-inkscape-font-specification:'Tw Cen MT Condensed, ';text-align:center;letter-spacing:0px;word-spacing:0px;text-anchor:middle;fill:#ffffff;fill-opacity:1;stroke:none"
     xml:space="preserve"><tspan
       id="tspan4284"
       y="158.95731"
       x="485.92258"
       sodipodi:role="line">NECK</tspan><tspan
       y="206.95731"
       x="485.92258"
       sodipodi:role="line"
       id="tspan4798">CONTROLLER</tspan></text>
  <path
     inkscape:connector-curvature="0"
     style="color:#000000;text-decoration:none;text-decoration-line:none;text-decoration-style:solid;text-decoration-color:#000000;clip-rule:nonzero;display:inline;overflow:visible;visibility:visible;opacity:1;isolation:auto;color-interpolation:sRGB;color-interpolation-filters:linearRGB;fill:none;fill-opacity:1;fill-rule:nonzero;stroke:#3c3c3c;stroke-width:3.20000005;stroke-linecap:butt;stroke-linejoin:miter;stroke-miterlimit:10;stroke-dasharray:none;stroke-dashoffset:0;stroke-opacity:1;color-rendering:auto;image-rendering:auto;shape-rendering:auto;text-rendering:auto;enable-background:accumulate"
     d="m 126.75729,170.93855 55.99967,1e-5"
     id="path4343"
     sodipodi:nodetypes="cc" />
  <g
     id="g5031"
     transform="translate(88.175472,-265.94928)">
    <g
       id="g5029"
       transform="matrix(0.86763767,0,0,-0.86763767,-151.83659,825.39525)"
       xml:space="preserve"
       stroke-miterlimit="10.433"
       font-style="normal"
       font-variant="normal"
       font-weight="normal"
       font-stretch="normal"
       font-size-adjust="none"
       letter-spacing="normal"
       word-spacing="normal"
       style="font-style:normal;font-variant:normal;font-weight:normal;font-stretch:normal;letter-spacing:normal;word-spacing:normal;text-anchor:start;fill:none;fill-opacity:1;fill-rule:evenodd;stroke:#000000;stroke-linecap:butt;stroke-linejoin:miter;stroke-miterlimit:10.43299961;stroke-dasharray:none;stroke-dashoffset:0;stroke-opacity:1"><path
         d="m 482.57,427.82 v 0.03 l -0.01,0.03 v 0.02 0.03 l -0.01,0.04 -0.01,0.03 v 0.03 l -0.01,0.04 -0.02,0.03 -0.01,0.04 -0.01,0.04 -0.02,0.04 -0.02,0.03 -0.02,0.04 -0.02,0.04 -0.03,0.03 -0.02,0.04 -0.03,0.03 -0.03,0.04 -0.03,0.03 -0.04,0.03 -0.04,0.03 -0.04,0.03 -0.04,0.02 -0.04,0.02 -0.05,0.02 -0.03,0.01 -0.02,0.01 -0.03,0.01 -0.02,0.01 h -0.03 l -0.03,0.01 h -0.03 l -0.03,0.01 h -0.03 -0.03 -0.03 -0.03 c -0.05,0 -2.99,-0.68 -4.54,-2.14 -0.7,0.8 -2.39,2.14 -5.32,2.14 l 0.09,-1.79 c 2.94,0 4.14,-2.33 4.14,-2.88 0,-0.2 -0.05,-0.56 -0.11,-0.7 l -2.98,-11.81 c -0.25,-0.85 -0.25,-0.94 -0.8,-1.44 -1.59,-1.59 -3.69,-2.5 -5.44,-2.5 -3.08,0 -3.33,2.69 -3.33,3.8 0,2.57 1.69,8.72 2.49,10.65 1.55,3.64 3.98,4.88 6.03,4.88 l -0.09,1.79 c -8.68,0 -14.07,-7.87 -14.07,-14.68 0,-6.14 4.6,-8.24 8.72,-8.24 2.41,0 4.39,0.96 5.44,1.61 l -1.89,-7.58 c -0.2,-0.75 -0.25,-0.79 -0.59,-0.84 -0.55,-0.11 -1.35,-0.11 -1.91,-0.11 -0.84,0 -1.14,0 -1.39,-0.3 -0.25,-0.29 -0.39,-1.09 -0.39,-1.14 0,-0.29 0.19,-0.9 0.98,-0.9 1.71,0 3.55,0.15 5.28,0.15 1.85,0 3.75,-0.15 5.54,-0.15 0.35,0 1.29,0 1.29,1.45 0,0.84 -0.84,0.89 -1.29,0.89 -0.69,0 -1.49,0 -2.15,0.05 z"
         id="path5023"
         inkscape:connector-curvature="0"
         style="opacity:1;fill:#2e2b21;fill-opacity:1;stroke:#2e2b21;stroke-width:0;stroke-linecap:butt;stroke-linejoin:miter;stroke-miterlimit:10.43299961;stroke-dasharray:none;stroke-dashoffset:0;stroke-opacity:1" /><path
         d="m 495.57,432.87 0.26,0.12 0.26,0.11 0.24,0.11 0.24,0.1 0.23,0.1 0.22,0.1 0.21,0.09 0.21,0.09 0.2,0.08 0.19,0.08 0.18,0.08 0.18,0.07 0.17,0.08 0.16,0.06 0.16,0.07 0.15,0.06 0.14,0.06 0.14,0.06 0.14,0.06 0.13,0.05 0.12,0.06 0.12,0.05 0.11,0.05 0.11,0.04 0.11,0.05 0.1,0.04 0.19,0.09 0.18,0.08 0.17,0.08 c 0.67,0.27 0.98,0.41 0.98,1.08 0,0.59 -0.45,1.11 -1.08,1.11 -0.25,0 -0.31,0 -0.73,-0.31 l -4.74,-3.17 0.52,5.15 c 0.08,0.63 0,1.5 -1.05,1.5 -0.42,0 -1.08,-0.28 -1.08,-1.04 0,-0.32 0.14,-1.36 0.18,-1.71 0.07,-0.59 0.31,-3.11 0.39,-3.9 l -4.71,3.17 c -0.36,0.2 -0.45,0.31 -0.76,0.31 -0.64,0 -1.1,-0.52 -1.1,-1.11 0,-0.7 0.43,-0.87 0.74,-1.01 l 5.26,-2.19 c -2.86,-1.27 -4.14,-1.75 -5.01,-2.17 -0.66,-0.29 -0.99,-0.43 -0.99,-1.08 0,-0.6 0.46,-1.11 1.1,-1.11 0.23,0 0.31,0 0.72,0.31 l 4.75,3.17 -0.57,-5.61 c 0,-0.76 0.66,-1.04 1.08,-1.04 0.42,0 1.08,0.28 1.08,1.04 0,0.32 -0.14,1.36 -0.17,1.71 -0.06,0.59 -0.31,3.09 -0.38,3.9 l 4.18,-2.79 c 0.9,-0.69 0.98,-0.69 1.29,-0.69 0.63,0 1.08,0.51 1.08,1.11 0,0.7 -0.42,0.87 -0.73,1.01 z"
         id="path5025"
         inkscape:connector-curvature="0"
         style="opacity:1;fill:#2e2b21;fill-opacity:1;stroke:#2e2b21;stroke-width:0;stroke-linecap:butt;stroke-linejoin:miter;stroke-miterlimit:10.43299961;stroke-dasharray:none;stroke-dashoffset:0;stroke-opacity:1" /><path
         d="m 511.58,412.4 0.07,0.24 0.08,0.25 0.04,0.11 0.04,0.12 0.05,0.11 0.05,0.12 0.06,0.11 0.06,0.1 0.07,0.11 0.07,0.1 0.07,0.1 0.09,0.09 0.09,0.09 0.09,0.09 0.1,0.09 0.12,0.08 0.11,0.07 0.13,0.08 0.14,0.06 0.14,0.07 0.15,0.06 0.17,0.05 0.17,0.05 0.19,0.04 0.19,0.04 0.21,0.04 0.21,0.03 0.12,0.01 0.11,0.01 0.12,0.01 h 0.13 l 0.12,0.01 0.13,0.01 c 0.17,0 0.7,0.03 0.7,0.76 0,0.2 -0.17,0.49 -0.53,0.49 -1.14,0 -2.44,-0.15 -3.62,-0.15 -0.83,0 -2.85,0.15 -3.69,0.15 -0.17,0 -0.7,0 -0.7,-0.77 0,-0.45 0.45,-0.48 0.78,-0.48 1.62,-0.04 2.22,-0.57 2.22,-1.44 0,-0.27 -0.04,-0.46 -0.14,-0.83 l -3.8,-15.19 -8.85,18.11 c -0.28,0.6 -0.34,0.6 -1.18,0.6 h -4.77 c -0.67,0 -1.12,0 -1.12,-0.77 0,-0.48 0.42,-0.48 1.15,-0.48 0.74,0 1.5,-0.04 2.22,-0.18 l -4.65,-18.64 c -0.32,-1.33 -0.91,-2.37 -3.63,-2.48 -0.25,0 -0.73,-0.03 -0.73,-0.74 0,-0.37 0.28,-0.51 0.51,-0.51 1.16,0 2.44,0.14 3.63,0.14 0.84,0 2.86,-0.14 3.7,-0.14 0.34,0 0.69,0.17 0.69,0.73 0,0.49 -0.42,0.52 -0.8,0.52 -2.2,0.08 -2.2,0.98 -2.2,1.47 0,0.14 0,0.31 0.14,0.87 l 4.47,17.83 10.17,-20.83 c 0.28,-0.56 0.42,-0.59 0.76,-0.59 0.57,0 0.57,0.11 0.74,0.73 z"
         id="path5027"
         inkscape:connector-curvature="0"
         style="opacity:1;fill:#2e2b21;fill-opacity:1;stroke:#2e2b21;stroke-width:0;stroke-linecap:butt;stroke-linejoin:miter;stroke-miterlimit:10.43299961;stroke-dasharray:none;stroke-dashoffset:0;stroke-opacity:1" /></g>  </g>
  <g
     id="g4396"
     transform="translate(282.79697,113.73857)" />
  <g
     id="g4379"
     transform="translate(282.79697,49.738539)" />
  <g
     id="g4358"
     transform="translate(718.11863,-369.69153)">
    <g
       word-spacing="normal"
       letter-spacing="normal"
       font-size-adjust="none"
       font-stretch="normal"
       font-weight="normal"
       font-variant="normal"
       font-style="normal"
       stroke-miterlimit="10.433"
       xml:space="preserve"
       transform="matrix(0.86763767,0,0,-0.86763767,-151.83659,825.39525)"
       id="g4356"
       style="font-style:normal;font-variant:normal;font-weight:normal;font-stretch:normal;letter-spacing:normal;word-spacing:normal;text-anchor:start;fill:none;fill-opacity:1;fill-rule:evenodd;stroke:#000000;stroke-linecap:butt;stroke-linejoin:miter;stroke-miterlimit:10.43299961;stroke-dasharray:none;stroke-dashoffset:0;stroke-opacity:1"><path
         id="path4352"
         d="m 482.57,427.82 v 0.03 l -0.01,0.03 v 0.02 0.03 l -0.01,0.04 -0.01,0.03 v 0.03 l -0.01,0.04 -0.02,0.03 -0.01,0.04 -0.01,0.04 -0.02,0.04 -0.02,0.03 -0.02,0.04 -0.02,0.04 -0.03,0.03 -0.02,0.04 -0.03,0.03 -0.03,0.04 -0.03,0.03 -0.04,0.03 -0.04,0.03 -0.04,0.03 -0.04,0.02 -0.04,0.02 -0.05,0.02 -0.03,0.01 -0.02,0.01 -0.03,0.01 -0.02,0.01 h -0.03 l -0.03,0.01 h -0.03 l -0.03,0.01 h -0.03 -0.03 -0.03 -0.03 c -0.05,0 -2.99,-0.68 -4.54,-2.14 -0.7,0.8 -2.39,2.14 -5.32,2.14 l 0.09,-1.79 c 2.94,0 4.14,-2.33 4.14,-2.88 0,-0.2 -0.05,-0.56 -0.11,-0.7 l -2.98,-11.81 c -0.25,-0.85 -0.25,-0.94 -0.8,-1.44 -1.59,-1.59 -3.69,-2.5 -5.44,-2.5 -3.08,0 -3.33,2.69 -3.33,3.8 0,2.57 1.69,8.72 2.49,10.65 1.55,3.64 3.98,4.88 6.03,4.88 l -0.09,1.79 c -8.68,0 -14.07,-7.87 -14.07,-14.68 0,-6.14 4.6,-8.24 8.72,-8.24 2.41,0 4.39,0.96 5.44,1.61 l -1.89,-7.58 c -0.2,-0.75 -0.25,-0.79 -0.59,-0.84 -0.55,-0.11 -1.35,-0.11 -1.91,-0.11 -0.84,0 -1.14,0 -1.39,-0.3 -0.25,-0.29 -0.39,-1.09 -0.39,-1.14 0,-0.29 0.19,-0.9 0.98,-0.9 1.71,0 3.55,0.15 5.28,0.15 1.85,0 3.75,-0.15 5.54,-0.15 0.35,0 1.29,0 1.29,1.45 0,0.84 -0.84,0.89 -1.29,0.89 -0.69,0 -1.49,0 -2.15,0.05 z"
         inkscape:connector-curvature="0"
         style="opacity:1;fill:#2e2b21;fill-opacity:1;stroke:#2e2b21;stroke-width:0;stroke-linecap:butt;stroke-linejoin:miter;stroke-miterlimit:10.43299961;stroke-dasharray:none;stroke-dashoffset:0;stroke-opacity:1" /><path
         id="path4354"
         d="m 511.58,418.76 0.07,0.25 0.08,0.24 0.04,0.12 0.04,0.11 0.05,0.12 0.05,0.11 0.06,0.11 0.06,0.11 0.07,0.1 0.07,0.1 0.07,0.1 0.09,0.09 0.09,0.1 0.09,0.08 0.1,0.09 0.12,0.08 0.11,0.08 0.13,0.07 0.14,0.07 0.14,0.06 0.15,0.06 0.17,0.05 0.17,0.05 0.19,0.05 0.19,0.04 0.21,0.03 0.21,0.03 0.12,0.01 0.11,0.01 0.12,0.01 0.13,0.01 h 0.12 l 0.13,0.01 c 0.17,0 0.7,0.03 0.7,0.76 0,0.21 -0.17,0.49 -0.53,0.49 -1.14,0 -2.44,-0.14 -3.62,-0.14 -0.83,0 -2.85,0.14 -3.69,0.14 -0.17,0 -0.7,0 -0.7,-0.77 0,-0.45 0.45,-0.48 0.78,-0.48 1.62,-0.03 2.22,-0.56 2.22,-1.44 0,-0.26 -0.04,-0.45 -0.14,-0.83 l -3.8,-15.18 -8.85,18.1 c -0.28,0.6 -0.34,0.6 -1.18,0.6 h -4.77 c -0.67,0 -1.12,0 -1.12,-0.77 0,-0.48 0.42,-0.48 1.15,-0.48 0.74,0 1.5,-0.03 2.22,-0.17 l -4.65,-18.64 c -0.32,-1.33 -0.91,-2.38 -3.63,-2.49 -0.25,0 -0.73,-0.03 -0.73,-0.73 0,-0.38 0.28,-0.52 0.51,-0.52 1.16,0 2.44,0.14 3.63,0.14 0.84,0 2.86,-0.14 3.7,-0.14 0.34,0 0.69,0.17 0.69,0.74 0,0.48 -0.42,0.51 -0.8,0.51 -2.2,0.08 -2.2,0.99 -2.2,1.47 0,0.14 0,0.31 0.14,0.88 l 4.47,17.82 10.17,-20.82 c 0.28,-0.57 0.42,-0.6 0.76,-0.6 0.57,0 0.57,0.11 0.74,0.74 z"
         inkscape:connector-curvature="0"
         style="opacity:1;fill:#2e2b21;fill-opacity:1;stroke:#2e2b21;stroke-width:0;stroke-linecap:butt;stroke-linejoin:miter;stroke-miterlimit:10.43299961;stroke-dasharray:none;stroke-dashoffset:0;stroke-opacity:1" /></g>  </g>
  <g
     id="g5277"
     transform="translate(354.17539,-265.94928)">
    <g
       word-spacing="normal"
       letter-spacing="normal"
       font-size-adjust="none"
       font-stretch="normal"
       font-weight="normal"
       font-variant="normal"
       font-style="normal"
       stroke-miterlimit="10.433"
       xml:space="preserve"
       transform="matrix(0.86763767,0,0,-0.86763767,-151.83659,825.39525)"
       id="g5275"
       style="font-style:normal;font-variant:normal;font-weight:normal;font-stretch:normal;letter-spacing:normal;word-spacing:normal;text-anchor:start;fill:none;fill-opacity:1;fill-rule:evenodd;stroke:#000000;stroke-linecap:butt;stroke-linejoin:miter;stroke-miterlimit:10.43299961;stroke-dasharray:none;stroke-dashoffset:0;stroke-opacity:1"><path
         id="path5267"
         d="m 477.44,437.61 v 0.12 l -0.01,0.13 -0.02,0.12 -0.02,0.13 -0.03,0.12 -0.03,0.12 -0.04,0.12 -0.05,0.12 -0.05,0.11 -0.06,0.12 -0.06,0.11 -0.07,0.11 -0.07,0.1 -0.08,0.1 -0.08,0.1 -0.09,0.09 -0.09,0.09 -0.09,0.09 -0.1,0.08 -0.1,0.08 -0.11,0.07 -0.11,0.07 -0.12,0.06 -0.11,0.06 -0.12,0.05 -0.13,0.04 -0.13,0.04 -0.12,0.03 -0.14,0.03 -0.13,0.02 -0.14,0.01 h -0.14 c -1.69,0 -2.69,-1.39 -2.69,-2.64 0,-1.34 1.14,-2.64 2.64,-2.64 1.69,0 2.69,1.39 2.69,2.64 z"
         inkscape:connector-curvature="0"
         style="opacity:1;fill:#2e2b21;fill-opacity:1;stroke:#2e2b21;stroke-width:0;stroke-linecap:butt;stroke-linejoin:miter;stroke-miterlimit:10.43299961;stroke-dasharray:none;stroke-dashoffset:0;stroke-opacity:1" /><path
         id="path5269"
         d="m 482.57,427.82 v 0.03 l -0.01,0.03 v 0.02 0.03 l -0.01,0.04 -0.01,0.03 v 0.03 l -0.01,0.04 -0.02,0.03 -0.01,0.04 -0.01,0.04 -0.02,0.04 -0.02,0.03 -0.02,0.04 -0.02,0.04 -0.03,0.03 -0.02,0.04 -0.03,0.03 -0.03,0.04 -0.03,0.03 -0.04,0.03 -0.04,0.03 -0.04,0.03 -0.04,0.02 -0.04,0.02 -0.05,0.02 -0.03,0.01 -0.02,0.01 -0.03,0.01 -0.02,0.01 h -0.03 l -0.03,0.01 h -0.03 l -0.03,0.01 h -0.03 -0.03 -0.03 -0.03 c -0.05,0 -2.99,-0.68 -4.54,-2.14 -0.7,0.8 -2.39,2.14 -5.32,2.14 l 0.09,-1.79 c 2.94,0 4.14,-2.33 4.14,-2.88 0,-0.2 -0.05,-0.56 -0.11,-0.7 l -2.98,-11.81 c -0.25,-0.85 -0.25,-0.94 -0.8,-1.44 -1.59,-1.59 -3.69,-2.5 -5.44,-2.5 -3.08,0 -3.33,2.69 -3.33,3.8 0,2.57 1.69,8.72 2.49,10.65 1.55,3.64 3.98,4.88 6.03,4.88 l -0.09,1.79 c -8.68,0 -14.07,-7.87 -14.07,-14.68 0,-6.14 4.6,-8.24 8.72,-8.24 2.41,0 4.39,0.96 5.44,1.61 l -1.89,-7.58 c -0.2,-0.75 -0.25,-0.79 -0.59,-0.84 -0.55,-0.11 -1.35,-0.11 -1.91,-0.11 -0.84,0 -1.14,0 -1.39,-0.3 -0.25,-0.29 -0.39,-1.09 -0.39,-1.14 0,-0.29 0.19,-0.9 0.98,-0.9 1.71,0 3.55,0.15 5.28,0.15 1.85,0 3.75,-0.15 5.54,-0.15 0.35,0 1.29,0 1.29,1.45 0,0.84 -0.84,0.89 -1.29,0.89 -0.69,0 -1.49,0 -2.15,0.05 z"
         inkscape:connector-curvature="0"
         style="opacity:1;fill:#2e2b21;fill-opacity:1;stroke:#2e2b21;stroke-width:0;stroke-linecap:butt;stroke-linejoin:miter;stroke-miterlimit:10.43299961;stroke-dasharray:none;stroke-dashoffset:0;stroke-opacity:1" /><path
         id="path5271"
         d="m 495.57,432.87 0.26,0.12 0.26,0.11 0.24,0.11 0.24,0.1 0.23,0.1 0.22,0.1 0.21,0.09 0.21,0.09 0.2,0.08 0.19,0.08 0.18,0.08 0.18,0.07 0.17,0.08 0.16,0.06 0.16,0.07 0.15,0.06 0.14,0.06 0.14,0.06 0.14,0.06 0.13,0.05 0.12,0.06 0.12,0.05 0.11,0.05 0.11,0.04 0.11,0.05 0.1,0.04 0.19,0.09 0.18,0.08 0.17,0.08 c 0.67,0.27 0.98,0.41 0.98,1.08 0,0.59 -0.45,1.11 -1.08,1.11 -0.25,0 -0.31,0 -0.73,-0.31 l -4.74,-3.17 0.52,5.15 c 0.08,0.63 0,1.5 -1.05,1.5 -0.42,0 -1.08,-0.28 -1.08,-1.04 0,-0.32 0.14,-1.36 0.18,-1.71 0.07,-0.59 0.31,-3.11 0.39,-3.9 l -4.71,3.17 c -0.36,0.2 -0.45,0.31 -0.76,0.31 -0.64,0 -1.1,-0.52 -1.1,-1.11 0,-0.7 0.43,-0.87 0.74,-1.01 l 5.26,-2.19 c -2.86,-1.27 -4.14,-1.75 -5.01,-2.17 -0.66,-0.29 -0.99,-0.43 -0.99,-1.08 0,-0.6 0.46,-1.11 1.1,-1.11 0.23,0 0.31,0 0.72,0.31 l 4.75,3.17 -0.57,-5.61 c 0,-0.76 0.66,-1.04 1.08,-1.04 0.42,0 1.08,0.28 1.08,1.04 0,0.32 -0.14,1.36 -0.17,1.71 -0.06,0.59 -0.31,3.09 -0.38,3.9 l 4.18,-2.79 c 0.9,-0.69 0.98,-0.69 1.29,-0.69 0.63,0 1.08,0.51 1.08,1.11 0,0.7 -0.42,0.87 -0.73,1.01 z"
         inkscape:connector-curvature="0"
         style="opacity:1;fill:#2e2b21;fill-opacity:1;stroke:#2e2b21;stroke-width:0;stroke-linecap:butt;stroke-linejoin:miter;stroke-miterlimit:10.43299961;stroke-dasharray:none;stroke-dashoffset:0;stroke-opacity:1" /><path
         id="path5273"
         d="m 511.58,412.4 0.07,0.24 0.08,0.25 0.04,0.11 0.04,0.12 0.05,0.11 0.05,0.12 0.06,0.11 0.06,0.1 0.07,0.11 0.07,0.1 0.07,0.1 0.09,0.09 0.09,0.09 0.09,0.09 0.1,0.09 0.12,0.08 0.11,0.07 0.13,0.08 0.14,0.06 0.14,0.07 0.15,0.06 0.17,0.05 0.17,0.05 0.19,0.04 0.19,0.04 0.21,0.04 0.21,0.03 0.12,0.01 0.11,0.01 0.12,0.01 h 0.13 l 0.12,0.01 0.13,0.01 c 0.17,0 0.7,0.03 0.7,0.76 0,0.2 -0.17,0.49 -0.53,0.49 -1.14,0 -2.44,-0.15 -3.62,-0.15 -0.83,0 -2.85,0.15 -3.69,0.15 -0.17,0 -0.7,0 -0.7,-0.77 0,-0.45 0.45,-0.48 0.78,-0.48 1.62,-0.04 2.22,-0.57 2.22,-1.44 0,-0.27 -0.04,-0.46 -0.14,-0.83 l -3.8,-15.19 -8.85,18.11 c -0.28,0.6 -0.34,0.6 -1.18,0.6 h -4.77 c -0.67,0 -1.12,0 -1.12,-0.77 0,-0.48 0.42,-0.48 1.15,-0.48 0.74,0 1.5,-0.04 2.22,-0.18 l -4.65,-18.64 c -0.32,-1.33 -0.91,-2.37 -3.63,-2.48 -0.25,0 -0.73,-0.03 -0.73,-0.74 0,-0.37 0.28,-0.51 0.51,-0.51 1.16,0 2.44,0.14 3.63,0.14 0.84,0 2.86,-0.14 3.7,-0.14 0.34,0 0.69,0.17 0.69,0.73 0,0.49 -0.42,0.52 -0.8,0.52 -2.2,0.08 -2.2,0.98 -2.2,1.47 0,0.14 0,0.31 0.14,0.87 l 4.47,17.83 10.17,-20.83 c 0.28,-0.56 0.42,-0.59 0.76,-0.59 0.57,0 0.57,0.11 0.74,0.73 z"
         inkscape:connector-curvature="0"
         style="opacity:1;fill:#2e2b21;fill-opacity:1;stroke:#2e2b21;stroke-width:0;stroke-linecap:butt;stroke-linejoin:miter;stroke-miterlimit:10.43299961;stroke-dasharray:none;stroke-dashoffset:0;stroke-opacity:1" /></g>  </g>
  <path
     inkscape:connector-curvature="0"
     style="color:#000000;text-decoration:none;text-decoration-line:none;text-decoration-style:solid;text-decoration-color:#000000;clip-rule:nonzero;display:inline;overflow:visible;visibility:visible;opacity:1;isolation:auto;color-interpolation:sRGB;color-interpolation-filters:linearRGB;fill:none;fill-opacity:1;fill-rule:nonzero;stroke:#3c3c3c;stroke-width:3.20000005;stroke-linecap:butt;stroke-linejoin:miter;stroke-miterlimit:10;stroke-dasharray:none;stroke-dashoffset:0;stroke-opacity:1;color-rendering:auto;image-rendering:auto;shape-rendering:auto;text-rendering:auto;enable-background:accumulate"
     d="M 682.75679,170.93857 H 566.75696"
     id="path4349-3"
     sodipodi:nodetypes="cc" />
  <path
     style="color:#000000;text-decoration:none;text-decoration-line:none;text-decoration-style:solid;text-decoration-color:#000000;clip-rule:nonzero;display:inline;overflow:visible;visibility:visible;opacity:1;isolation:auto;color-interpolation:sRGB;color-interpolation-filters:linearRGB;fill:#3c3c3c;fill-opacity:1;fill-rule:evenodd;stroke:#3c3c3c;stroke-width:2.44784045;stroke-linecap:butt;stroke-linejoin:miter;stroke-miterlimit:10;stroke-dasharray:none;stroke-dashoffset:0;stroke-opacity:1;color-rendering:auto;image-rendering:auto;shape-rendering:auto;text-rendering:auto;enable-background:accumulate"
     d="m 964.02005,170.93856 -10.5265,5.26323 2.6316,-5.26323 -2.6316,-5.26322 z m 0,0"
     id="path4262"
     inkscape:connector-curvature="0" />
  <path
     inkscape:connector-curvature="0"
     id="path5699-3"
     d="m 683.22026,171.33856 -10.52646,5.26323 2.63162,-5.26323 -2.63162,-5.26322 z m 0,0"
     style="color:#000000;text-decoration:none;text-decoration-line:none;text-decoration-style:solid;text-decoration-color:#000000;clip-rule:nonzero;display:inline;overflow:visible;visibility:visible;opacity:1;isolation:auto;color-interpolation:sRGB;color-interpolation-filters:linearRGB;fill:#3c3c3c;fill-opacity:1;fill-rule:evenodd;stroke:#3c3c3c;stroke-width:2.44784045;stroke-linecap:butt;stroke-linejoin:miter;stroke-miterlimit:10;stroke-dasharray:none;stroke-dashoffset:0;stroke-opacity:1;color-rendering:auto;image-rendering:auto;shape-rendering:auto;text-rendering:auto;enable-background:accumulate" />
  <path
     inkscape:connector-curvature="0"
     style="color:#000000;text-decoration:none;text-decoration-line:none;text-decoration-style:solid;text-decoration-color:#000000;clip-rule:nonzero;display:inline;overflow:visible;visibility:visible;opacity:1;isolation:auto;color-interpolation:sRGB;color-interpolation-filters:linearRGB;fill:none;fill-opacity:1;fill-rule:nonzero;stroke:#3c3c3c;stroke-width:3.20000029;stroke-linecap:butt;stroke-linejoin:miter;stroke-miterlimit:10;stroke-dasharray:none;stroke-dashoffset:0;stroke-opacity:1;color-rendering:auto;image-rendering:auto;shape-rendering:auto;text-rendering:auto;enable-background:accumulate"
     d="M 963.55685,170.93857 H 842.75702"
     id="path4264"
     sodipodi:nodetypes="cc" />
  <g
     id="g4401"
     transform="matrix(1.4117584,0,0,1.4117584,-22.901025,57.621436)"
     style="stroke-width:0.70833653">
    <path
       d="m 650.09954,86.44244 v -0.07466 l -0.006,-0.08088 -0.0124,-0.07466 -0.0124,-0.08088 -0.0187,-0.07466 -0.0187,-0.07466 -0.0249,-0.07466 -0.0311,-0.07466 -0.0311,-0.06843 -0.0373,-0.07466 -0.0373,-0.06844 -0.0436,-0.06844 -0.0435,-0.06221 -0.0498,-0.06221 -0.0498,-0.06221 -0.056,-0.05599 -0.056,-0.05599 -0.056,-0.05599 -0.0622,-0.04977 -0.0622,-0.04977 -0.0684,-0.04355 -0.0684,-0.04355 -0.0747,-0.03733 -0.0684,-0.03733 -0.0747,-0.03111 -0.0809,-0.02489 -0.0809,-0.02489 -0.0747,-0.01866 -0.0871,-0.01866 -0.0809,-0.01244 -0.0871,-0.0062 h -0.0871 c -1.05142,0 -1.67356,0.864775 -1.67356,1.642452 0,0.833668 0.70924,1.642451 1.64245,1.642451 1.05142,0 1.67356,-0.864775 1.67356,-1.642451 z"
       id="path5050"
       inkscape:connector-curvature="0"
       style="font-style:normal;font-variant:normal;font-weight:normal;font-stretch:normal;letter-spacing:normal;word-spacing:normal;text-anchor:start;fill:#2e2b21;fill-opacity:1;fill-rule:evenodd;stroke:#000000;stroke-width:0;stroke-linecap:butt;stroke-linejoin:miter;stroke-miterlimit:10.43299961;stroke-dasharray:none;stroke-dashoffset:0;stroke-opacity:1" />
    <path
       d="m 653.29112,92.533199 v -0.01866 l -0.006,-0.01866 v -0.01244 -0.01866 l -0.006,-0.02489 -0.006,-0.01866 v -0.01866 l -0.006,-0.02489 -0.0124,-0.01866 -0.006,-0.02488 -0.006,-0.02489 -0.0124,-0.02489 -0.0124,-0.01866 -0.0124,-0.02488 -0.0124,-0.02489 -0.0187,-0.01866 -0.0124,-0.02489 -0.0187,-0.01866 -0.0187,-0.02489 -0.0187,-0.01866 -0.0249,-0.01866 -0.0249,-0.01867 -0.0249,-0.01866 -0.0249,-0.01244 -0.0249,-0.01244 -0.0311,-0.01244 -0.0187,-0.0062 -0.0124,-0.0062 -0.0187,-0.0062 -0.0125,-0.0062 h -0.0187 l -0.0187,-0.0062 h -0.0187 l -0.0187,-0.0062 h -0.0187 -0.0187 -0.0187 -0.0187 c -0.0311,0 -1.8602,0.423056 -2.82452,1.331382 -0.4355,-0.497713 -1.48692,-1.331382 -3.30979,-1.331382 l 0.056,1.113633 c 1.8291,0 2.57567,1.449588 2.57567,1.791765 0,0.124428 -0.0311,0.348399 -0.0684,0.435499 l -1.85398,7.347484 c -0.15553,0.52882 -0.15553,0.58482 -0.49771,0.89589 -0.98921,0.9892 -2.2957,1.55535 -3.38445,1.55535 -1.91619,0 -2.07173,-1.67356 -2.07173,-2.36414 0,-1.5989 1.05142,-5.425069 1.54913,-6.625801 0.96432,-2.264593 2.47612,-3.036047 3.75151,-3.036047 l -0.056,-1.113633 c -5.40018,0 -8.75352,4.896249 -8.75352,9.133031 0,3.81995 2.86185,5.12644 5.42507,5.12644 1.49936,0 2.73119,-0.59725 3.38444,-1.00164 l -1.17584,4.71582 c -0.12443,0.46661 -0.15554,0.49149 -0.36707,0.5226 -0.34217,0.0684 -0.83989,0.0684 -1.18829,0.0684 -0.52259,0 -0.70924,0 -0.86477,0.18664 -0.15554,0.18042 -0.24264,0.67813 -0.24264,0.70924 0,0.18042 0.11821,0.55993 0.6097,0.55993 1.06386,0 2.2086,-0.0933 3.28491,-0.0933 1.15096,0 2.33302,0.0933 3.44666,0.0933 0.21775,0 0.80256,0 0.80256,-0.90211 0,-0.5226 -0.5226,-0.5537 -0.80256,-0.5537 -0.42928,0 -0.92699,0 -1.33761,-0.0311 z"
       id="path5052"
       inkscape:connector-curvature="0"
       style="font-style:normal;font-variant:normal;font-weight:normal;font-stretch:normal;letter-spacing:normal;word-spacing:normal;text-anchor:start;fill:#2e2b21;fill-opacity:1;fill-rule:evenodd;stroke:#000000;stroke-width:0;stroke-linecap:butt;stroke-linejoin:miter;stroke-miterlimit:10.43299961;stroke-dasharray:none;stroke-dashoffset:0;stroke-opacity:1" />
    <path
       d="m 671.33943,98.169795 0.0435,-0.155535 0.0498,-0.149314 0.0249,-0.07466 0.0249,-0.06844 0.0311,-0.07466 0.0311,-0.06844 0.0373,-0.06843 0.0373,-0.06844 0.0436,-0.06221 0.0435,-0.06221 0.0435,-0.06221 0.056,-0.05599 0.056,-0.06221 0.056,-0.04977 0.0622,-0.05599 0.0747,-0.04977 0.0684,-0.04977 0.0809,-0.04355 0.0871,-0.04355 0.0871,-0.03733 0.0933,-0.03733 0.10576,-0.03111 0.10577,-0.03111 0.1182,-0.03111 0.11821,-0.02489 0.13065,-0.01866 0.13065,-0.01866 0.0747,-0.0062 0.0684,-0.0062 0.0747,-0.0062 0.0809,-0.0062 h 0.0747 l 0.0809,-0.0062 c 0.10577,0 0.4355,-0.01866 0.4355,-0.472827 0,-0.13065 -0.10576,-0.304849 -0.32973,-0.304849 -0.70925,0 -1.51803,0.0871 -2.25215,0.0871 -0.51638,0 -1.77311,-0.0871 -2.2957,-0.0871 -0.10577,0 -0.4355,0 -0.4355,0.479048 0,0.279964 0.27996,0.298628 0.48527,0.298628 1.00786,0.01866 1.38115,0.348399 1.38115,0.895883 0,0.161756 -0.0249,0.279963 -0.0871,0.516377 l -2.36414,9.444094 -5.50594,-11.260746 C 662.49263,95.80577 662.4553,95.80577 661.9327,95.80577 h -2.96761 c -0.41684,0 -0.6968,0 -0.6968,0.479048 0,0.298628 0.2613,0.298628 0.71546,0.298628 0.46039,0 0.93321,0.01866 1.38116,0.105764 l -2.89296,11.59671 c -0.19908,0.82744 -0.56615,1.48069 -2.25837,1.54913 -0.15554,0 -0.45416,0.0187 -0.45416,0.45416 0,0.23641 0.1742,0.32351 0.31729,0.32351 0.72168,0 1.51802,-0.0871 2.25837,-0.0871 0.5226,0 1.77932,0.0871 2.30192,0.0871 0.21153,0 0.42928,-0.10576 0.42928,-0.46038 0,-0.29863 -0.2613,-0.31729 -0.49771,-0.31729 -1.36871,-0.0498 -1.36871,-0.61592 -1.36871,-0.91455 0,-0.0871 0,-0.19286 0.0871,-0.54748 l 2.78097,-11.086555 6.32717,12.952975 c 0.1742,0.35462 0.2613,0.37328 0.47283,0.37328 0.35462,0 0.35462,-0.0684 0.46038,-0.46038 z"
       id="path5054"
       inkscape:connector-curvature="0"
       style="font-style:normal;font-variant:normal;font-weight:normal;font-stretch:normal;letter-spacing:normal;word-spacing:normal;text-anchor:start;fill:#2e2b21;fill-opacity:1;fill-rule:evenodd;stroke:#000000;stroke-width:0;stroke-linecap:butt;stroke-linejoin:miter;stroke-miterlimit:10.43299961;stroke-dasharray:none;stroke-dashoffset:0;stroke-opacity:1" />
  </g>
  <path
     sodipodi:nodetypes="cc"
     id="path4339-6"
     d="m 126.75729,322.93845 94.40001,5e-5"
     style="color:#000000;text-decoration:none;text-decoration-line:none;text-decoration-style:solid;text-decoration-color:#000000;clip-rule:nonzero;display:inline;overflow:visible;visibility:visible;opacity:1;isolation:auto;color-interpolation:sRGB;color-interpolation-filters:linearRGB;fill:none;fill-opacity:1;fill-rule:nonzero;stroke:#3c3c3c;stroke-width:3.20000005;stroke-linecap:butt;stroke-linejoin:miter;stroke-miterlimit:10;stroke-dasharray:none;stroke-dashoffset:0;stroke-opacity:1;color-rendering:auto;image-rendering:auto;shape-rendering:auto;text-rendering:auto;enable-background:accumulate"
     inkscape:connector-curvature="0" />
  <path
     style="color:#000000;text-decoration:none;text-decoration-line:none;text-decoration-style:solid;text-decoration-color:#000000;clip-rule:nonzero;display:inline;overflow:visible;visibility:visible;opacity:1;isolation:auto;color-interpolation:sRGB;color-interpolation-filters:linearRGB;fill:#3c3c3c;fill-opacity:1;fill-rule:evenodd;stroke:#3c3c3c;stroke-width:2.44784045;stroke-linecap:butt;stroke-linejoin:miter;stroke-miterlimit:10;stroke-dasharray:none;stroke-dashoffset:0;stroke-opacity:1;color-rendering:auto;image-rendering:auto;shape-rendering:auto;text-rendering:auto;enable-background:accumulate"
     d="m 399.22002,322.93846 -10.52646,5.26323 2.63162,-5.26323 -2.63162,-5.26321 z m 0,0"
     id="path6119"
     inkscape:connector-curvature="0" />
  <path
     sodipodi:nodetypes="ccccc"
     inkscape:connector-curvature="0"
     id="path6117"
     d="m 398.75679,274.93847 h 176.00032 l -3.2e-4,96 H 398.75682 c 0,-32 -1e-5,-64 -3e-5,-96 z"
     style="color:#000000;text-decoration:none;text-decoration-line:none;text-decoration-style:solid;text-decoration-color:#000000;clip-rule:nonzero;display:inline;overflow:visible;visibility:visible;opacity:1;isolation:auto;color-interpolation:sRGB;color-interpolation-filters:linearRGB;fill:#f9c447;fill-opacity:1;fill-rule:nonzero;stroke:none;stroke-width:0.2742857;stroke-linecap:butt;stroke-linejoin:miter;stroke-miterlimit:4;stroke-dasharray:none;stroke-dashoffset:0;stroke-opacity:1;marker:none;color-rendering:auto;image-rendering:auto;shape-rendering:auto;text-rendering:auto;enable-background:accumulate" />
  <text
     sodipodi:linespacing="125%"
     id="text6107"
     y="310.95724"
     x="486.34445"
     style="font-style:normal;font-variant:normal;font-weight:normal;font-stretch:normal;font-size:38.39999771px;line-height:125%;font-family:'Tw Cen MT Condensed';-inkscape-font-specification:'Tw Cen MT Condensed, ';text-align:center;letter-spacing:0px;word-spacing:0px;text-anchor:middle;fill:#ffffff;fill-opacity:1;stroke:none"
     xml:space="preserve"><tspan
       y="310.95724"
       x="486.34445"
       sodipodi:role="line"
       id="tspan4469">SACCADIC</tspan><tspan
       y="358.95724"
       x="486.34445"
       sodipodi:role="line"
       id="tspan4869">BEHAVIOR</tspan></text>
  <path
     inkscape:connector-curvature="0"
     style="color:#000000;text-decoration:none;text-decoration-line:none;text-decoration-style:solid;text-decoration-color:#000000;clip-rule:nonzero;display:inline;overflow:visible;visibility:visible;opacity:1;isolation:auto;color-interpolation:sRGB;color-interpolation-filters:linearRGB;fill:none;fill-opacity:1;fill-rule:nonzero;stroke:#3c3c3c;stroke-width:3.20000005;stroke-linecap:butt;stroke-linejoin:miter;stroke-miterlimit:10;stroke-dasharray:none;stroke-dashoffset:0;stroke-opacity:1;color-rendering:auto;image-rendering:auto;shape-rendering:auto;text-rendering:auto;enable-background:accumulate"
     d="M 397.47679,322.93847 H 271.6"
     id="path6097"
     sodipodi:nodetypes="cc" />
  <g
     id="g4874"
     transform="translate(-45.475523,-40)">
    <path
       inkscape:connector-curvature="0"
       style="color:#000000;text-decoration:none;text-decoration-line:none;text-decoration-style:solid;text-decoration-color:#000000;clip-rule:nonzero;display:inline;overflow:visible;visibility:visible;opacity:1;isolation:auto;color-interpolation:sRGB;color-interpolation-filters:linearRGB;fill:none;fill-opacity:1;fill-rule:nonzero;stroke:#3c3c3c;stroke-width:3.20000005;stroke-linecap:butt;stroke-linejoin:miter;stroke-miterlimit:10;stroke-dasharray:none;stroke-dashoffset:0;stroke-opacity:1;color-rendering:auto;image-rendering:auto;shape-rendering:auto;text-rendering:auto;enable-background:accumulate"
       d="m 266.71649,362.9385 43.17377,-28.52883"
       id="path47"
       sodipodi:nodetypes="cc" />
    <ellipse
       ry="2.759588"
       rx="2.7595878"
       cy="363.18558"
       cx="-266.66406"
       id="path4323"
       style="color:#000000;text-decoration:none;text-decoration-line:none;text-decoration-style:solid;text-decoration-color:#000000;clip-rule:nonzero;display:inline;overflow:visible;visibility:visible;opacity:1;isolation:auto;color-interpolation:sRGB;color-interpolation-filters:linearRGB;fill:#3c3c3c;fill-opacity:1;fill-rule:evenodd;stroke:#3c3c3c;stroke-width:2.21114564;stroke-linecap:butt;stroke-linejoin:miter;stroke-miterlimit:10;stroke-dasharray:none;stroke-dashoffset:0;stroke-opacity:1;marker:none;color-rendering:auto;image-rendering:auto;shape-rendering:auto;text-rendering:auto;enable-background:accumulate"
       transform="scale(-1,1)" />
    <path
       style="color:#000000;text-decoration:none;text-decoration-line:none;text-decoration-style:solid;text-decoration-color:#000000;clip-rule:nonzero;display:inline;overflow:visible;visibility:visible;opacity:1;isolation:auto;color-interpolation:sRGB;color-interpolation-filters:linearRGB;fill:none;fill-opacity:1;fill-rule:nonzero;stroke:#3c3c3c;stroke-width:3.20000005;stroke-linecap:butt;stroke-linejoin:miter;stroke-miterlimit:10;stroke-dasharray:none;stroke-dashoffset:0;stroke-opacity:1;color-rendering:auto;image-rendering:auto;shape-rendering:auto;text-rendering:auto;enable-background:accumulate"
       d="m 307.95561,334.46753 c 4.14984,2.98957 9.34659,7.73623 10.92205,13.1809 1.57377,5.4436 1.72464,10.01336 -0.30283,14.36279"
       id="path43"
       inkscape:connector-curvature="0"
       sodipodi:nodetypes="ccc" />
  </g>
  <path
     inkscape:connector-curvature="0"
     id="path6401"
     d="m 964.02005,322.93846 -10.5264,5.26323 2.6316,-5.26323 -2.6316,-5.26321 z m 0,0"
     style="color:#000000;text-decoration:none;text-decoration-line:none;text-decoration-style:solid;text-decoration-color:#000000;clip-rule:nonzero;display:inline;overflow:visible;visibility:visible;opacity:1;isolation:auto;color-interpolation:sRGB;color-interpolation-filters:linearRGB;fill:#3c3c3c;fill-opacity:1;fill-rule:evenodd;stroke:#3c3c3c;stroke-width:2.44784045;stroke-linecap:butt;stroke-linejoin:miter;stroke-miterlimit:10;stroke-dasharray:none;stroke-dashoffset:0;stroke-opacity:1;color-rendering:auto;image-rendering:auto;shape-rendering:auto;text-rendering:auto;enable-background:accumulate" />
  <path
     sodipodi:nodetypes="cc"
     id="path6403"
     d="M 963.55678,322.93847 H 574.75679"
     style="color:#000000;text-decoration:none;text-decoration-line:none;text-decoration-style:solid;text-decoration-color:#000000;clip-rule:nonzero;display:inline;overflow:visible;visibility:visible;opacity:1;isolation:auto;color-interpolation:sRGB;color-interpolation-filters:linearRGB;fill:none;fill-opacity:1;fill-rule:nonzero;stroke:#3c3c3c;stroke-width:3.20000005;stroke-linecap:butt;stroke-linejoin:miter;stroke-miterlimit:10;stroke-dasharray:none;stroke-dashoffset:0;stroke-opacity:1;color-rendering:auto;image-rendering:auto;shape-rendering:auto;text-rendering:auto;enable-background:accumulate"
     inkscape:connector-curvature="0" />
  <g
     id="g4332"
     transform="matrix(1.1109876,0,0,1.1109876,76.748615,166.68975)"
     style="stroke-width:0.90010005">
    <path
       style="font-style:normal;font-variant:normal;font-weight:normal;font-stretch:normal;letter-spacing:normal;word-spacing:normal;text-anchor:start;fill:#2e2b21;fill-opacity:1;fill-rule:evenodd;stroke:#000000;stroke-width:0;stroke-linecap:butt;stroke-linejoin:miter;stroke-miterlimit:10.43299961;stroke-dasharray:none;stroke-dashoffset:0;stroke-opacity:1"
       inkscape:connector-curvature="0"
       id="path4292"
       d="m 621.56503,155.83519 v -0.0225 l -0.007,-0.0225 v -0.015 -0.0225 l -0.008,-0.03 -0.007,-0.0225 v -0.0225 l -0.008,-0.03 -0.015,-0.0225 -0.008,-0.03 -0.007,-0.03 -0.015,-0.03 -0.015,-0.0225 -0.015,-0.03 -0.015,-0.03 -0.0225,-0.0225 -0.015,-0.03 -0.0225,-0.0225 -0.0225,-0.03 -0.0225,-0.0225 -0.03,-0.0225 -0.03,-0.0225 -0.03,-0.0225 -0.03,-0.015 -0.03,-0.015 -0.0375,-0.015 -0.0225,-0.008 -0.015,-0.007 -0.0225,-0.007 -0.015,-0.007 h -0.0225 l -0.0225,-0.008 h -0.0225 l -0.0225,-0.007 h -0.0225 -0.0225 -0.0225 -0.0225 c -0.0375,0 -2.2425,0.51 -3.405,1.605 -0.525,-0.6 -1.7925,-1.605 -3.99,-1.605 l 0.0675,1.3425 c 2.205,0 3.105,1.7475 3.105,2.16 0,0.15 -0.0375,0.42 -0.0825,0.525 l -2.235,8.8575 c -0.1875,0.6375 -0.1875,0.705 -0.6,1.08 -1.1925,1.1925 -2.7675,1.875 -4.08,1.875 -2.31,0 -2.4975,-2.0175 -2.4975,-2.85 0,-1.9275 1.2675,-6.54 1.8675,-7.9875 1.1625,-2.73 2.985,-3.66 4.5225,-3.66 l -0.0675,-1.3425 c -6.51,0 -10.5525,5.9025 -10.5525,11.01 0,4.605 3.45,6.18 6.54,6.18 1.8075,0 3.2925,-0.72 4.08,-1.2075 l -1.4175,5.685 c -0.15,0.5625 -0.1875,0.5925 -0.4425,0.63 -0.4125,0.0825 -1.0125,0.0825 -1.4325,0.0825 -0.63,0 -0.855,0 -1.0425,0.225 -0.1875,0.2175 -0.2925,0.8175 -0.2925,0.855 0,0.2175 0.1425,0.675 0.735,0.675 1.2825,0 2.6625,-0.1125 3.96,-0.1125 1.3875,0 2.8125,0.1125 4.155,0.1125 0.2625,0 0.9675,0 0.9675,-1.0875 0,-0.63 -0.63,-0.6675 -0.9675,-0.6675 -0.5175,0 -1.1175,0 -1.6125,-0.0375 z" />
    <path
       style="font-style:normal;font-variant:normal;font-weight:normal;font-stretch:normal;letter-spacing:normal;word-spacing:normal;text-anchor:start;fill:#2e2b21;fill-opacity:1;fill-rule:evenodd;stroke:#000000;stroke-width:0;stroke-linecap:butt;stroke-linejoin:miter;stroke-miterlimit:10.43299961;stroke-dasharray:none;stroke-dashoffset:0;stroke-opacity:1"
       inkscape:connector-curvature="0"
       id="path4294"
       d="m 631.31503,152.04769 0.195,-0.09 0.195,-0.0825 0.18,-0.0825 0.18,-0.075 0.1725,-0.075 0.165,-0.075 0.1575,-0.0675 0.1575,-0.0675 0.15,-0.06 0.1425,-0.06 0.135,-0.06 0.135,-0.0525 0.1275,-0.06 0.12,-0.045 0.12,-0.0525 0.1125,-0.045 0.105,-0.045 0.105,-0.045 0.105,-0.045 0.0975,-0.0375 0.09,-0.045 0.09,-0.0375 0.0825,-0.0375 0.0825,-0.03 0.0825,-0.0375 0.075,-0.03 0.1425,-0.0675 0.135,-0.06 0.1275,-0.06 c 0.5025,-0.2025 0.735,-0.3075 0.735,-0.81 0,-0.4425 -0.3375,-0.8325 -0.81,-0.8325 -0.1875,0 -0.2325,0 -0.5475,0.2325 l -3.555,2.3775 0.39,-3.8625 c 0.06,-0.4725 0,-1.125 -0.7875,-1.125 -0.315,0 -0.81,0.21 -0.81,0.78 0,0.24 0.105,1.02 0.135,1.2825 0.0525,0.4425 0.2325,2.3325 0.2925,2.925 l -3.5325,-2.3775 c -0.27,-0.15 -0.3375,-0.2325 -0.57,-0.2325 -0.48,0 -0.825,0.39 -0.825,0.8325 0,0.525 0.3225,0.6525 0.555,0.7575 l 3.945,1.6425 c -2.145,0.9525 -3.105,1.3125 -3.7575,1.6275 -0.495,0.2175 -0.7425,0.3225 -0.7425,0.81 0,0.45 0.345,0.8325 0.825,0.8325 0.1725,0 0.2325,0 0.54,-0.2325 l 3.5625,-2.3775 -0.4275,4.2075 c 0,0.57 0.495,0.78 0.81,0.78 0.315,0 0.81,-0.21 0.81,-0.78 0,-0.24 -0.105,-1.02 -0.1275,-1.2825 -0.045,-0.4425 -0.2325,-2.3175 -0.285,-2.925 l 3.135,2.0925 c 0.675,0.5175 0.735,0.5175 0.9675,0.5175 0.4725,0 0.81,-0.3825 0.81,-0.8325 0,-0.525 -0.315,-0.6525 -0.5475,-0.7575 z" />
    <path
       style="font-style:normal;font-variant:normal;font-weight:normal;font-stretch:normal;letter-spacing:normal;word-spacing:normal;text-anchor:start;fill:#2e2b21;fill-opacity:1;fill-rule:evenodd;stroke:#000000;stroke-width:0;stroke-linecap:butt;stroke-linejoin:miter;stroke-miterlimit:10.43299961;stroke-dasharray:none;stroke-dashoffset:0;stroke-opacity:1"
       inkscape:connector-curvature="0"
       id="path4296"
       d="m 642.22003,176.36269 0.008,-0.015 0.008,-0.015 0.007,-0.015 0.008,-0.015 0.007,-0.015 0.008,-0.007 0.007,-0.015 0.008,-0.015 v -0.015 l 0.007,-0.015 0.008,-0.0225 0.015,-0.0225 0.008,-0.0225 0.007,-0.0225 0.008,-0.015 0.007,-0.0225 0.008,-0.015 0.008,-0.0225 v -0.015 l 0.007,-0.015 v -0.015 l 0.008,-0.007 v -0.015 l 0.007,-0.007 v -0.015 -0.007 l 0.008,-0.008 v -0.007 -0.007 -0.007 -0.008 -0.007 0 -0.007 0 -0.007 0 c 0,-0.165 -0.105,-0.375 -0.4425,-0.375 -0.06,0 -0.1875,0 -0.2925,0.105 -0.045,0.06 -0.0825,0.0825 -0.39,0.765 -1.695,3.7575 -3.03,5.07 -7.2975,5.07 h -4.44 c -0.81,0 -0.8325,-0.0375 -0.8325,-0.27 0,-0.0225 0,-0.15 0.105,-0.54 l 1.7475,-7.005 h 2.925 c 2.0625,0 2.3775,0.3375 2.3775,1.2075 0,0.2775 -0.0825,0.7275 -0.1875,1.17 -0.0675,0.2325 -0.0675,0.2625 -0.0675,0.315 0,0.0525 0.0225,0.3675 0.4425,0.3675 0.3675,0 0.39,-0.1275 0.495,-0.5775 l 1.44,-5.73 c 0.075,-0.3 0.075,-0.36 0.075,-0.3825 0,-0.2625 -0.2025,-0.3675 -0.45,-0.3675 -0.3375,0 -0.36,0.1275 -0.5175,0.6825 -0.5475,2.04 -1.335,2.3775 -3.5475,2.3775 h -2.7525 l 1.5675,-6.225 c 0.21,-0.81 0.2325,-0.885 1.335,-0.885 h 4.2525 c 3.435,0 4.29,0.6975 4.29,3.03 0,0.6825 -0.105,1.47 -0.105,1.5975 0,0.21 0.0825,0.4425 0.45,0.4425 0.3975,0 0.42,-0.2325 0.465,-0.6825 l 0.4725,-4.545 c 0.0825,-0.78 -0.0975,-0.78 -0.75,-0.78 h -14.385 c -0.51,0 -0.825,0 -0.825,0.57 0,0.3675 0.2775,0.3675 0.8625,0.3675 0.4125,0 0.5175,0 0.9825,0.0525 0.5325,0.0525 0.5775,0.0975 0.5775,0.3675 0,0.1725 -0.0675,0.4425 -0.105,0.57 l -3.42,13.665 c -0.2625,1.02 -0.285,1.2075 -2.325,1.2075 -0.465,0 -0.78,0 -0.78,0.5775 0,0.36 0.315,0.36 0.78,0.36 h 14.7675 c 0.645,0 0.6825,0 0.8925,-0.465 z" />
  </g>
  <text
     xml:space="preserve"
     style="font-style:normal;font-variant:normal;font-weight:bold;font-stretch:normal;font-size:42.66666412px;line-height:20px;font-family:YaleNew;-inkscape-font-specification:'YaleNew Bold';text-align:center;letter-spacing:0px;word-spacing:0px;text-anchor:middle;fill:#000000;fill-opacity:1;stroke:none;stroke-width:0.80000001px;stroke-linecap:butt;stroke-linejoin:miter;stroke-opacity:1"
     x="668.54443"
     y="363.80887"
     id="text4473"><tspan
       sodipodi:role="line"
       id="tspan4471"
       x="668.54443"
       y="383.53687"
       style="stroke-width:0.80000001px" /></text>
  <path
     inkscape:connector-curvature="0"
     id="path7-3"
     d="m 682.75702,106.93855 h 159.99999 v 128 H 682.75702 Z m 0,0"
     style="color:#000000;text-decoration:none;text-decoration-line:none;text-decoration-style:solid;text-decoration-color:#000000;clip-rule:nonzero;display:inline;overflow:visible;visibility:visible;opacity:1;isolation:auto;color-interpolation:sRGB;color-interpolation-filters:linearRGB;fill:#58add4;fill-opacity:1;fill-rule:nonzero;stroke:none;stroke-width:0.008;stroke-linecap:butt;stroke-linejoin:miter;stroke-miterlimit:4;stroke-dasharray:none;stroke-dashoffset:0;stroke-opacity:1;marker:none;color-rendering:auto;image-rendering:auto;shape-rendering:auto;text-rendering:auto;enable-background:accumulate" />
  <text
     id="text4276-9"
     y="158.95731"
     x="762.40076"
     style="font-style:normal;font-variant:normal;font-weight:normal;font-stretch:normal;font-size:38.39999771px;line-height:48.00000381px;font-family:'Tw Cen MT Condensed';-inkscape-font-specification:'Tw Cen MT Condensed, ';text-align:center;letter-spacing:0px;word-spacing:0px;text-anchor:middle;fill:#ffffff;fill-opacity:1;stroke:none;stroke-width:1"
     xml:space="preserve"><tspan
       style="stroke-width:1"
       y="158.95731"
       x="762.40076"
       sodipodi:role="line"
       id="tspan4798-9">GAZE</tspan><tspan
       style="stroke-width:1"
       y="206.95731"
       x="762.40076"
       sodipodi:role="line"
       id="tspan4610">STABILIZER</tspan></text>
  <path
     sodipodi:nodetypes="cc"
     inkscape:connector-curvature="0"
     id="path4646"
     d="M 773.957,47.738566 V 106.93856"
     style="opacity:1;fill:none;fill-opacity:1;fill-rule:evenodd;stroke:#3c3c3c;stroke-width:3.20000005;stroke-linecap:butt;stroke-linejoin:miter;stroke-miterlimit:10;stroke-dasharray:none;stroke-dashoffset:0;stroke-opacity:1" />
  <path
     sodipodi:nodetypes="cccc"
     inkscape:connector-curvature="0"
     id="path4364"
     d="M 1020.3568,130.93855 V 77.33857 h -755.2 v 29.59999"
     style="opacity:1;fill:none;fill-opacity:1;fill-rule:evenodd;stroke:#3c3c3c;stroke-width:3.20000005;stroke-linecap:butt;stroke-linejoin:miter;stroke-miterlimit:10;stroke-dasharray:none;stroke-dashoffset:0;stroke-opacity:1" />
</svg>
