<?xml version="1.0" encoding="UTF-8" standalone="no"?>
<svg
   xmlns:dc="http://purl.org/dc/elements/1.1/"
   xmlns:cc="http://creativecommons.org/ns#"
   xmlns:rdf="http://www.w3.org/1999/02/22-rdf-syntax-ns#"
   xmlns:svg="http://www.w3.org/2000/svg"
   xmlns="http://www.w3.org/2000/svg"
   xmlns:sodipodi="http://sodipodi.sourceforge.net/DTD/sodipodi-0.dtd"
   xmlns:inkscape="http://www.inkscape.org/namespaces/inkscape"
   width="975"
   height="493"
   viewBox="0 0 780 394.4"
   version="1.1"
   id="svg2"
   inkscape:version="0.48+devel r"
   sodipodi:docname="blockDiagram2.svg">
  <sodipodi:namedview
     pagecolor="#ffffff"
     bordercolor="#666666"
     borderopacity="1"
     objecttolerance="10"
     gridtolerance="10"
     guidetolerance="10"
     inkscape:pageopacity="0"
     inkscape:pageshadow="2"
     inkscape:window-width="1855"
     inkscape:window-height="1056"
     id="namedview57"
     showgrid="false"
     fit-margin-top="20"
     fit-margin-left="10"
     fit-margin-right="10"
     fit-margin-bottom="20"
     inkscape:zoom="1.5203375"
     inkscape:cx="682.58365"
     inkscape:cy="150.61989"
     inkscape:window-x="65"
     inkscape:window-y="24"
     inkscape:window-maximized="1"
     inkscape:current-layer="svg2" />
  <metadata
     id="metadata61">
    <rdf:RDF>
      <cc:Work
         rdf:about="">
        <dc:format>image/svg+xml</dc:format>
        <dc:type
           rdf:resource="http://purl.org/dc/dcmitype/StillImage" />
        <dc:title></dc:title>
      </cc:Work>
    </rdf:RDF>
  </metadata>
  <defs
     id="defs59" />
  <g
     id="g4259"
     style="color:#000000;text-decoration:none;text-decoration-line:none;text-decoration-style:solid;text-decoration-color:#000000;clip-rule:nonzero;display:inline;overflow:visible;visibility:visible;opacity:1;isolation:auto;color-interpolation:sRGB;color-interpolation-filters:linearRGB;fill:#3c3c3c;fill-opacity:1;fill-rule:evenodd;stroke:#3c3c3c;stroke-width:0;stroke-linecap:butt;stroke-linejoin:miter;stroke-miterlimit:10.43299961;stroke-dasharray:none;stroke-dashoffset:0;stroke-opacity:1;color-rendering:auto;image-rendering:auto;shape-rendering:auto;text-rendering:auto;enable-background:accumulate"
     transform="matrix(0.77943896,0,0,0.77943896,555.35262,-145.89093)">
    <g
       word-spacing="normal"
       letter-spacing="normal"
       font-size-adjust="none"
       font-stretch="normal"
       font-weight="normal"
       font-variant="normal"
       font-style="normal"
       stroke-miterlimit="10.433"
       xml:space="preserve"
       transform="matrix(0.70428571,0,0,-0.70428571,-123.25,731.25)"
       id="content"
       style="color:#000000;font-style:normal;font-variant:normal;font-weight:normal;font-stretch:normal;text-decoration:none;text-decoration-line:none;text-decoration-style:solid;text-decoration-color:#000000;letter-spacing:normal;word-spacing:normal;text-anchor:start;clip-rule:nonzero;display:inline;overflow:visible;visibility:visible;isolation:auto;color-interpolation:sRGB;color-interpolation-filters:linearRGB;fill:#3c3c3c;fill-opacity:1;fill-rule:evenodd;stroke:#3c3c3c;stroke-width:0;stroke-linecap:butt;stroke-linejoin:miter;stroke-miterlimit:10.43299961;stroke-dasharray:none;stroke-dashoffset:0;stroke-opacity:1;color-rendering:auto;image-rendering:auto;shape-rendering:auto;text-rendering:auto;enable-background:accumulate"><path
         id="path4262"
         d="m 473.36,437.61 0,0.12 -0.01,0.13 -0.02,0.12 -0.02,0.13 -0.03,0.12 -0.03,0.12 -0.04,0.12 -0.05,0.12 -0.05,0.11 -0.06,0.12 -0.06,0.11 -0.07,0.11 -0.07,0.1 -0.08,0.1 -0.08,0.1 -0.08,0.09 -0.1,0.09 -0.09,0.09 -0.1,0.08 -0.1,0.08 -0.11,0.07 -0.11,0.07 -0.11,0.06 -0.12,0.06 -0.12,0.05 -0.13,0.04 -0.12,0.04 -0.13,0.03 -0.14,0.03 -0.13,0.02 -0.14,0.01 -0.14,0 c -1.68,0 -2.68,-1.39 -2.68,-2.64 0,-1.34 1.14,-2.64 2.64,-2.64 1.68,0 2.68,1.39 2.68,2.64 z"
         style="color:#000000;text-decoration:none;text-decoration-line:none;text-decoration-style:solid;text-decoration-color:#000000;clip-rule:nonzero;display:inline;overflow:visible;visibility:visible;isolation:auto;color-interpolation:sRGB;color-interpolation-filters:linearRGB;fill:#3c3c3c;fill-opacity:1;fill-rule:evenodd;stroke:#3c3c3c;stroke-width:0;stroke-linecap:butt;stroke-linejoin:miter;stroke-miterlimit:10.43299961;stroke-dasharray:none;stroke-dashoffset:0;stroke-opacity:1;color-rendering:auto;image-rendering:auto;shape-rendering:auto;text-rendering:auto;enable-background:accumulate"
         inkscape:connector-curvature="0" /><path
         id="path4264"
         d="m 477.35,424.68 -0.17,0.23 -0.17,0.22 -0.18,0.21 -0.19,0.21 -0.19,0.21 -0.19,0.19 -0.2,0.19 -0.21,0.19 -0.21,0.18 -0.21,0.17 -0.22,0.16 -0.23,0.16 -0.23,0.15 -0.23,0.15 -0.23,0.14 -0.24,0.13 -0.25,0.12 -0.25,0.12 -0.25,0.11 -0.25,0.1 -0.26,0.09 -0.26,0.09 -0.26,0.08 -0.26,0.07 -0.27,0.06 -0.27,0.06 -0.27,0.04 -0.28,0.04 -0.27,0.03 -0.28,0.02 -0.27,0.02 -0.28,0 c -7.27,0 -12.41,-4.44 -12.41,-11.36 0,-7.03 5.03,-11.36 11.95,-11.36 l 0.5,1.8 c -3.07,0 -6.07,2.89 -6.07,9.51 0,7.07 3.68,9.41 6.68,9.41 3.78,0 6.17,-3.94 6.17,-6.42 l 0,-6.92 c 0,-0.91 0,-1.05 -0.75,-2.1 -1.98,-2.93 -4.53,-3.48 -6.03,-3.48 l -0.5,-1.8 c 2.46,0 4.69,0.71 6.99,2.69 l 0,-9.72 -3.44,0 0,-2.34 c 1.39,0.06 4.38,0.15 6.28,0.15 1.94,0 4.88,-0.09 6.27,-0.15 l 0,2.34 -3.44,0 0,29.75 -2.03,0 z"
         style="color:#000000;text-decoration:none;text-decoration-line:none;text-decoration-style:solid;text-decoration-color:#000000;clip-rule:nonzero;display:inline;overflow:visible;visibility:visible;isolation:auto;color-interpolation:sRGB;color-interpolation-filters:linearRGB;fill:#3c3c3c;fill-opacity:1;fill-rule:evenodd;stroke:#3c3c3c;stroke-width:0;stroke-linecap:butt;stroke-linejoin:miter;stroke-miterlimit:10.43299961;stroke-dasharray:none;stroke-dashoffset:0;stroke-opacity:1;color-rendering:auto;image-rendering:auto;shape-rendering:auto;text-rendering:auto;enable-background:accumulate"
         inkscape:connector-curvature="0" /><path
         id="path4266"
         d="m 514.82,418.76 0.07,0.25 0.08,0.24 0.04,0.12 0.04,0.11 0.05,0.12 0.05,0.11 0.06,0.11 0.06,0.11 0.07,0.1 0.07,0.1 0.08,0.1 0.08,0.09 0.09,0.1 0.09,0.08 0.11,0.09 0.11,0.08 0.12,0.08 0.12,0.07 0.14,0.07 0.14,0.06 0.16,0.06 0.16,0.05 0.17,0.05 0.19,0.05 0.19,0.04 0.21,0.03 0.22,0.03 0.11,0.01 0.12,0.01 0.12,0.01 0.12,0.01 0.12,0 0.13,0.01 c 0.17,0 0.71,0.03 0.71,0.76 0,0.21 -0.18,0.49 -0.54,0.49 -1.14,0 -2.43,-0.14 -3.62,-0.14 -0.83,0 -2.84,0.14 -3.69,0.14 -0.17,0 -0.7,0 -0.7,-0.77 0,-0.45 0.45,-0.48 0.78,-0.48 1.62,-0.03 2.22,-0.56 2.22,-1.44 0,-0.26 -0.03,-0.45 -0.14,-0.83 l -3.8,-15.18 -8.84,18.1 c -0.28,0.6 -0.35,0.6 -1.19,0.6 l -4.77,0 c -0.67,0 -1.12,0 -1.12,-0.77 0,-0.48 0.42,-0.48 1.15,-0.48 0.74,0 1.5,-0.03 2.22,-0.17 l -4.65,-18.64 c -0.32,-1.33 -0.91,-2.38 -3.63,-2.49 -0.25,0 -0.73,-0.03 -0.73,-0.73 0,-0.38 0.28,-0.52 0.51,-0.52 1.16,0 2.44,0.14 3.63,0.14 0.84,0 2.86,-0.14 3.7,-0.14 0.35,0 0.69,0.17 0.69,0.74 0,0.48 -0.42,0.51 -0.8,0.51 -2.2,0.08 -2.2,0.99 -2.2,1.47 0,0.14 0,0.31 0.14,0.88 l 4.47,17.82 10.17,-20.82 c 0.28,-0.57 0.42,-0.6 0.77,-0.6 0.56,0 0.56,0.11 0.73,0.74 z"
         style="color:#000000;text-decoration:none;text-decoration-line:none;text-decoration-style:solid;text-decoration-color:#000000;clip-rule:nonzero;display:inline;overflow:visible;visibility:visible;isolation:auto;color-interpolation:sRGB;color-interpolation-filters:linearRGB;fill:#3c3c3c;fill-opacity:1;fill-rule:evenodd;stroke:#3c3c3c;stroke-width:0;stroke-linecap:butt;stroke-linejoin:miter;stroke-miterlimit:10.43299961;stroke-dasharray:none;stroke-dashoffset:0;stroke-opacity:1;color-rendering:auto;image-rendering:auto;shape-rendering:auto;text-rendering:auto;enable-background:accumulate"
         inkscape:connector-curvature="0" /><path
         id="path4268"
         d="m 548.63,406.81 0.01,0.02 0.01,0.02 0.01,0.02 0.01,0.02 0.01,0.02 0.01,0.02 0.01,0.02 0.01,0.01 0,0.02 0.01,0.02 0.01,0.03 0.02,0.03 0.01,0.03 0.01,0.03 0.01,0.03 0.01,0.02 0.01,0.03 0.01,0.02 0,0.02 0.01,0.02 0,0.02 0.01,0.02 0,0.01 0.01,0.02 0,0.01 0,0.01 0.01,0.02 0,0.01 0,0.01 0,0.01 0,0 0,0.01 0,0.01 0,0 0,0.01 0,0 0,0 c 0,0.22 -0.14,0.5 -0.59,0.5 -0.08,0 -0.25,0 -0.39,-0.14 -0.07,-0.08 -0.11,-0.11 -0.52,-1.01 -2.26,-5.02 -4.05,-6.77 -9.73,-6.77 l -5.92,0 c -1.08,0 -1.11,0.05 -1.11,0.36 0,0.03 0,0.2 0.14,0.72 l 2.32,9.34 3.91,0 c 2.75,0 3.17,-0.45 3.17,-1.61 0,-0.37 -0.11,-0.96 -0.25,-1.56 -0.09,-0.31 -0.09,-0.34 -0.09,-0.42 0,-0.06 0.03,-0.48 0.59,-0.48 0.49,0 0.52,0.17 0.66,0.76 l 1.92,7.64 c 0.09,0.41 0.09,0.49 0.09,0.52 0,0.34 -0.26,0.48 -0.59,0.48 -0.45,0 -0.48,-0.17 -0.69,-0.9 -0.73,-2.72 -1.78,-3.18 -4.73,-3.18 l -3.67,0 2.09,8.3 c 0.28,1.08 0.31,1.19 1.78,1.19 l 5.67,0 c 4.58,0 5.72,-0.94 5.72,-4.05 0,-0.91 -0.14,-1.95 -0.14,-2.12 0,-0.29 0.11,-0.6 0.6,-0.6 0.53,0 0.56,0.31 0.62,0.91 l 0.63,6.06 c 0.11,1.05 -0.13,1.05 -1,1.05 l -19.18,0 c -0.68,0 -1.11,0 -1.11,-0.77 0,-0.48 0.38,-0.48 1.16,-0.48 0.55,0 0.69,0 1.31,-0.08 0.71,-0.06 0.77,-0.13 0.77,-0.48 0,-0.24 -0.09,-0.6 -0.14,-0.77 l -4.56,-18.22 c -0.35,-1.36 -0.38,-1.61 -3.1,-1.61 -0.62,0 -1.04,0 -1.04,-0.76 0,-0.49 0.42,-0.49 1.04,-0.49 l 19.69,0 c 0.86,0 0.91,0 1.19,0.63 z"
         style="color:#000000;text-decoration:none;text-decoration-line:none;text-decoration-style:solid;text-decoration-color:#000000;clip-rule:nonzero;display:inline;overflow:visible;visibility:visible;isolation:auto;color-interpolation:sRGB;color-interpolation-filters:linearRGB;fill:#3c3c3c;fill-opacity:1;fill-rule:evenodd;stroke:#3c3c3c;stroke-width:0;stroke-linecap:butt;stroke-linejoin:miter;stroke-miterlimit:10.43299961;stroke-dasharray:none;stroke-dashoffset:0;stroke-opacity:1;color-rendering:auto;image-rendering:auto;shape-rendering:auto;text-rendering:auto;enable-background:accumulate"
         inkscape:connector-curvature="0" /></g>  </g>
  <g
     transform="translate(31,75)"
     id="g4501">
    <path
       inkscape:connector-curvature="0"
       id="path7-7"
       d="m -23,-7 124,0 0,96 -124,0 z m 0,0"
       style="color:#000000;text-decoration:none;text-decoration-line:none;text-decoration-style:solid;text-decoration-color:#000000;clip-rule:nonzero;display:inline;overflow:visible;visibility:visible;opacity:1;isolation:auto;color-interpolation:sRGB;color-interpolation-filters:linearRGB;fill:#c44d58;fill-opacity:1;fill-rule:nonzero;stroke:none;stroke-width:0.16;stroke-linecap:butt;stroke-linejoin:miter;stroke-miterlimit:4;stroke-dasharray:none;stroke-dashoffset:0;stroke-opacity:1;marker:none;color-rendering:auto;image-rendering:auto;shape-rendering:auto;text-rendering:auto;enable-background:accumulate" />
    <text
       sodipodi:linespacing="125%"
       id="text4495"
       y="33.266006"
       x="38.932507"
       style="font-style:normal;font-variant:normal;font-weight:bold;font-stretch:normal;font-size:31.76178741px;line-height:125%;font-family:AgencyFB;-inkscape-font-specification:'AgencyFB Bold';text-align:center;letter-spacing:0px;word-spacing:0px;text-anchor:middle;fill:#ffffff;fill-opacity:1;stroke:none"
       xml:space="preserve"><tspan
         y="33.266006"
         x="38.932507"
         sodipodi:role="line"
         id="tspan4497">FEED-</tspan><tspan
         y="72.968239"
         x="38.932507"
         sodipodi:role="line"
         id="tspan4499">FORWARD</tspan></text>
  </g>
  <g
     transform="translate(31,275)"
     id="g4507">
    <path
       style="color:#000000;text-decoration:none;text-decoration-line:none;text-decoration-style:solid;text-decoration-color:#000000;clip-rule:nonzero;display:inline;overflow:visible;visibility:visible;opacity:1;isolation:auto;color-interpolation:sRGB;color-interpolation-filters:linearRGB;fill:#c44d58;fill-opacity:1;fill-rule:nonzero;stroke:none;stroke-width:0.16;stroke-linecap:butt;stroke-linejoin:miter;stroke-miterlimit:4;stroke-dasharray:none;stroke-dashoffset:0;stroke-opacity:1;marker:none;color-rendering:auto;image-rendering:auto;shape-rendering:auto;text-rendering:auto;enable-background:accumulate"
       d="m -23,-7 124,0 0,96 -124,0 z m 0,0"
       id="path4509"
       inkscape:connector-curvature="0" />
    <text
       xml:space="preserve"
       style="font-style:normal;font-variant:normal;font-weight:bold;font-stretch:normal;font-size:31.76178741px;line-height:125%;font-family:AgencyFB;-inkscape-font-specification:'AgencyFB Bold';text-align:center;letter-spacing:0px;word-spacing:0px;text-anchor:middle;fill:#ffffff;fill-opacity:1;stroke:none"
       x="38.932507"
       y="33.266006"
       id="text4511"
       sodipodi:linespacing="125%"><tspan
         id="tspan4515"
         sodipodi:role="line"
         x="38.932507"
         y="33.266006">FEEDBACK</tspan><tspan
         id="tspan4527"
         sodipodi:role="line"
         x="38.932507"
         y="72.968239">(IMU)</tspan></text>
  </g>
  <path
     style="color:#000000;text-decoration:none;text-decoration-line:none;text-decoration-style:solid;text-decoration-color:#000000;clip-rule:nonzero;display:inline;overflow:visible;visibility:visible;opacity:1;isolation:auto;color-interpolation:sRGB;color-interpolation-filters:linearRGB;fill:#58add4;fill-opacity:1;fill-rule:nonzero;stroke:none;stroke-width:0.0004;stroke-linecap:butt;stroke-linejoin:miter;stroke-miterlimit:4;stroke-dasharray:none;stroke-dashoffset:0;stroke-opacity:1;marker:none;color-rendering:auto;image-rendering:auto;shape-rendering:auto;text-rendering:auto;enable-background:accumulate"
     d="m 571,16 160,0 0,96 -160,0 z m 0,0"
     id="path11"
     inkscape:connector-curvature="0" />
  <path
     sodipodi:nodetypes="cccccccc"
     style="color:#000000;text-decoration:none;text-decoration-line:none;text-decoration-style:solid;text-decoration-color:#000000;clip-rule:nonzero;display:inline;overflow:visible;visibility:visible;opacity:1;isolation:auto;color-interpolation:sRGB;color-interpolation-filters:linearRGB;fill:none;fill-opacity:1;fill-rule:nonzero;stroke:#3fb9af;stroke-width:4.80000019;stroke-linecap:butt;stroke-linejoin:miter;stroke-miterlimit:10;stroke-dasharray:19.2, 4.8;stroke-dashoffset:0.31199998;stroke-opacity:1;color-rendering:auto;image-rendering:auto;shape-rendering:auto;text-rendering:auto;enable-background:accumulate"
     d="m 211,56 0,320 260,0 220,0 0,-220 -220,0 0,-100 z"
     id="path13"
     inkscape:connector-curvature="0" />
  <path
     style="color:#000000;text-decoration:none;text-decoration-line:none;text-decoration-style:solid;text-decoration-color:#000000;clip-rule:nonzero;display:inline;overflow:visible;visibility:visible;opacity:1;isolation:auto;color-interpolation:sRGB;color-interpolation-filters:linearRGB;fill:#3fb9af;fill-opacity:1;fill-rule:nonzero;stroke:none;stroke-width:0.2742857;stroke-linecap:butt;stroke-linejoin:miter;stroke-miterlimit:4;stroke-dasharray:none;stroke-dashoffset:0;stroke-opacity:1;marker:none;color-rendering:auto;image-rendering:auto;shape-rendering:auto;text-rendering:auto;enable-background:accumulate"
     d="m 241,68 120,0 0,96 -120,0 z m 0,0"
     id="path15"
     inkscape:connector-curvature="0" />
  <path
     style="color:#000000;text-decoration:none;text-decoration-line:none;text-decoration-style:solid;text-decoration-color:#000000;clip-rule:nonzero;display:inline;overflow:visible;visibility:visible;opacity:1;isolation:auto;color-interpolation:sRGB;color-interpolation-filters:linearRGB;fill:#3fb9af;fill-opacity:1;fill-rule:nonzero;stroke:none;stroke-width:0.2742857;stroke-linecap:butt;stroke-linejoin:miter;stroke-miterlimit:4;stroke-dasharray:none;stroke-dashoffset:0;stroke-opacity:1;marker:none;color-rendering:auto;image-rendering:auto;shape-rendering:auto;text-rendering:auto;enable-background:accumulate"
     d="m 531,176 100,0 0,80 -100,0 z m 0,0"
     id="path17"
     inkscape:connector-curvature="0" />
  <path
     style="color:#000000;text-decoration:none;text-decoration-line:none;text-decoration-style:solid;text-decoration-color:#000000;clip-rule:nonzero;display:inline;overflow:visible;visibility:visible;opacity:1;isolation:auto;color-interpolation:sRGB;color-interpolation-filters:linearRGB;fill:#3c3c3c;fill-opacity:1;fill-rule:evenodd;stroke:#3c3c3c;stroke-width:2.44784045;stroke-linecap:butt;stroke-linejoin:miter;stroke-miterlimit:10;stroke-dasharray:none;stroke-dashoffset:0;stroke-opacity:1;color-rendering:auto;image-rendering:auto;shape-rendering:auto;text-rendering:auto;enable-background:accumulate"
     d="m 733.23438,64.000031 10,-5 -2.5,5 2.5,5 z m 0,0"
     id="path21"
     inkscape:connector-curvature="0" />
  <path
     style="fill:#3c3c3c;fill-opacity:1;fill-rule:evenodd;stroke:#3c3c3c;stroke-width:2.44784045;stroke-linecap:butt;stroke-linejoin:miter;stroke-miterlimit:10;stroke-opacity:1;color:#000000;text-decoration-line:none;text-decoration-style:solid;text-decoration-color:#000000;clip-rule:nonzero;display:inline;overflow:visible;visibility:visible;opacity:1;isolation:auto;blend_mode:normal;color-interpolation:sRGB;color-interpolation-filters:linearRGB;stroke-dasharray:none;stroke-dashoffset:0;filter-blend-mode:normal;filter-gaussianBlur-deviation:0;color-rendering:auto;image-rendering:auto;shape-rendering:auto;text-rendering:auto;enable-background:accumulate"
     d="m 391,173.76562 -5,-10 5,2.5 5,-2.5 z m 0,0"
     id="path25"
     inkscape:connector-curvature="0" />
  <path
     style="fill:#3c3c3c;fill-opacity:1;fill-rule:evenodd;stroke:#3c3c3c;stroke-width:2.44784045;stroke-linecap:butt;stroke-linejoin:miter;stroke-miterlimit:10;stroke-opacity:1;color:#000000;text-decoration-line:none;text-decoration-style:solid;text-decoration-color:#000000;clip-rule:nonzero;display:inline;overflow:visible;visibility:visible;opacity:1;isolation:auto;blend_mode:normal;color-interpolation:sRGB;color-interpolation-filters:linearRGB;stroke-dasharray:none;stroke-dashoffset:0;filter-blend-mode:normal;filter-gaussianBlur-deviation:0;color-rendering:auto;image-rendering:auto;shape-rendering:auto;text-rendering:auto;enable-background:accumulate"
     d="m 389.21094,177.33984 -5,10 -1,-5.5 -5,-2.5 z m 0,0"
     id="path29"
     inkscape:connector-curvature="0" />
  <path
     style="color:#000000;text-decoration:none;text-decoration-line:none;text-decoration-style:solid;text-decoration-color:#000000;clip-rule:nonzero;display:inline;overflow:visible;visibility:visible;opacity:1;isolation:auto;color-interpolation:sRGB;color-interpolation-filters:linearRGB;fill:#3fb9af;fill-opacity:1;fill-rule:nonzero;stroke:none;stroke-width:0.2742857;stroke-linecap:butt;stroke-linejoin:miter;stroke-miterlimit:4;stroke-dasharray:none;stroke-dashoffset:0;stroke-opacity:1;marker:none;color-rendering:auto;image-rendering:auto;shape-rendering:auto;text-rendering:auto;enable-background:accumulate"
     d="m 241,268 120,0 0,96 -120,0 z m 0,0"
     id="path33"
     inkscape:connector-curvature="0" />
  <path
     style="fill:#3c3c3c;fill-opacity:1;fill-rule:evenodd;stroke:#3c3c3c;stroke-width:2.44784045;stroke-linecap:butt;stroke-linejoin:miter;stroke-miterlimit:10;stroke-opacity:1;color:#000000;text-decoration-line:none;text-decoration-style:solid;text-decoration-color:#000000;clip-rule:nonzero;display:inline;overflow:visible;visibility:visible;opacity:1;isolation:auto;blend_mode:normal;color-interpolation:sRGB;color-interpolation-filters:linearRGB;stroke-dasharray:none;stroke-dashoffset:0;filter-blend-mode:normal;filter-gaussianBlur-deviation:0;color-rendering:auto;image-rendering:auto;shape-rendering:auto;text-rendering:auto;enable-background:accumulate"
     d="m 528.76562,216 -10,5 2.5,-5 -2.5,-5 z m 0,0"
     id="path37"
     inkscape:connector-curvature="0" />
  <path
     style="fill:#3c3c3c;fill-opacity:1;fill-rule:evenodd;stroke:#3c3c3c;stroke-width:2.44784045;stroke-linecap:butt;stroke-linejoin:miter;stroke-miterlimit:10;stroke-opacity:1;color:#000000;text-decoration-line:none;text-decoration-style:solid;text-decoration-color:#000000;clip-rule:nonzero;display:inline;overflow:visible;visibility:visible;opacity:1;isolation:auto;blend_mode:normal;color-interpolation:sRGB;color-interpolation-filters:linearRGB;stroke-dasharray:none;stroke-dashoffset:0;filter-blend-mode:normal;filter-gaussianBlur-deviation:0;color-rendering:auto;image-rendering:auto;shape-rendering:auto;text-rendering:auto;enable-background:accumulate"
     d="m 391,258.23438 5,10 -5,-2.5 -5,2.5 z m 0,0"
     id="path41"
     inkscape:connector-curvature="0" />
  <path
     style="color:#000000;text-decoration:none;text-decoration-line:none;text-decoration-style:solid;text-decoration-color:#000000;clip-rule:nonzero;display:inline;overflow:visible;visibility:visible;opacity:1;isolation:auto;color-interpolation:sRGB;color-interpolation-filters:linearRGB;fill:#3c3c3c;fill-opacity:1;fill-rule:evenodd;stroke:#3c3c3c;stroke-width:2.44784045;stroke-linecap:butt;stroke-linejoin:miter;stroke-miterlimit:10;stroke-dasharray:none;stroke-dashoffset:0;stroke-opacity:1;color-rendering:auto;image-rendering:auto;shape-rendering:auto;text-rendering:auto;enable-background:accumulate"
     d="m 238.76557,116 -10,5 2.5,-5 -2.5,-5 z m 0,0"
     id="path47"
     inkscape:connector-curvature="0" />
  <path
     style="color:#000000;text-decoration:none;text-decoration-line:none;text-decoration-style:solid;text-decoration-color:#000000;clip-rule:nonzero;display:inline;overflow:visible;visibility:visible;opacity:1;isolation:auto;color-interpolation:sRGB;color-interpolation-filters:linearRGB;fill:#3c3c3c;fill-opacity:1;fill-rule:evenodd;stroke:#3c3c3c;stroke-width:2.44784045;stroke-linecap:butt;stroke-linejoin:miter;stroke-miterlimit:10;stroke-dasharray:none;stroke-dashoffset:0;stroke-opacity:1;color-rendering:auto;image-rendering:auto;shape-rendering:auto;text-rendering:auto;enable-background:accumulate"
     d="m 238.76557,316 -10,5 2.5,-5 -2.5,-5 z m 0,0"
     id="path51"
     inkscape:connector-curvature="0" />
  <g
     id="g4299">
    <path
       sodipodi:nodetypes="cccc"
       inkscape:connector-curvature="0"
       id="path19"
       d="m 631,216 140,0 0,-152 -30.26562,0"
       style="color:#000000;text-decoration:none;text-decoration-line:none;text-decoration-style:solid;text-decoration-color:#000000;clip-rule:nonzero;display:inline;overflow:visible;visibility:visible;opacity:1;isolation:auto;color-interpolation:sRGB;color-interpolation-filters:linearRGB;fill:none;fill-opacity:1;fill-rule:nonzero;stroke:#3c3c3c;stroke-width:4.80000019;stroke-linecap:butt;stroke-linejoin:miter;stroke-miterlimit:10;stroke-dasharray:none;stroke-dashoffset:0;stroke-opacity:1;color-rendering:auto;image-rendering:auto;shape-rendering:auto;text-rendering:auto;enable-background:accumulate" />
    <path
       sodipodi:nodetypes="ccc"
       inkscape:connector-curvature="0"
       id="path23"
       d="m 361,116 30,0 0,50.26562"
       style="color:#000000;text-decoration:none;text-decoration-line:none;text-decoration-style:solid;text-decoration-color:#000000;clip-rule:nonzero;display:inline;overflow:visible;visibility:visible;opacity:1;isolation:auto;color-interpolation:sRGB;color-interpolation-filters:linearRGB;fill:none;fill-opacity:1;fill-rule:nonzero;stroke:#3c3c3c;stroke-width:4.80000019;stroke-linecap:butt;stroke-linejoin:miter;stroke-miterlimit:10;stroke-dasharray:none;stroke-dashoffset:0;stroke-opacity:1;color-rendering:auto;image-rendering:auto;shape-rendering:auto;text-rendering:auto;enable-background:accumulate" />
    <path
       inkscape:connector-curvature="0"
       id="path27"
       d="m 383.90626,182.47266 c -9.42188,10.42578 -14.02344,24.33594 -12.6758,38.32812 C 372.58204,234.78906 379.75782,247.5664 391,256"
       style="fill:none;stroke:#3c3c3c;stroke-width:4.80000019;stroke-linecap:butt;stroke-linejoin:miter;stroke-miterlimit:10;stroke-opacity:1;color:#000000;text-decoration-line:none;text-decoration-style:solid;text-decoration-color:#000000;clip-rule:nonzero;display:inline;overflow:visible;visibility:visible;opacity:1;isolation:auto;blend_mode:normal;color-interpolation:sRGB;color-interpolation-filters:linearRGB;fill-opacity:1;fill-rule:nonzero;stroke-dasharray:none;stroke-dashoffset:0;filter-blend-mode:normal;filter-gaussianBlur-deviation:0;color-rendering:auto;image-rendering:auto;shape-rendering:auto;text-rendering:auto;enable-background:accumulate" />
    <path
       inkscape:connector-curvature="0"
       id="path31"
       d="M 431,216 391,196"
       style="fill:none;stroke:#3c3c3c;stroke-width:4.80000019;stroke-linecap:butt;stroke-linejoin:miter;stroke-miterlimit:10;stroke-opacity:1;color:#000000;text-decoration-line:none;text-decoration-style:solid;text-decoration-color:#000000;clip-rule:nonzero;display:inline;overflow:visible;visibility:visible;opacity:1;isolation:auto;blend_mode:normal;color-interpolation:sRGB;color-interpolation-filters:linearRGB;fill-opacity:1;fill-rule:nonzero;stroke-dasharray:none;stroke-dashoffset:0;filter-blend-mode:normal;filter-gaussianBlur-deviation:0;color-rendering:auto;image-rendering:auto;shape-rendering:auto;text-rendering:auto;enable-background:accumulate" />
    <path
       inkscape:connector-curvature="0"
       id="path35"
       d="m 431,216 90.26562,0"
       style="fill:none;stroke:#3c3c3c;stroke-width:4.80000019;stroke-linecap:butt;stroke-linejoin:miter;stroke-miterlimit:10;stroke-opacity:1;color:#000000;text-decoration-line:none;text-decoration-style:solid;text-decoration-color:#000000;clip-rule:nonzero;display:inline;overflow:visible;visibility:visible;opacity:1;isolation:auto;blend_mode:normal;color-interpolation:sRGB;color-interpolation-filters:linearRGB;fill-opacity:1;fill-rule:nonzero;stroke-dasharray:none;stroke-dashoffset:0;filter-blend-mode:normal;filter-gaussianBlur-deviation:0;color-rendering:auto;image-rendering:auto;shape-rendering:auto;text-rendering:auto;enable-background:accumulate" />
    <path
       sodipodi:nodetypes="ccc"
       inkscape:connector-curvature="0"
       id="path39"
       d="m 361,316 30,0 0,-50.26562"
       style="color:#000000;text-decoration:none;text-decoration-line:none;text-decoration-style:solid;text-decoration-color:#000000;clip-rule:nonzero;display:inline;overflow:visible;visibility:visible;opacity:1;isolation:auto;color-interpolation:sRGB;color-interpolation-filters:linearRGB;fill:none;fill-opacity:1;fill-rule:nonzero;stroke:#3c3c3c;stroke-width:4.80000019;stroke-linecap:butt;stroke-linejoin:miter;stroke-miterlimit:10;stroke-dasharray:none;stroke-dashoffset:0;stroke-opacity:1;color-rendering:auto;image-rendering:auto;shape-rendering:auto;text-rendering:auto;enable-background:accumulate" />
    <path
       sodipodi:nodetypes="cc"
       inkscape:connector-curvature="0"
       id="path45"
       d="m 131,116 100.2656,0"
       style="color:#000000;text-decoration:none;text-decoration-line:none;text-decoration-style:solid;text-decoration-color:#000000;clip-rule:nonzero;display:inline;overflow:visible;visibility:visible;opacity:1;isolation:auto;color-interpolation:sRGB;color-interpolation-filters:linearRGB;fill:none;fill-opacity:1;fill-rule:nonzero;stroke:#3c3c3c;stroke-width:4.80000019;stroke-linecap:butt;stroke-linejoin:miter;stroke-miterlimit:10;stroke-dasharray:none;stroke-dashoffset:0;stroke-opacity:1;color-rendering:auto;image-rendering:auto;shape-rendering:auto;text-rendering:auto;enable-background:accumulate" />
    <path
       sodipodi:nodetypes="cc"
       inkscape:connector-curvature="0"
       id="path49"
       d="m 131,316 100.2656,0"
       style="color:#000000;text-decoration:none;text-decoration-line:none;text-decoration-style:solid;text-decoration-color:#000000;clip-rule:nonzero;display:inline;overflow:visible;visibility:visible;opacity:1;isolation:auto;color-interpolation:sRGB;color-interpolation-filters:linearRGB;fill:none;fill-opacity:1;fill-rule:nonzero;stroke:#3c3c3c;stroke-width:4.80000019;stroke-linecap:butt;stroke-linejoin:miter;stroke-miterlimit:10;stroke-dasharray:none;stroke-dashoffset:0;stroke-opacity:1;color-rendering:auto;image-rendering:auto;shape-rendering:auto;text-rendering:auto;enable-background:accumulate" />
    <path
       sodipodi:nodetypes="ccccc"
       inkscape:connector-curvature="0"
       id="path53"
       d="m 171,116 0,-90 330,0 0,38 60.26562,0"
       style="color:#000000;text-decoration:none;text-decoration-line:none;text-decoration-style:solid;text-decoration-color:#000000;clip-rule:nonzero;display:inline;overflow:visible;visibility:visible;opacity:1;isolation:auto;color-interpolation:sRGB;color-interpolation-filters:linearRGB;fill:none;fill-opacity:1;fill-rule:nonzero;stroke:#3c3c3c;stroke-width:4.80000019;stroke-linecap:butt;stroke-linejoin:miter;stroke-miterlimit:10;stroke-dasharray:none;stroke-dashoffset:0;stroke-opacity:1;color-rendering:auto;image-rendering:auto;shape-rendering:auto;text-rendering:auto;enable-background:accumulate" />
  </g>
  <path
     style="color:#000000;text-decoration:none;text-decoration-line:none;text-decoration-style:solid;text-decoration-color:#000000;clip-rule:nonzero;display:inline;overflow:visible;visibility:visible;opacity:1;isolation:auto;color-interpolation:sRGB;color-interpolation-filters:linearRGB;fill:#3c3c3c;fill-opacity:1;fill-rule:evenodd;stroke:#3c3c3c;stroke-width:2.44784045;stroke-linecap:butt;stroke-linejoin:miter;stroke-miterlimit:10;stroke-dasharray:none;stroke-dashoffset:0;stroke-opacity:1;color-rendering:auto;image-rendering:auto;shape-rendering:auto;text-rendering:auto;enable-background:accumulate"
     d="m 568.76562,64.000031 -10,5 2.5,-5 -2.5,-5 z m 0,0"
     id="path55"
     inkscape:connector-curvature="0" />
  <text
     sodipodi:linespacing="125%"
     id="text4418-4"
     y="358.39999"
     x="554.84277"
     style="color:#000000;font-style:normal;font-variant:normal;font-weight:bold;font-stretch:normal;font-size:41.88481522px;line-height:125%;font-family:AgencyFB;-inkscape-font-specification:'AgencyFB Bold';text-align:center;text-decoration:none;text-decoration-line:none;text-decoration-style:solid;text-decoration-color:#000000;letter-spacing:0px;word-spacing:0px;text-anchor:middle;clip-rule:nonzero;display:inline;overflow:visible;visibility:visible;opacity:1;isolation:auto;color-interpolation:sRGB;color-interpolation-filters:linearRGB;fill:#3fb9af;fill-opacity:1;fill-rule:nonzero;stroke:none;stroke-width:0.2742857;stroke-linecap:butt;stroke-linejoin:miter;stroke-miterlimit:4;stroke-dasharray:none;stroke-dashoffset:0;stroke-opacity:1;marker:none;color-rendering:auto;image-rendering:auto;shape-rendering:auto;text-rendering:auto;enable-background:accumulate"
     xml:space="preserve"><tspan
       y="358.39999"
       x="554.84277"
       sodipodi:role="line"
       id="tspan4420-5">GAZE STABILIZER</tspan></text>
  <text
     xml:space="preserve"
     style="font-style:normal;font-variant:normal;font-weight:bold;font-stretch:normal;font-size:41.88481522px;line-height:125%;font-family:AgencyFB;-inkscape-font-specification:'AgencyFB Bold';text-align:center;letter-spacing:0px;word-spacing:0px;text-anchor:middle;fill:#ffffff;fill-opacity:1;stroke:none"
     x="650.30103"
     y="80"
     id="text4418"
     sodipodi:linespacing="125%"><tspan
       id="tspan4420"
       sodipodi:role="line"
       x="650.30103"
       y="80">ROBOT</tspan></text>
  <text
     sodipodi:linespacing="125%"
     id="text3899-8"
     y="138.40002"
     x="293.65018"
     style="font-style:normal;font-variant:normal;font-weight:bold;font-stretch:normal;font-size:41.88481522px;line-height:125%;font-family:AgencyFB;-inkscape-font-specification:'AgencyFB Bold';text-align:center;letter-spacing:0px;word-spacing:0px;text-anchor:middle;fill:#ffffff;fill-opacity:1;stroke:none"
     xml:space="preserve"><tspan
       y="138.40002"
       x="293.65018"
       sodipodi:role="line"
       id="tspan3907-1">F-K</tspan></text>
  <text
     xml:space="preserve"
     style="font-style:normal;font-variant:normal;font-weight:bold;font-stretch:normal;font-size:41.88481522px;line-height:125%;font-family:AgencyFB;-inkscape-font-specification:'AgencyFB Bold';text-align:center;letter-spacing:0px;word-spacing:0px;text-anchor:middle;fill:#ffffff;fill-opacity:1;stroke:none"
     x="293.65018"
     y="338.3999"
     id="text4282"
     sodipodi:linespacing="125%"><tspan
       id="tspan4284"
       sodipodi:role="line"
       x="293.65018"
       y="338.3999">F-K</tspan></text>
  <text
     xml:space="preserve"
     style="font-style:normal;font-variant:normal;font-weight:bold;font-stretch:normal;font-size:41.88481522px;line-height:125%;font-family:AgencyFB;-inkscape-font-specification:'AgencyFB Bold';text-align:center;letter-spacing:0px;word-spacing:0px;text-anchor:middle;fill:#ffffff;fill-opacity:1;stroke:none"
     x="580.00818"
     y="232"
     id="text4458"
     sodipodi:linespacing="125%"><tspan
       id="tspan4460"
       sodipodi:role="line"
       x="580.00818"
       y="232">I-K</tspan></text>
  <ellipse
     style="color:#000000;text-decoration:none;text-decoration-line:none;text-decoration-style:solid;text-decoration-color:#000000;clip-rule:nonzero;display:inline;overflow:visible;visibility:visible;opacity:1;isolation:auto;color-interpolation:sRGB;color-interpolation-filters:linearRGB;fill:#3c3c3c;fill-opacity:1;fill-rule:evenodd;stroke:#3c3c3c;stroke-width:2.44784045;stroke-linecap:butt;stroke-linejoin:miter;stroke-miterlimit:10;stroke-dasharray:none;stroke-dashoffset:0;stroke-opacity:1;marker:none;color-rendering:auto;image-rendering:auto;shape-rendering:auto;text-rendering:auto;enable-background:accumulate;blend_mode:normal;filter-blend-mode:normal;filter-gaussianBlur-deviation:0"
     id="path4323"
     cx="430.99997"
     cy="216"
     rx="2.7595878"
     ry="2.759588" />
  <g
     transform="translate(-9.60627,-81.083615)"
     id="g4379">
    <path
       id="path4473"
       d="m 469.76216,265.00619 0,-0.0692 0,-0.075 0,-0.0692 -0.0577,-0.075 0,-0.0692 0,-0.0692 -0.0577,-0.0692 0,-0.0692 -0.0577,-0.0635 0,-0.0692 -0.0577,-0.0634 -0.0577,-0.0577 0,-0.0634 -0.0577,-0.0577 -0.0577,-0.0577 -0.0577,-0.0519 -0.0577,-0.0519 -0.0577,-0.0519 -0.0577,-0.0461 -0.0577,-0.0461 -0.0577,-0.0404 -0.0577,-0.0404 -0.0577,-0.0346 -0.0577,-0.0288 -0.0577,-0.0288 -0.11535,-0.0288 -0.0577,-0.0231 -0.0577,-0.0173 -0.0577,-0.0115 -0.11536,-0.0115 -0.0577,-0.006 -0.11536,-0.006 c -0.92286,0 -1.49964,0.80173 -1.49964,1.52271 0,0.77864 0.63446,1.5227 1.49964,1.5227 0.98053,0 1.55732,-0.80172 1.55732,-1.5227 z"
       inkscape:connector-curvature="0"
       style="font-style:normal;font-variant:normal;font-weight:normal;font-stretch:normal;letter-spacing:normal;word-spacing:normal;text-anchor:start;fill:#3c3c3c;fill-opacity:1;fill-rule:evenodd;stroke:#3c3c3c;stroke-width:0;stroke-linecap:butt;stroke-linejoin:miter;stroke-miterlimit:10.43299961;stroke-dasharray:none;stroke-dashoffset:0;stroke-opacity:1" />
    <path
       id="path4475"
       d="m 469.41609,276.05736 3.34535,-3.74333 c 0.40374,-0.40375 0.57678,-0.59985 2.94159,-0.59985 l 0,-1.35544 c -1.03821,0.0634 -2.53785,0.0923 -2.6532,0.0923 -0.74982,0 -2.1341,-0.0634 -2.9416,-0.0923 l 0,1.35544 c 0.40375,0 0.74982,0.0634 1.09589,0.25955 -0.11536,0.17304 -0.11536,0.22495 -0.23072,0.3403 l -2.42249,2.70512 -2.82624,-3.30497 1.15357,0 0,-1.35544 c -0.74982,0.0288 -2.53786,0.0923 -3.46071,0.0923 -0.92286,0 -2.24946,-0.0634 -3.17231,-0.0923 l 0,1.35544 2.01874,0 4.49892,5.28911 -3.7491,4.22784 c -0.51911,0.5364 -1.55732,0.5364 -2.9416,0.5364 l 0,1.35544 c 1.03821,-0.0577 2.53785,-0.0923 2.65321,-0.0923 0.74982,0 2.36481,0.0634 2.9416,0.0923 l 0,-1.35544 c -0.46143,0 -1.03821,-0.1442 -1.03821,-0.31147 0,-0.0288 0,-0.0577 0.17303,-0.28839 l 2.82624,-3.12617 3.17232,3.72603 -1.15357,0 0,1.35544 c 0.74982,-0.0288 2.53785,-0.0923 3.46071,-0.0923 0.92285,0 2.19178,0.0634 3.17231,0.0923 l 0,-1.35544 -2.01875,0 z"
       inkscape:connector-curvature="0"
       style="font-style:normal;font-variant:normal;font-weight:normal;font-stretch:normal;letter-spacing:normal;word-spacing:normal;text-anchor:start;fill:#3c3c3c;fill-opacity:1;fill-rule:evenodd;stroke:#3c3c3c;stroke-width:0;stroke-linecap:butt;stroke-linejoin:miter;stroke-miterlimit:10.43299961;stroke-dasharray:none;stroke-dashoffset:0;stroke-opacity:1" />
    <path
       id="path4477"
       d="m 483.77802,281.01195 2.1341,0 c 1.55731,0 1.78803,0.24225 1.78803,0.89977 0,0.31148 0,0.34607 -0.11536,0.91132 -0.0577,0.12113 -0.0577,0.18457 -0.0577,0.23648 0,0.20765 0.11536,0.3057 0.34607,0.3057 0.23072,0 0.2884,-0.0981 0.34607,-0.46143 l 1.09589,-4.26243 c 0,-0.0634 0.0577,-0.35761 0.0577,-0.40375 0,-0.19611 -0.11535,-0.29993 -0.28839,-0.29993 -0.28839,0 -0.34607,0.12112 -0.40375,0.47874 -0.40375,1.56885 -1.03821,1.87455 -2.71088,1.87455 l -2.01875,0 1.26893,-5.04687 c 0.17303,-0.62293 0.17303,-0.68638 1.03821,-0.68638 l 3.05695,0 c 2.65321,0 3.17232,0.64023 3.17232,2.31868 0,0.65753 -0.0577,1.08435 -0.0577,1.24585 0,0.1615 0.0577,0.3403 0.34607,0.3403 0.28839,0 0.28839,-0.1788 0.34607,-0.52487 l 0.34607,-3.4953 c 0.0577,-0.60564 -0.0577,-0.60564 -0.57678,-0.60564 l -10.72819,0 c -0.34607,0 -0.63446,0 -0.63446,0.44414 0,0.27684 0.23071,0.27684 0.63446,0.27684 0,0 0.40375,0 0.74982,0.0462 0.46143,0.0404 0.46143,0.075 0.46143,0.28262 0,0.13266 -0.0577,0.34031 -0.0577,0.43836 l -2.65321,10.50901 c -0.17304,0.78442 -0.23071,0.92863 -1.78803,0.92863 -0.34607,0 -0.57679,0 -0.57679,0.42681 0,0.19611 0.11536,0.29416 0.2884,0.29416 0.57678,0 2.07642,-0.0807 2.6532,-0.0807 l 1.55732,0.0173 c 0.51911,0 1.09589,0.0635 1.615,0.0635 0.11535,0 0.46143,0 0.46143,-0.43836 0,-0.28262 -0.2884,-0.28262 -0.74982,-0.28262 0,0 -0.51911,0 -1.03822,-0.0461 -0.40375,-0.0346 -0.63446,-0.0519 -0.63446,-0.34031 0,-0.0808 0,-0.13842 0.0577,-0.36338 z"
       inkscape:connector-curvature="0"
       style="font-style:normal;font-variant:normal;font-weight:normal;font-stretch:normal;letter-spacing:normal;word-spacing:normal;text-anchor:start;fill:#3c3c3c;fill-opacity:1;fill-rule:evenodd;stroke:#3c3c3c;stroke-width:0;stroke-linecap:butt;stroke-linejoin:miter;stroke-miterlimit:10.43299961;stroke-dasharray:none;stroke-dashoffset:0;stroke-opacity:1" />
    <path
       id="path4479"
       d="m 501.48529,281.25419 0.0577,-0.64599 1.38428,-5.44484 c 0.17304,-0.62293 0.17304,-0.68639 1.03822,-0.68639 l 2.30713,0 c 1.90339,0 3.05696,0.57103 3.05696,1.99568 0,0.62292 -0.23071,2.20908 -1.26893,3.11463 -0.69214,0.64023 -1.84571,1.02091 -3.28767,1.02091 l -3.22999,0 -0.0577,0.646 3.63374,0 c 3.40303,0 6.28695,-2.16871 6.28695,-4.36049 0,-1.69575 -1.67267,-3.13771 -4.44124,-3.13771 l -7.03676,0 c -0.40375,0 -0.63447,0 -0.63447,0.44413 0,0.27685 0.23072,0.27685 0.69214,0.27685 0.2884,0 0.40375,0 0.74982,0.0462 0.40375,0.0346 0.46143,0.0807 0.46143,0.28262 0,0.0346 0,0.13266 -0.11536,0.43836 l -2.6532,10.58976 c -0.17304,0.78442 -0.23072,0.92862 -1.78804,0.92862 -0.34607,0 -0.57678,0 -0.57678,0.44412 0,0.0173 0,0.27686 0.28839,0.27686 0.57679,0 2.01875,-0.0807 2.65321,-0.0807 0.34607,0 1.03821,0 1.38428,0.0173 0.40375,0.0288 0.86518,0.0635 1.26893,0.0635 0.11535,0 0.40375,0 0.40375,-0.43836 0,-0.28262 -0.23072,-0.28262 -0.63447,-0.28262 0,0 -0.40374,0 -0.74982,-0.0461 -0.46142,-0.0346 -0.46142,-0.0981 -0.46142,-0.29416 0,-0.0173 0,-0.1442 0.0577,-0.44413 z"
       inkscape:connector-curvature="0"
       style="font-style:normal;font-variant:normal;font-weight:normal;font-stretch:normal;letter-spacing:normal;word-spacing:normal;text-anchor:start;fill:#3c3c3c;fill-opacity:1;fill-rule:evenodd;stroke:#3c3c3c;stroke-width:0;stroke-linecap:butt;stroke-linejoin:miter;stroke-miterlimit:10.43299961;stroke-dasharray:none;stroke-dashoffset:0;stroke-opacity:1" />
  </g>
  <path
     inkscape:connector-curvature="0"
     id="path4188"
     d="m 321,68 40,0 0,32 -40,0 z m 0,0"
     style="color:#000000;text-decoration:none;text-decoration-line:none;text-decoration-style:solid;text-decoration-color:#000000;clip-rule:nonzero;display:inline;overflow:visible;visibility:visible;opacity:1;isolation:auto;color-interpolation:sRGB;color-interpolation-filters:linearRGB;fill:#000000;fill-opacity:0.15686275;fill-rule:nonzero;stroke:none;stroke-width:0.2742857;stroke-linecap:butt;stroke-linejoin:miter;stroke-miterlimit:4;stroke-dasharray:none;stroke-dashoffset:0;stroke-opacity:1;marker:none;color-rendering:auto;image-rendering:auto;shape-rendering:auto;text-rendering:auto;enable-background:accumulate" />
  <text
     sodipodi:linespacing="125%"
     id="text3899-8-6"
     y="94.400002"
     x="340.7135"
     style="font-style:normal;font-variant:normal;font-weight:bold;font-stretch:normal;font-size:27.22513008px;line-height:125%;font-family:AgencyFB;-inkscape-font-specification:'AgencyFB Bold';text-align:center;letter-spacing:0px;word-spacing:0px;text-anchor:middle;fill:#ffffff;fill-opacity:1;stroke:none"
     xml:space="preserve"><tspan
       y="94.400002"
       x="340.7135"
       sodipodi:role="line"
       id="tspan3907-1-8">kFF</tspan></text>
  <g
     transform="translate(0,200)"
     id="g4214">
    <path
       inkscape:connector-curvature="0"
       id="path4208"
       d="m 321,68 40,0 0,32 -40,0 z m 0,0"
       style="color:#000000;text-decoration:none;text-decoration-line:none;text-decoration-style:solid;text-decoration-color:#000000;clip-rule:nonzero;display:inline;overflow:visible;visibility:visible;opacity:1;isolation:auto;color-interpolation:sRGB;color-interpolation-filters:linearRGB;fill:#000000;fill-opacity:0.15686275;fill-rule:nonzero;stroke:none;stroke-width:0.2742857;stroke-linecap:butt;stroke-linejoin:miter;stroke-miterlimit:4;stroke-dasharray:none;stroke-dashoffset:0;stroke-opacity:1;marker:none;color-rendering:auto;image-rendering:auto;shape-rendering:auto;text-rendering:auto;enable-background:accumulate" />
    <text
       sodipodi:linespacing="125%"
       id="text4210"
       y="94.400002"
       x="340.7135"
       style="font-style:normal;font-variant:normal;font-weight:bold;font-stretch:normal;font-size:27.22513008px;line-height:125%;font-family:AgencyFB;-inkscape-font-specification:'AgencyFB Bold';text-align:center;letter-spacing:0px;word-spacing:0px;text-anchor:middle;fill:#ffffff;fill-opacity:1;stroke:none"
       xml:space="preserve"><tspan
         y="94.400002"
         x="340.7135"
         sodipodi:role="line"
         id="tspan4212">iFB</tspan></text>
  </g>
</svg>
