<?xml version="1.0" encoding="UTF-8" standalone="no"?>
<!-- Generator: Adobe Illustrator 16.0.0, SVG Export Plug-In . SVG Version: 6.00 Build 0)  -->

<svg
   xmlns:dc="http://purl.org/dc/elements/1.1/"
   xmlns:cc="http://creativecommons.org/ns#"
   xmlns:rdf="http://www.w3.org/1999/02/22-rdf-syntax-ns#"
   xmlns:svg="http://www.w3.org/2000/svg"
   xmlns="http://www.w3.org/2000/svg"
   xmlns:sodipodi="http://sodipodi.sourceforge.net/DTD/sodipodi-0.dtd"
   xmlns:inkscape="http://www.inkscape.org/namespaces/inkscape"
   version="1.1"
   id="Layer_1"
   x="0px"
   y="0px"
   width="256"
   height="256"
   viewBox="0 0 256 256"
   enable-background="new 0 0 311 202"
   xml:space="preserve"
   inkscape:version="0.91pre2 r"
   sodipodi:docname="profile.svg"><metadata
     id="metadata13"><rdf:RDF><cc:Work
         rdf:about=""><dc:format>image/svg+xml</dc:format><dc:type
           rdf:resource="http://purl.org/dc/dcmitype/StillImage" /><dc:title></dc:title></cc:Work></rdf:RDF></metadata><defs
     id="defs11" /><sodipodi:namedview
     pagecolor="#ffffff"
     bordercolor="#666666"
     borderopacity="1"
     objecttolerance="10"
     gridtolerance="10"
     guidetolerance="10"
     inkscape:pageopacity="0"
     inkscape:pageshadow="2"
     inkscape:window-width="1375"
     inkscape:window-height="876"
     id="namedview9"
     showgrid="false"
     inkscape:zoom="0.84079413"
     inkscape:cx="308.30937"
     inkscape:cy="-50.11846"
     inkscape:window-x="1985"
     inkscape:window-y="24"
     inkscape:window-maximized="1"
     inkscape:current-layer="Layer_1"
     fit-margin-top="0"
     fit-margin-left="0"
     fit-margin-right="0"
     fit-margin-bottom="0" /><circle
     r="160"
     style="color:#000000;text-decoration:none;text-decoration-line:none;text-decoration-style:solid;text-decoration-color:#000000;clip-rule:nonzero;display:inline;overflow:visible;visibility:visible;opacity:1;isolation:auto;mix-blend-mode:normal;color-interpolation:sRGB;color-interpolation-filters:linearRGB;solid-color:#000000;solid-opacity:1;fill:#20e493;fill-opacity:1;fill-rule:nonzero;stroke:none;stroke-width:1;stroke-linecap:butt;stroke-linejoin:miter;stroke-miterlimit:4;stroke-dasharray:none;stroke-dashoffset:0;stroke-opacity:1;marker:none;color-rendering:auto;image-rendering:auto;shape-rendering:auto;text-rendering:auto;enable-background:accumulate"
     id="circle4708"
     cx="160"
     cy="496" /><circle
     cy="496"
     cx="560"
     id="circle4692"
     style="color:#000000;text-decoration:none;text-decoration-line:none;text-decoration-style:solid;text-decoration-color:#000000;clip-rule:nonzero;display:inline;overflow:visible;visibility:visible;opacity:1;isolation:auto;mix-blend-mode:normal;color-interpolation:sRGB;color-interpolation-filters:linearRGB;solid-color:#000000;solid-opacity:1;fill:#5bf9a9;fill-opacity:1;fill-rule:nonzero;stroke:none;stroke-width:1;stroke-linecap:butt;stroke-linejoin:miter;stroke-miterlimit:4;stroke-dasharray:none;stroke-dashoffset:0;stroke-opacity:1;marker:none;color-rendering:auto;image-rendering:auto;shape-rendering:auto;text-rendering:auto;enable-background:accumulate"
     r="160" /><circle
     r="160"
     style="color:#000000;text-decoration:none;text-decoration-line:none;text-decoration-style:solid;text-decoration-color:#000000;clip-rule:nonzero;display:inline;overflow:visible;visibility:visible;opacity:1;isolation:auto;mix-blend-mode:normal;color-interpolation:sRGB;color-interpolation-filters:linearRGB;solid-color:#000000;solid-opacity:1;fill:#2d9b95;fill-opacity:1;fill-rule:nonzero;stroke:none;stroke-width:1;stroke-linecap:butt;stroke-linejoin:miter;stroke-miterlimit:4;stroke-dasharray:none;stroke-dashoffset:0;stroke-opacity:1;marker:none;color-rendering:auto;image-rendering:auto;shape-rendering:auto;text-rendering:auto;enable-background:accumulate"
     id="circle4690"
     cx="560"
     cy="96" /><g
     transform="translate(-169.80031,-158.4807)"
     id="g4185"><path
       id="path4187"
       d="m 359.87725,-186.6959 a 65,65 0 0 0 -65,65 65,65 0 0 0 65,65.000008 65,65 0 0 0 65,-65.000008 65,65 0 0 0 -65,-65 z m 0,25 a 40,40 0 0 1 40,40 40,40 0 0 1 -40,40.000008 40,40 0 0 1 -40,-40.000008 40,40 0 0 1 40,-40 z"
       style="color:#000000;text-decoration:none;text-decoration-line:none;text-decoration-style:solid;text-decoration-color:#000000;clip-rule:nonzero;display:inline;overflow:visible;visibility:visible;opacity:1;isolation:auto;mix-blend-mode:normal;color-interpolation:sRGB;color-interpolation-filters:linearRGB;solid-color:#000000;solid-opacity:1;fill:#7accc8;fill-opacity:1;fill-rule:nonzero;stroke:none;stroke-width:1;stroke-linecap:butt;stroke-linejoin:miter;stroke-miterlimit:4;stroke-dasharray:none;stroke-dashoffset:0;stroke-opacity:1;marker:none;color-rendering:auto;image-rendering:auto;shape-rendering:auto;text-rendering:auto;enable-background:accumulate"
       inkscape:connector-curvature="0" /><path
       inkscape:connector-curvature="0"
       id="path4189"
       d="m 254.87683,-186.6959 a 65,65 0 0 0 -65,65 65,65 0 0 0 65,65.000008 65,65 0 0 0 65,-65.000008 65,65 0 0 0 -65,-65 z m 0,25 a 40,40 0 0 1 40,40 40,40 0 0 1 -40,40.000008 40,40 0 0 1 -40,-40.000008 40,40 0 0 1 40,-40 z"
       style="color:#000000;text-decoration:none;text-decoration-line:none;text-decoration-style:solid;text-decoration-color:#000000;clip-rule:nonzero;display:inline;overflow:visible;visibility:visible;opacity:1;isolation:auto;mix-blend-mode:normal;color-interpolation:sRGB;color-interpolation-filters:linearRGB;solid-color:#000000;solid-opacity:1;fill:#7accc8;fill-opacity:1;fill-rule:nonzero;stroke:none;stroke-width:1;stroke-linecap:butt;stroke-linejoin:miter;stroke-miterlimit:4;stroke-dasharray:none;stroke-dashoffset:0;stroke-opacity:1;marker:none;color-rendering:auto;image-rendering:auto;shape-rendering:auto;text-rendering:auto;enable-background:accumulate" /></g><path
     sodipodi:nodetypes="cccc"
     inkscape:connector-curvature="0"
     id="path4191"
     d="m 270.07652,-345.17659 -10,130 -60,-65 z"
     style="color:#000000;font-style:normal;font-variant:normal;font-weight:normal;font-stretch:normal;font-size:medium;line-height:normal;font-family:sans-serif;text-indent:0;text-align:start;text-decoration:none;text-decoration-line:none;text-decoration-style:solid;text-decoration-color:#000000;letter-spacing:normal;word-spacing:normal;text-transform:none;direction:ltr;block-progression:tb;writing-mode:lr-tb;baseline-shift:baseline;text-anchor:start;clip-rule:nonzero;display:inline;overflow:visible;visibility:visible;opacity:1;isolation:auto;mix-blend-mode:normal;color-interpolation:sRGB;color-interpolation-filters:linearRGB;solid-color:#000000;solid-opacity:1;fill:#000000;fill-opacity:1;fill-rule:evenodd;stroke:none;stroke-width:1px;stroke-linecap:butt;stroke-linejoin:miter;stroke-miterlimit:4;stroke-dasharray:none;stroke-dashoffset:0;stroke-opacity:1;color-rendering:auto;image-rendering:auto;shape-rendering:auto;text-rendering:auto;enable-background:accumulate" /><g
     id="g4223"
     transform="scale(0.8,0.8)"><circle
       r="160"
       style="color:#000000;text-decoration:none;text-decoration-line:none;text-decoration-style:solid;text-decoration-color:#000000;clip-rule:nonzero;display:inline;overflow:visible;visibility:visible;opacity:1;isolation:auto;mix-blend-mode:normal;color-interpolation:sRGB;color-interpolation-filters:linearRGB;solid-color:#000000;solid-opacity:1;fill:#5dc5bf;fill-opacity:1;fill-rule:nonzero;stroke:none;stroke-width:1;stroke-linecap:butt;stroke-linejoin:miter;stroke-miterlimit:4;stroke-dasharray:none;stroke-dashoffset:0;stroke-opacity:1;marker:none;color-rendering:auto;image-rendering:auto;shape-rendering:auto;text-rendering:auto;enable-background:accumulate"
       id="circle4688"
       cx="160"
       cy="160"
       d="M 320,160 A 160,160 0 0 1 160,320 160,160 0 0 1 0,160 160,160 0 0 1 160,0 160,160 0 0 1 320,160 Z" /><g
       transform="translate(-7.500208,73)"
       id="g4386"><g
         id="g4380"
         transform="translate(-139.87683,208.69589)"
         style="fill:#ffffff"><path
           sodipodi:nodetypes="cccccccccccc"
           inkscape:connector-curvature="0"
           id="path4382"
           transform="translate(157.37704,-271.69589)"
           d="M 47.664062,108.36719 C 37.889433,120.04052 32.522747,134.77471 32.5,150 l 25,0 c 0.0166,-8.91842 3.013197,-17.5755 8.513672,-24.5957 z m 206.777438,2.68759 -18.43555,17.11914 c 4.23366,6.49253 6.48981,14.07525 6.49414,21.82617 -0.0172,8.60737 -2.81049,16.97959 -7.96484,23.87305 l 17.11523,18.54101 C 261.84623,180.63258 267.47094,165.58068 267.5,150 c -1.59034,-14.93321 -5.61287,-28.79067 -13.0585,-38.94522 z"
           style="color:#000000;text-decoration:none;text-decoration-line:none;text-decoration-style:solid;text-decoration-color:#000000;clip-rule:nonzero;display:inline;overflow:visible;visibility:visible;opacity:0.4;isolation:auto;mix-blend-mode:normal;color-interpolation:sRGB;color-interpolation-filters:linearRGB;solid-color:#000000;solid-opacity:1;fill:#ffffff;fill-opacity:1;fill-rule:nonzero;stroke:none;stroke-width:1;stroke-linecap:butt;stroke-linejoin:miter;stroke-miterlimit:4;stroke-dasharray:none;stroke-dashoffset:0;stroke-opacity:1;marker:none;color-rendering:auto;image-rendering:auto;shape-rendering:auto;text-rendering:auto;enable-background:accumulate" /></g><g
         id="g4374"><path
           style="color:#000000;text-decoration:none;text-decoration-line:none;text-decoration-style:solid;text-decoration-color:#000000;clip-rule:nonzero;display:inline;overflow:visible;visibility:visible;opacity:0.85;isolation:auto;mix-blend-mode:normal;color-interpolation:sRGB;color-interpolation-filters:linearRGB;solid-color:#000000;solid-opacity:1;fill:#ffffff;fill-opacity:1;fill-rule:nonzero;stroke:none;stroke-width:1;stroke-linecap:butt;stroke-linejoin:miter;stroke-miterlimit:4;stroke-dasharray:none;stroke-dashoffset:0;stroke-opacity:1;marker:none;color-rendering:auto;image-rendering:auto;shape-rendering:auto;text-rendering:auto;enable-background:accumulate"
           d="m 220,22 a 65,65 0 0 0 -65,65 65,65 0 0 0 65,65 65,65 0 0 0 49.15039,-22.58594 L 252.03516,110.87305 A 40,40 0 0 1 220,127 40,40 0 0 1 180,87 40,40 0 0 1 220,47 40,40 0 0 1 253.50586,65.17383 L 271.94141,48.05469 A 65,65 0 0 0 220,22 Z"
           id="path4160"
           inkscape:connector-curvature="0" /><path
           inkscape:connector-curvature="0"
           id="path4201"
           transform="translate(17.500208,-63.000001)"
           d="m 97.5,85 c -19.252834,0.02403 -37.50441,8.581869 -49.835938,23.36719 l 18.34961,17.03711 C 73.580696,115.69942 85.19374,110.01789 97.5,110 c 22.09139,0 40,17.90861 40,40 l -105,0 c 0,35.89851 29.101491,65 65,65 21.57095,0 40.67655,-10.5155 52.5,-26.69141 4.7099,6.43745 10.57425,11.97694 17.28906,16.31446 l 10.64649,-23.06641 C 168.5455,174.23691 162.5,162.82832 162.5,150 c 0,-35.89851 -29.10149,-65 -65,-65 z m -31.214844,90 62.392574,0 C 121.09692,184.46844 109.6293,189.98566 97.5,190 85.35769,189.997 73.874102,184.47859 66.285156,175 Z"
           style="color:#000000;text-decoration:none;text-decoration-line:none;text-decoration-style:solid;text-decoration-color:#000000;clip-rule:nonzero;display:inline;overflow:visible;visibility:visible;opacity:1;isolation:auto;mix-blend-mode:normal;color-interpolation:sRGB;color-interpolation-filters:linearRGB;solid-color:#000000;solid-opacity:1;fill:#ffffff;fill-opacity:1;fill-rule:nonzero;stroke:none;stroke-width:1;stroke-linecap:butt;stroke-linejoin:miter;stroke-miterlimit:4;stroke-dasharray:none;stroke-dashoffset:0;stroke-opacity:1;marker:none;color-rendering:auto;image-rendering:auto;shape-rendering:auto;text-rendering:auto;enable-background:accumulate" /></g></g></g><g
     transform="translate(392.49979,-405.62913)"
     id="g4430"><g
       id="g4432"
       transform="translate(-139.87683,208.69589)"
       style="fill:#ffffff"><path
         id="path4434"
         transform="translate(157.37704,-271.69589)"
         d="m 97.5,85 a 65,65 0 0 0 -65,65 65,65 0 0 0 65,65 65,65 0 0 0 52.49219,-26.80078 A 65,65 0 0 0 202.5,215 a 65,65 0 0 0 65,-65 65,65 0 0 0 -65,-65 65,65 0 0 0 -52.49219,26.80078 A 65,65 0 0 0 97.5,85 Z m 0,25 a 40,40 0 0 1 40,40 40,40 0 0 1 -40,40 40,40 0 0 1 -40,-40 40,40 0 0 1 40,-40 z m 105,0 a 40,40 0 0 1 40,40 40,40 0 0 1 -40,40 40,40 0 0 1 -40,-40 40,40 0 0 1 40,-40 z"
         style="color:#000000;text-decoration:none;text-decoration-line:none;text-decoration-style:solid;text-decoration-color:#000000;clip-rule:nonzero;display:inline;overflow:visible;visibility:visible;opacity:0.9;isolation:auto;mix-blend-mode:normal;color-interpolation:sRGB;color-interpolation-filters:linearRGB;solid-color:#000000;solid-opacity:1;fill:#ffffff;fill-opacity:1;fill-rule:nonzero;stroke:none;stroke-width:1;stroke-linecap:butt;stroke-linejoin:miter;stroke-miterlimit:4;stroke-dasharray:none;stroke-dashoffset:0;stroke-opacity:1;marker:none;color-rendering:auto;image-rendering:auto;shape-rendering:auto;text-rendering:auto;enable-background:accumulate"
         inkscape:connector-curvature="0" /></g><g
       id="g4436"><path
         style="color:#000000;text-decoration:none;text-decoration-line:none;text-decoration-style:solid;text-decoration-color:#000000;clip-rule:nonzero;display:inline;overflow:visible;visibility:visible;opacity:1;isolation:auto;mix-blend-mode:normal;color-interpolation:sRGB;color-interpolation-filters:linearRGB;solid-color:#000000;solid-opacity:1;fill:#7accc8;fill-opacity:1;fill-rule:nonzero;stroke:none;stroke-width:1;stroke-linecap:butt;stroke-linejoin:miter;stroke-miterlimit:4;stroke-dasharray:none;stroke-dashoffset:0;stroke-opacity:1;marker:none;color-rendering:auto;image-rendering:auto;shape-rendering:auto;text-rendering:auto;enable-background:accumulate"
         d="m 220,22 a 65,65 0 0 0 -65,65 65,65 0 0 0 65,65 65,65 0 0 0 49.15039,-22.58594 L 252.03516,110.87305 A 40,40 0 0 1 220,127 40,40 0 0 1 180,87 40,40 0 0 1 220,47 40,40 0 0 1 253.50586,65.17383 L 271.94141,48.05469 A 65,65 0 0 0 220,22 Z"
         id="path4438"
         inkscape:connector-curvature="0" /><path
         sodipodi:nodetypes="ccccsccsc"
         inkscape:connector-curvature="0"
         id="path4440"
         d="M 115,22 C 95.747166,22.02403 77.495589,30.58187 65.164062,45.367188 l 18.34961,17.037109 C 91.080696,52.699425 102.69374,47.017887 115,47 c 22.09139,0 40,17.90861 40,40 0,22.91755 11.87149,43.04898 29.78906,54.62305 l 10.64649,-23.06641 C 186.0455,111.23691 180,99.828319 180,87 180,51.101491 150.89851,22 115,22 Z"
         style="color:#000000;text-decoration:none;text-decoration-line:none;text-decoration-style:solid;text-decoration-color:#000000;clip-rule:nonzero;display:inline;overflow:visible;visibility:visible;opacity:1;isolation:auto;mix-blend-mode:normal;color-interpolation:sRGB;color-interpolation-filters:linearRGB;solid-color:#000000;solid-opacity:1;fill:#5bf9a9;fill-opacity:1;fill-rule:nonzero;stroke:none;stroke-width:1;stroke-linecap:butt;stroke-linejoin:miter;stroke-miterlimit:4;stroke-dasharray:none;stroke-dashoffset:0;stroke-opacity:1;marker:none;color-rendering:auto;image-rendering:auto;shape-rendering:auto;text-rendering:auto;enable-background:accumulate" /><path
         sodipodi:nodetypes="cscccccc"
         inkscape:connector-curvature="0"
         id="path4442"
         d="m 50,87 c 0,35.89851 29.101491,65 65,65 35.89851,0 65,-29.10149 65,-65 -43.33333,0 -86.666667,0 -130,0 z m 33.785156,25 62.392574,0 C 138.59692,121.46844 127.1293,126.98566 115,127 102.85769,126.997 91.374102,121.47859 83.785156,112 Z"
         style="color:#000000;text-decoration:none;text-decoration-line:none;text-decoration-style:solid;text-decoration-color:#000000;clip-rule:nonzero;display:inline;overflow:visible;visibility:visible;opacity:1;isolation:auto;mix-blend-mode:normal;color-interpolation:sRGB;color-interpolation-filters:linearRGB;solid-color:#000000;solid-opacity:1;fill:#5bf9a9;fill-opacity:1;fill-rule:nonzero;stroke:none;stroke-width:1;stroke-linecap:butt;stroke-linejoin:miter;stroke-miterlimit:4;stroke-dasharray:none;stroke-dashoffset:0;stroke-opacity:1;marker:none;color-rendering:auto;image-rendering:auto;shape-rendering:auto;text-rendering:auto;enable-background:accumulate" /></g></g><g
     transform="translate(-7.500208,409)"
     id="g4460"><g
       id="g4462"
       transform="translate(-139.87683,208.69589)"
       style="fill:#ffffff"><path
         sodipodi:nodetypes="cccccccccccc"
         inkscape:connector-curvature="0"
         id="path4464"
         transform="translate(157.37704,-271.69589)"
         d="M 47.664062,108.36719 C 37.889433,120.04052 32.522747,134.77471 32.5,150 l 25,0 c 0.0166,-8.91842 3.013197,-17.5755 8.513672,-24.5957 z m 206.777438,2.68759 -18.43555,17.11914 c 4.23366,6.49253 6.48981,14.07525 6.49414,21.82617 -0.0172,8.60737 -2.81049,16.97959 -7.96484,23.87305 l 17.11523,18.54101 C 261.84623,180.63258 267.47094,165.58068 267.5,150 c -1.59034,-14.93321 -5.61287,-28.79067 -13.0585,-38.94522 z"
         style="color:#000000;text-decoration:none;text-decoration-line:none;text-decoration-style:solid;text-decoration-color:#000000;clip-rule:nonzero;display:inline;overflow:visible;visibility:visible;opacity:0.4;isolation:auto;mix-blend-mode:normal;color-interpolation:sRGB;color-interpolation-filters:linearRGB;solid-color:#000000;solid-opacity:1;fill:#ffffff;fill-opacity:1;fill-rule:nonzero;stroke:none;stroke-width:1;stroke-linecap:butt;stroke-linejoin:miter;stroke-miterlimit:4;stroke-dasharray:none;stroke-dashoffset:0;stroke-opacity:1;marker:none;color-rendering:auto;image-rendering:auto;shape-rendering:auto;text-rendering:auto;enable-background:accumulate" /></g><g
       id="g4466"><path
         style="color:#000000;text-decoration:none;text-decoration-line:none;text-decoration-style:solid;text-decoration-color:#000000;clip-rule:nonzero;display:inline;overflow:visible;visibility:visible;opacity:0.75;isolation:auto;mix-blend-mode:normal;color-interpolation:sRGB;color-interpolation-filters:linearRGB;solid-color:#000000;solid-opacity:1;fill:#ffffff;fill-opacity:1;fill-rule:nonzero;stroke:none;stroke-width:1;stroke-linecap:butt;stroke-linejoin:miter;stroke-miterlimit:4;stroke-dasharray:none;stroke-dashoffset:0;stroke-opacity:1;marker:none;color-rendering:auto;image-rendering:auto;shape-rendering:auto;text-rendering:auto;enable-background:accumulate"
         d="m 220,22 a 65,65 0 0 0 -65,65 65,65 0 0 0 65,65 65,65 0 0 0 49.15039,-22.58594 L 252.03516,110.87305 A 40,40 0 0 1 220,127 40,40 0 0 1 180,87 40,40 0 0 1 220,47 40,40 0 0 1 253.50586,65.17383 L 271.94141,48.05469 A 65,65 0 0 0 220,22 Z"
         id="path4468"
         inkscape:connector-curvature="0" /><path
         id="path4470"
         transform="translate(17.500208,-63.000001)"
         d="m 97.5,85 c -19.252834,0.02403 -37.50441,8.581869 -49.835938,23.36719 l 18.34961,17.03711 C 73.580696,115.69942 85.19374,110.01789 97.5,110 c 22.09139,0 40,17.90861 40,40 l -105,0 c 0,35.89851 29.101491,65 65,65 21.57095,0 40.67655,-10.5155 52.5,-26.69141 4.7099,6.43745 10.57425,11.97694 17.28906,16.31446 l 10.64649,-23.06641 C 168.5455,174.23691 162.5,162.82832 162.5,150 c 0,-35.89851 -29.10149,-65 -65,-65 z m -31.214844,90 62.392574,0 C 121.09692,184.46844 109.6293,189.98566 97.5,190 85.35769,189.997 73.874102,184.47859 66.285156,175 Z"
         style="color:#000000;text-decoration:none;text-decoration-line:none;text-decoration-style:solid;text-decoration-color:#000000;clip-rule:nonzero;display:inline;overflow:visible;visibility:visible;opacity:1;isolation:auto;mix-blend-mode:normal;color-interpolation:sRGB;color-interpolation-filters:linearRGB;solid-color:#000000;solid-opacity:1;fill:#ffffff;fill-opacity:1;fill-rule:nonzero;stroke:none;stroke-width:1;stroke-linecap:butt;stroke-linejoin:miter;stroke-miterlimit:4;stroke-dasharray:none;stroke-dashoffset:0;stroke-opacity:1;marker:none;color-rendering:auto;image-rendering:auto;shape-rendering:auto;text-rendering:auto;enable-background:accumulate"
         inkscape:connector-curvature="0" /></g></g><g
     transform="translate(392.49979,9)"
     id="g4500"><g
       id="g4502"
       transform="translate(-139.87683,208.69589)"
       style="fill:#ffffff"><path
         sodipodi:nodetypes="cccccccccccc"
         inkscape:connector-curvature="0"
         id="path4504"
         transform="translate(157.37704,-271.69589)"
         d="M 47.664062,108.36719 C 37.889433,120.04052 32.522747,134.77471 32.5,150 l 25,0 c 0.0166,-8.91842 3.013197,-17.5755 8.513672,-24.5957 z m 206.777438,2.68759 -18.43555,17.11914 c 4.23366,6.49253 6.48981,14.07525 6.49414,21.82617 -0.0172,8.60737 -2.81049,16.97959 -7.96484,23.87305 l 17.11523,18.54101 C 261.84623,180.63258 267.47094,165.58068 267.5,150 c -1.59034,-14.93321 -5.61287,-28.79067 -13.0585,-38.94522 z"
         style="color:#000000;text-decoration:none;text-decoration-line:none;text-decoration-style:solid;text-decoration-color:#000000;clip-rule:nonzero;display:inline;overflow:visible;visibility:visible;opacity:0.4;isolation:auto;mix-blend-mode:normal;color-interpolation:sRGB;color-interpolation-filters:linearRGB;solid-color:#000000;solid-opacity:1;fill:#ffffff;fill-opacity:1;fill-rule:nonzero;stroke:none;stroke-width:1;stroke-linecap:butt;stroke-linejoin:miter;stroke-miterlimit:4;stroke-dasharray:none;stroke-dashoffset:0;stroke-opacity:1;marker:none;color-rendering:auto;image-rendering:auto;shape-rendering:auto;text-rendering:auto;enable-background:accumulate" /></g><g
       id="g4506"><path
         style="color:#000000;text-decoration:none;text-decoration-line:none;text-decoration-style:solid;text-decoration-color:#000000;clip-rule:nonzero;display:inline;overflow:visible;visibility:visible;opacity:1;isolation:auto;mix-blend-mode:normal;color-interpolation:sRGB;color-interpolation-filters:linearRGB;solid-color:#000000;solid-opacity:1;fill:#ffffff;fill-opacity:1;fill-rule:nonzero;stroke:none;stroke-width:1;stroke-linecap:butt;stroke-linejoin:miter;stroke-miterlimit:4;stroke-dasharray:none;stroke-dashoffset:0;stroke-opacity:1;marker:none;color-rendering:auto;image-rendering:auto;shape-rendering:auto;text-rendering:auto;enable-background:accumulate"
         d="m 220,22 a 65,65 0 0 0 -65,65 65,65 0 0 0 65,65 65,65 0 0 0 49.15039,-22.58594 L 252.03516,110.87305 A 40,40 0 0 1 220,127 40,40 0 0 1 180,87 40,40 0 0 1 220,47 40,40 0 0 1 253.50586,65.17383 L 271.94141,48.05469 A 65,65 0 0 0 220,22 Z"
         id="path4508"
         inkscape:connector-curvature="0" /><path
         id="path4510"
         transform="translate(17.500208,-63.000001)"
         d="m 97.5,85 c -19.252834,0.02403 -37.50441,8.581869 -49.835938,23.36719 l 18.34961,17.03711 C 73.580696,115.69942 85.19374,110.01789 97.5,110 c 22.09139,0 40,17.90861 40,40 l -105,0 c 0,35.89851 29.101491,65 65,65 21.57095,0 40.67655,-10.5155 52.5,-26.69141 4.7099,6.43745 10.57425,11.97694 17.28906,16.31446 l 10.64649,-23.06641 C 168.5455,174.23691 162.5,162.82832 162.5,150 c 0,-35.89851 -29.10149,-65 -65,-65 z m -31.214844,90 62.392574,0 C 121.09692,184.46844 109.6293,189.98566 97.5,190 85.35769,189.997 73.874102,184.47859 66.285156,175 Z"
         style="color:#000000;text-decoration:none;text-decoration-line:none;text-decoration-style:solid;text-decoration-color:#000000;clip-rule:nonzero;display:inline;overflow:visible;visibility:visible;opacity:1;isolation:auto;mix-blend-mode:normal;color-interpolation:sRGB;color-interpolation-filters:linearRGB;solid-color:#000000;solid-opacity:1;fill:#5bf9a9;fill-opacity:1;fill-rule:nonzero;stroke:none;stroke-width:1;stroke-linecap:butt;stroke-linejoin:miter;stroke-miterlimit:4;stroke-dasharray:none;stroke-dashoffset:0;stroke-opacity:1;marker:none;color-rendering:auto;image-rendering:auto;shape-rendering:auto;text-rendering:auto;enable-background:accumulate"
         inkscape:connector-curvature="0" /></g></g><g
     id="g4542"
     transform="translate(392.49979,409)"><g
       style="fill:#ffffff"
       transform="translate(-139.87683,208.69589)"
       id="g4544"><path
         style="color:#000000;text-decoration:none;text-decoration-line:none;text-decoration-style:solid;text-decoration-color:#000000;clip-rule:nonzero;display:inline;overflow:visible;visibility:visible;opacity:0.4;isolation:auto;mix-blend-mode:normal;color-interpolation:sRGB;color-interpolation-filters:linearRGB;solid-color:#000000;solid-opacity:1;fill:#ffffff;fill-opacity:1;fill-rule:nonzero;stroke:none;stroke-width:1;stroke-linecap:butt;stroke-linejoin:miter;stroke-miterlimit:4;stroke-dasharray:none;stroke-dashoffset:0;stroke-opacity:1;marker:none;color-rendering:auto;image-rendering:auto;shape-rendering:auto;text-rendering:auto;enable-background:accumulate"
         d="M 47.664062,108.36719 C 37.889433,120.04052 32.522747,134.77471 32.5,150 l 25,0 c 0.0166,-8.91842 3.013197,-17.5755 8.513672,-24.5957 z m 206.777438,2.68759 -18.43555,17.11914 c 4.23366,6.49253 6.48981,14.07525 6.49414,21.82617 -0.0172,8.60737 -2.81049,16.97959 -7.96484,23.87305 l 17.11523,18.54101 C 261.84623,180.63258 267.47094,165.58068 267.5,150 c -1.59034,-14.93321 -5.61287,-28.79067 -13.0585,-38.94522 z"
         transform="translate(157.37704,-271.69589)"
         id="path4546"
         inkscape:connector-curvature="0"
         sodipodi:nodetypes="cccccccccccc" /></g><g
       id="g4548"><path
         inkscape:connector-curvature="0"
         id="path4550"
         d="m 220,22 a 65,65 0 0 0 -65,65 65,65 0 0 0 65,65 65,65 0 0 0 49.15039,-22.58594 L 252.03516,110.87305 A 40,40 0 0 1 220,127 40,40 0 0 1 180,87 40,40 0 0 1 220,47 40,40 0 0 1 253.50586,65.17383 L 271.94141,48.05469 A 65,65 0 0 0 220,22 Z"
         style="color:#000000;text-decoration:none;text-decoration-line:none;text-decoration-style:solid;text-decoration-color:#000000;clip-rule:nonzero;display:inline;overflow:visible;visibility:visible;opacity:1;isolation:auto;mix-blend-mode:normal;color-interpolation:sRGB;color-interpolation-filters:linearRGB;solid-color:#000000;solid-opacity:1;fill:#5dc5bf;fill-opacity:1;fill-rule:nonzero;stroke:none;stroke-width:1;stroke-linecap:butt;stroke-linejoin:miter;stroke-miterlimit:4;stroke-dasharray:none;stroke-dashoffset:0;stroke-opacity:1;marker:none;color-rendering:auto;image-rendering:auto;shape-rendering:auto;text-rendering:auto;enable-background:accumulate" /><path
         inkscape:connector-curvature="0"
         style="color:#000000;text-decoration:none;text-decoration-line:none;text-decoration-style:solid;text-decoration-color:#000000;clip-rule:nonzero;display:inline;overflow:visible;visibility:visible;opacity:1;isolation:auto;mix-blend-mode:normal;color-interpolation:sRGB;color-interpolation-filters:linearRGB;solid-color:#000000;solid-opacity:1;fill:#ffffff;fill-opacity:1;fill-rule:nonzero;stroke:none;stroke-width:1;stroke-linecap:butt;stroke-linejoin:miter;stroke-miterlimit:4;stroke-dasharray:none;stroke-dashoffset:0;stroke-opacity:1;marker:none;color-rendering:auto;image-rendering:auto;shape-rendering:auto;text-rendering:auto;enable-background:accumulate"
         d="m 97.5,85 c -19.252834,0.02403 -37.50441,8.581869 -49.835938,23.36719 l 18.34961,17.03711 C 73.580696,115.69942 85.19374,110.01789 97.5,110 c 22.09139,0 40,17.90861 40,40 l -105,0 c 0,35.89851 29.101491,65 65,65 21.57095,0 40.67655,-10.5155 52.5,-26.69141 4.7099,6.43745 10.57425,11.97694 17.28906,16.31446 l 10.64649,-23.06641 C 168.5455,174.23691 162.5,162.82832 162.5,150 c 0,-35.89851 -29.10149,-65 -65,-65 z m -31.214844,90 62.392574,0 C 121.09692,184.46844 109.6293,189.98566 97.5,190 85.35769,189.997 73.874102,184.47859 66.285156,175 Z"
         transform="translate(17.500208,-63.000001)"
         id="path4552" /></g></g></svg>