<svg class="logo-svg" xmlns:rdf="http://www.w3.org/1999/02/22-rdf-syntax-ns#" xmlns="http://www.w3.org/2000/svg" version="1.1" xml:space="preserve" height="256" width="256" enable-background="new 0 0 311 202" y="0px" x="0px" xmlns:cc="http://creativecommons.org/ns#" xmlns:dc="http://purl.org/dc/elements/1.1/" viewBox="0 0 256 256"><metadata><rdf:RDF><cc:Work rdf:about=""><dc:format>image/svg+xml</dc:format><dc:type rdf:resource="http://purl.org/dc/dcmitype/StillImage"/><dc:title/></cc:Work></rdf:RDF></metadata><g fill="#fff"><path opacity=".15" style="color-rendering:auto;text-decoration-color:#000000;color:#000000;isolation:auto;mix-blend-mode:normal;shape-rendering:auto;solid-color:#000000;text-decoration-line:none;image-rendering:auto;enable-background:accumulate;text-decoration-style:solid" d="m241.77 85.575-20.083 18.646c4.6125 7.0735 7.0703 15.335 7.0745 23.779-0.0187 9.3761-3.0612 18.496-8.6756 26.005l18.646 20.2c11.1-12.83 17.23-29.23 17.26-46.2-0.03-15.31-5.02-30.193-14.23-42.425z" class="logo-svg-l"/><path style="color-rendering:auto;text-decoration-color:#000000;color:#000000;isolation:auto;mix-blend-mode:normal;shape-rendering:auto;solid-color:#000000;text-decoration-line:none;image-rendering:auto;enable-background:accumulate;text-decoration-style:solid" d="m70.809 57.192a70.809 70.809 0 0 0 -70.809 70.808 70.809 70.809 0 0 0 70.809 70.81 70.809 70.809 0 0 0 57.202 -29.224 70.809 70.809 0 0 0 18.143 17.434l11.894-24.941a43.575 43.575 0 0 1 -16.43 -34.079 70.809 70.809 0 0 0 0 -0.003 70.809 70.809 0 0 0 -70.809 -70.807zm0 27.234a43.575 43.575 0 0 1 43.575 43.573 43.575 43.575 0 0 1 0 0.003 43.575 43.575 0 0 1 -43.571 43.58 43.575 43.575 0 0 1 -43.575 -43.58 43.575 43.575 0 0 1 43.575 -43.574z" class="logo-svg-a"/><path opacity=".5" style="color-rendering:auto;text-decoration-color:#000000;color:#000000;isolation:auto;mix-blend-mode:normal;shape-rendering:auto;solid-color:#000000;text-decoration-line:none;image-rendering:auto;enable-background:accumulate;text-decoration-style:solid" d="m185.19 57.192a70.809 70.809 0 0 0 -70.809 70.809 70.809 70.809 0 0 0 70.809 70.809 70.809 70.809 0 0 0 53.545 -24.604l-18.65-20.21a43.575 43.575 0 0 1 -34.9 17.57 43.575 43.575 0 0 1 -43.57 -43.57 43.575 43.575 0 0 1 43.57 -43.574 43.575 43.575 0 0 1 36.5 19.794l20.09-18.648a70.809 70.809 0 0 0 -56.59 -28.38z" class="logo-svg-c" onmouseover=""/></g></svg>
