<?xml version="1.0" encoding="UTF-8" standalone="no"?>
<!-- Generator: Adobe Illustrator 16.0.0, SVG Export Plug-In . SVG Version: 6.00 Build 0)  -->

<svg
   xmlns:dc="http://purl.org/dc/elements/1.1/"
   xmlns:cc="http://creativecommons.org/ns#"
   xmlns:rdf="http://www.w3.org/1999/02/22-rdf-syntax-ns#"
   xmlns:svg="http://www.w3.org/2000/svg"
   xmlns="http://www.w3.org/2000/svg"
   xmlns:sodipodi="http://sodipodi.sourceforge.net/DTD/sodipodi-0.dtd"
   xmlns:inkscape="http://www.inkscape.org/namespaces/inkscape"
   version="1.1"
   id="Layer_1"
   x="0px"
   y="0px"
   width="256"
   height="256"
   viewBox="0 0 256 256"
   enable-background="new 0 0 311 202"
   xml:space="preserve"
   inkscape:version="0.91+devel r"
   sodipodi:docname="profile_transparent.svg"><metadata
     id="metadata13"><rdf:RDF><cc:Work
         rdf:about=""><dc:format>image/svg+xml</dc:format><dc:type
           rdf:resource="http://purl.org/dc/dcmitype/StillImage" /><dc:title /></cc:Work></rdf:RDF></metadata><defs
     id="defs11" /><sodipodi:namedview
     pagecolor="#ffffff"
     bordercolor="#666666"
     borderopacity="1"
     objecttolerance="10"
     gridtolerance="10"
     guidetolerance="10"
     inkscape:pageopacity="0"
     inkscape:pageshadow="2"
     inkscape:window-width="1375"
     inkscape:window-height="876"
     id="namedview9"
     showgrid="false"
     inkscape:zoom="1.4230759"
     inkscape:cx="-10.827904"
     inkscape:cy="126.6123"
     inkscape:window-x="1985"
     inkscape:window-y="24"
     inkscape:window-maximized="1"
     inkscape:current-layer="Layer_1"
     fit-margin-top="0"
     fit-margin-left="0"
     fit-margin-right="0"
     fit-margin-bottom="0" /><circle
     r="160"
     style="color:#000000;text-decoration:none;text-decoration-line:none;text-decoration-style:solid;text-decoration-color:#000000;clip-rule:nonzero;display:inline;overflow:visible;visibility:visible;opacity:1;isolation:auto;mix-blend-mode:normal;color-interpolation:sRGB;color-interpolation-filters:linearRGB;solid-color:#000000;solid-opacity:1;fill:#20e493;fill-opacity:1;fill-rule:nonzero;stroke:none;stroke-width:1;stroke-linecap:butt;stroke-linejoin:miter;stroke-miterlimit:4;stroke-dasharray:none;stroke-dashoffset:0;stroke-opacity:1;marker:none;color-rendering:auto;image-rendering:auto;shape-rendering:auto;text-rendering:auto;enable-background:accumulate"
     id="circle4708"
     cx="160"
     cy="496" /><circle
     cy="496"
     cx="560"
     id="circle4692"
     style="color:#000000;text-decoration:none;text-decoration-line:none;text-decoration-style:solid;text-decoration-color:#000000;clip-rule:nonzero;display:inline;overflow:visible;visibility:visible;opacity:1;isolation:auto;mix-blend-mode:normal;color-interpolation:sRGB;color-interpolation-filters:linearRGB;solid-color:#000000;solid-opacity:1;fill:#5bf9a9;fill-opacity:1;fill-rule:nonzero;stroke:none;stroke-width:1;stroke-linecap:butt;stroke-linejoin:miter;stroke-miterlimit:4;stroke-dasharray:none;stroke-dashoffset:0;stroke-opacity:1;marker:none;color-rendering:auto;image-rendering:auto;shape-rendering:auto;text-rendering:auto;enable-background:accumulate"
     r="160" /><circle
     r="160"
     style="color:#000000;text-decoration:none;text-decoration-line:none;text-decoration-style:solid;text-decoration-color:#000000;clip-rule:nonzero;display:inline;overflow:visible;visibility:visible;opacity:1;isolation:auto;mix-blend-mode:normal;color-interpolation:sRGB;color-interpolation-filters:linearRGB;solid-color:#000000;solid-opacity:1;fill:#2d9b95;fill-opacity:1;fill-rule:nonzero;stroke:none;stroke-width:1;stroke-linecap:butt;stroke-linejoin:miter;stroke-miterlimit:4;stroke-dasharray:none;stroke-dashoffset:0;stroke-opacity:1;marker:none;color-rendering:auto;image-rendering:auto;shape-rendering:auto;text-rendering:auto;enable-background:accumulate"
     id="circle4690"
     cx="560"
     cy="96" /><path
     inkscape:connector-curvature="0"
     style="color:#000000;text-decoration:none;text-decoration-line:none;text-decoration-style:solid;text-decoration-color:#000000;clip-rule:nonzero;display:inline;overflow:visible;visibility:visible;opacity:1;isolation:auto;mix-blend-mode:normal;color-interpolation:sRGB;color-interpolation-filters:linearRGB;solid-color:#000000;solid-opacity:1;fill:#7accc8;fill-opacity:1;fill-rule:nonzero;stroke:none;stroke-width:1;stroke-linecap:butt;stroke-linejoin:miter;stroke-miterlimit:4;stroke-dasharray:none;stroke-dashoffset:0;stroke-opacity:1;marker:none;color-rendering:auto;image-rendering:auto;shape-rendering:auto;text-rendering:auto;enable-background:accumulate"
     d="m 190.07694,-345.1766 a 65,65 0 0 0 -65,65 65,65 0 0 0 65,65.00001 65,65 0 0 0 65,-65.00001 65,65 0 0 0 -65,-65 z m 0,25 a 40,40 0 0 1 40,40 40,40 0 0 1 -40,40.00001 40,40 0 0 1 -40,-40.00001 40,40 0 0 1 40,-40 z"
     id="path4187" /><path
     sodipodi:nodetypes="cccc"
     inkscape:connector-curvature="0"
     id="path4191"
     d="m 270.07652,-345.17659 -10,130 -60,-65 z"
     style="color:#000000;font-style:normal;font-variant:normal;font-weight:normal;font-stretch:normal;font-size:medium;line-height:normal;font-family:sans-serif;text-indent:0;text-align:start;text-decoration:none;text-decoration-line:none;text-decoration-style:solid;text-decoration-color:#000000;letter-spacing:normal;word-spacing:normal;text-transform:none;direction:ltr;block-progression:tb;writing-mode:lr-tb;baseline-shift:baseline;text-anchor:start;clip-rule:nonzero;display:inline;overflow:visible;visibility:visible;opacity:1;isolation:auto;mix-blend-mode:normal;color-interpolation:sRGB;color-interpolation-filters:linearRGB;solid-color:#000000;solid-opacity:1;fill:#000000;fill-opacity:1;fill-rule:evenodd;stroke:none;stroke-width:1px;stroke-linecap:butt;stroke-linejoin:miter;stroke-miterlimit:4;stroke-dasharray:none;stroke-dashoffset:0;stroke-opacity:1;color-rendering:auto;image-rendering:auto;shape-rendering:auto;text-rendering:auto;enable-background:accumulate" /><g
     id="g4284" /><path
     style="color:#000000;text-decoration:none;text-decoration-line:none;text-decoration-style:solid;text-decoration-color:#000000;clip-rule:nonzero;display:inline;overflow:visible;visibility:visible;opacity:1;isolation:auto;mix-blend-mode:normal;color-interpolation:sRGB;color-interpolation-filters:linearRGB;solid-color:#000000;solid-opacity:1;fill:#5bf9a9;fill-opacity:0.94509804;fill-rule:nonzero;stroke:none;stroke-width:1;stroke-linecap:butt;stroke-linejoin:miter;stroke-miterlimit:4;stroke-dasharray:none;stroke-dashoffset:0;stroke-opacity:1;marker:none;color-rendering:auto;image-rendering:auto;shape-rendering:auto;text-rendering:auto;enable-background:accumulate"
     d="M 85.076172 -345.17578 A 65 65 0 0 0 20.076172 -280.17578 A 65 65 0 0 0 85.076172 -215.17578 A 65 65 0 0 0 137.58594 -242.00195 A 65 65 0 0 0 154.24023 -225.99805 L 165.1582 -248.89258 A 40 40 0 0 1 150.07617 -280.17578 A 65 65 0 0 0 150.07617 -280.17773 A 65 65 0 0 0 85.076172 -345.17578 z M 85.076172 -320.17578 A 40 40 0 0 1 125.07617 -280.17773 A 40 40 0 0 1 125.07617 -280.17578 A 40 40 0 0 1 85.076172 -240.17578 A 40 40 0 0 1 45.076172 -280.17578 A 40 40 0 0 1 85.076172 -320.17578 z "
     id="path4189" /><g
     transform="translate(-7.500208,409)"
     id="g4460"><g
       id="g4462"
       transform="translate(-139.87683,208.69589)"
       style="fill:#ffffff"><path
         sodipodi:nodetypes="cccccccccccc"
         inkscape:connector-curvature="0"
         id="path4464"
         transform="translate(157.37704,-271.69589)"
         d="M 47.664062,108.36719 C 37.889433,120.04052 32.522747,134.77471 32.5,150 l 25,0 c 0.0166,-8.91842 3.013197,-17.5755 8.513672,-24.5957 z m 206.777438,2.68759 -18.43555,17.11914 c 4.23366,6.49253 6.48981,14.07525 6.49414,21.82617 -0.0172,8.60737 -2.81049,16.97959 -7.96484,23.87305 l 17.11523,18.54101 C 261.84623,180.63258 267.47094,165.58068 267.5,150 c -1.59034,-14.93321 -5.61287,-28.79067 -13.0585,-38.94522 z"
         style="color:#000000;text-decoration:none;text-decoration-line:none;text-decoration-style:solid;text-decoration-color:#000000;clip-rule:nonzero;display:inline;overflow:visible;visibility:visible;opacity:0.4;isolation:auto;mix-blend-mode:normal;color-interpolation:sRGB;color-interpolation-filters:linearRGB;solid-color:#000000;solid-opacity:1;fill:#ffffff;fill-opacity:1;fill-rule:nonzero;stroke:none;stroke-width:1;stroke-linecap:butt;stroke-linejoin:miter;stroke-miterlimit:4;stroke-dasharray:none;stroke-dashoffset:0;stroke-opacity:1;marker:none;color-rendering:auto;image-rendering:auto;shape-rendering:auto;text-rendering:auto;enable-background:accumulate" /></g><g
       id="g4466"><path
         style="color:#000000;text-decoration:none;text-decoration-line:none;text-decoration-style:solid;text-decoration-color:#000000;clip-rule:nonzero;display:inline;overflow:visible;visibility:visible;opacity:0.75;isolation:auto;mix-blend-mode:normal;color-interpolation:sRGB;color-interpolation-filters:linearRGB;solid-color:#000000;solid-opacity:1;fill:#ffffff;fill-opacity:1;fill-rule:nonzero;stroke:none;stroke-width:1;stroke-linecap:butt;stroke-linejoin:miter;stroke-miterlimit:4;stroke-dasharray:none;stroke-dashoffset:0;stroke-opacity:1;marker:none;color-rendering:auto;image-rendering:auto;shape-rendering:auto;text-rendering:auto;enable-background:accumulate"
         d="m 220,22 a 65,65 0 0 0 -65,65 65,65 0 0 0 65,65 65,65 0 0 0 49.15039,-22.58594 L 252.03516,110.87305 A 40,40 0 0 1 220,127 40,40 0 0 1 180,87 40,40 0 0 1 220,47 40,40 0 0 1 253.50586,65.17383 L 271.94141,48.05469 A 65,65 0 0 0 220,22 Z"
         id="path4468"
         inkscape:connector-curvature="0" /><path
         id="path4470"
         transform="translate(17.500208,-63.000001)"
         d="m 97.5,85 c -19.252834,0.02403 -37.50441,8.581869 -49.835938,23.36719 l 18.34961,17.03711 C 73.580696,115.69942 85.19374,110.01789 97.5,110 c 22.09139,0 40,17.90861 40,40 l -105,0 c 0,35.89851 29.101491,65 65,65 21.57095,0 40.67655,-10.5155 52.5,-26.69141 4.7099,6.43745 10.57425,11.97694 17.28906,16.31446 l 10.64649,-23.06641 C 168.5455,174.23691 162.5,162.82832 162.5,150 c 0,-35.89851 -29.10149,-65 -65,-65 z m -31.214844,90 62.392574,0 C 121.09692,184.46844 109.6293,189.98566 97.5,190 85.35769,189.997 73.874102,184.47859 66.285156,175 Z"
         style="color:#000000;text-decoration:none;text-decoration-line:none;text-decoration-style:solid;text-decoration-color:#000000;clip-rule:nonzero;display:inline;overflow:visible;visibility:visible;opacity:1;isolation:auto;mix-blend-mode:normal;color-interpolation:sRGB;color-interpolation-filters:linearRGB;solid-color:#000000;solid-opacity:1;fill:#ffffff;fill-opacity:1;fill-rule:nonzero;stroke:none;stroke-width:1;stroke-linecap:butt;stroke-linejoin:miter;stroke-miterlimit:4;stroke-dasharray:none;stroke-dashoffset:0;stroke-opacity:1;marker:none;color-rendering:auto;image-rendering:auto;shape-rendering:auto;text-rendering:auto;enable-background:accumulate"
         inkscape:connector-curvature="0" /></g></g><g
     transform="translate(392.49979,9)"
     id="g4500"><g
       id="g4502"
       transform="translate(-139.87683,208.69589)"
       style="fill:#ffffff"><path
         sodipodi:nodetypes="cccccccccccc"
         inkscape:connector-curvature="0"
         id="path4504"
         transform="translate(157.37704,-271.69589)"
         d="M 47.664062,108.36719 C 37.889433,120.04052 32.522747,134.77471 32.5,150 l 25,0 c 0.0166,-8.91842 3.013197,-17.5755 8.513672,-24.5957 z m 206.777438,2.68759 -18.43555,17.11914 c 4.23366,6.49253 6.48981,14.07525 6.49414,21.82617 -0.0172,8.60737 -2.81049,16.97959 -7.96484,23.87305 l 17.11523,18.54101 C 261.84623,180.63258 267.47094,165.58068 267.5,150 c -1.59034,-14.93321 -5.61287,-28.79067 -13.0585,-38.94522 z"
         style="color:#000000;text-decoration:none;text-decoration-line:none;text-decoration-style:solid;text-decoration-color:#000000;clip-rule:nonzero;display:inline;overflow:visible;visibility:visible;opacity:0.4;isolation:auto;mix-blend-mode:normal;color-interpolation:sRGB;color-interpolation-filters:linearRGB;solid-color:#000000;solid-opacity:1;fill:#ffffff;fill-opacity:1;fill-rule:nonzero;stroke:none;stroke-width:1;stroke-linecap:butt;stroke-linejoin:miter;stroke-miterlimit:4;stroke-dasharray:none;stroke-dashoffset:0;stroke-opacity:1;marker:none;color-rendering:auto;image-rendering:auto;shape-rendering:auto;text-rendering:auto;enable-background:accumulate" /></g><g
       id="g4506"><path
         style="color:#000000;text-decoration:none;text-decoration-line:none;text-decoration-style:solid;text-decoration-color:#000000;clip-rule:nonzero;display:inline;overflow:visible;visibility:visible;opacity:1;isolation:auto;mix-blend-mode:normal;color-interpolation:sRGB;color-interpolation-filters:linearRGB;solid-color:#000000;solid-opacity:1;fill:#ffffff;fill-opacity:1;fill-rule:nonzero;stroke:none;stroke-width:1;stroke-linecap:butt;stroke-linejoin:miter;stroke-miterlimit:4;stroke-dasharray:none;stroke-dashoffset:0;stroke-opacity:1;marker:none;color-rendering:auto;image-rendering:auto;shape-rendering:auto;text-rendering:auto;enable-background:accumulate"
         d="m 220,22 a 65,65 0 0 0 -65,65 65,65 0 0 0 65,65 65,65 0 0 0 49.15039,-22.58594 L 252.03516,110.87305 A 40,40 0 0 1 220,127 40,40 0 0 1 180,87 40,40 0 0 1 220,47 40,40 0 0 1 253.50586,65.17383 L 271.94141,48.05469 A 65,65 0 0 0 220,22 Z"
         id="path4508"
         inkscape:connector-curvature="0" /><path
         id="path4510"
         transform="translate(17.500208,-63.000001)"
         d="m 97.5,85 c -19.252834,0.02403 -37.50441,8.581869 -49.835938,23.36719 l 18.34961,17.03711 C 73.580696,115.69942 85.19374,110.01789 97.5,110 c 22.09139,0 40,17.90861 40,40 l -105,0 c 0,35.89851 29.101491,65 65,65 21.57095,0 40.67655,-10.5155 52.5,-26.69141 4.7099,6.43745 10.57425,11.97694 17.28906,16.31446 l 10.64649,-23.06641 C 168.5455,174.23691 162.5,162.82832 162.5,150 c 0,-35.89851 -29.10149,-65 -65,-65 z m -31.214844,90 62.392574,0 C 121.09692,184.46844 109.6293,189.98566 97.5,190 85.35769,189.997 73.874102,184.47859 66.285156,175 Z"
         style="color:#000000;text-decoration:none;text-decoration-line:none;text-decoration-style:solid;text-decoration-color:#000000;clip-rule:nonzero;display:inline;overflow:visible;visibility:visible;opacity:1;isolation:auto;mix-blend-mode:normal;color-interpolation:sRGB;color-interpolation-filters:linearRGB;solid-color:#000000;solid-opacity:1;fill:#5bf9a9;fill-opacity:1;fill-rule:nonzero;stroke:none;stroke-width:1;stroke-linecap:butt;stroke-linejoin:miter;stroke-miterlimit:4;stroke-dasharray:none;stroke-dashoffset:0;stroke-opacity:1;marker:none;color-rendering:auto;image-rendering:auto;shape-rendering:auto;text-rendering:auto;enable-background:accumulate"
         inkscape:connector-curvature="0" /></g></g><g
     id="g4542"
     transform="translate(392.49979,409)"><g
       style="fill:#ffffff"
       transform="translate(-139.87683,208.69589)"
       id="g4544"><path
         style="color:#000000;text-decoration:none;text-decoration-line:none;text-decoration-style:solid;text-decoration-color:#000000;clip-rule:nonzero;display:inline;overflow:visible;visibility:visible;opacity:0.4;isolation:auto;mix-blend-mode:normal;color-interpolation:sRGB;color-interpolation-filters:linearRGB;solid-color:#000000;solid-opacity:1;fill:#ffffff;fill-opacity:1;fill-rule:nonzero;stroke:none;stroke-width:1;stroke-linecap:butt;stroke-linejoin:miter;stroke-miterlimit:4;stroke-dasharray:none;stroke-dashoffset:0;stroke-opacity:1;marker:none;color-rendering:auto;image-rendering:auto;shape-rendering:auto;text-rendering:auto;enable-background:accumulate"
         d="M 47.664062,108.36719 C 37.889433,120.04052 32.522747,134.77471 32.5,150 l 25,0 c 0.0166,-8.91842 3.013197,-17.5755 8.513672,-24.5957 z m 206.777438,2.68759 -18.43555,17.11914 c 4.23366,6.49253 6.48981,14.07525 6.49414,21.82617 -0.0172,8.60737 -2.81049,16.97959 -7.96484,23.87305 l 17.11523,18.54101 C 261.84623,180.63258 267.47094,165.58068 267.5,150 c -1.59034,-14.93321 -5.61287,-28.79067 -13.0585,-38.94522 z"
         transform="translate(157.37704,-271.69589)"
         id="path4546"
         inkscape:connector-curvature="0"
         sodipodi:nodetypes="cccccccccccc" /></g><g
       id="g4548"><path
         inkscape:connector-curvature="0"
         id="path4550"
         d="m 220,22 a 65,65 0 0 0 -65,65 65,65 0 0 0 65,65 65,65 0 0 0 49.15039,-22.58594 L 252.03516,110.87305 A 40,40 0 0 1 220,127 40,40 0 0 1 180,87 40,40 0 0 1 220,47 40,40 0 0 1 253.50586,65.17383 L 271.94141,48.05469 A 65,65 0 0 0 220,22 Z"
         style="color:#000000;text-decoration:none;text-decoration-line:none;text-decoration-style:solid;text-decoration-color:#000000;clip-rule:nonzero;display:inline;overflow:visible;visibility:visible;opacity:1;isolation:auto;mix-blend-mode:normal;color-interpolation:sRGB;color-interpolation-filters:linearRGB;solid-color:#000000;solid-opacity:1;fill:#5dc5bf;fill-opacity:1;fill-rule:nonzero;stroke:none;stroke-width:1;stroke-linecap:butt;stroke-linejoin:miter;stroke-miterlimit:4;stroke-dasharray:none;stroke-dashoffset:0;stroke-opacity:1;marker:none;color-rendering:auto;image-rendering:auto;shape-rendering:auto;text-rendering:auto;enable-background:accumulate" /><path
         inkscape:connector-curvature="0"
         style="color:#000000;text-decoration:none;text-decoration-line:none;text-decoration-style:solid;text-decoration-color:#000000;clip-rule:nonzero;display:inline;overflow:visible;visibility:visible;opacity:1;isolation:auto;mix-blend-mode:normal;color-interpolation:sRGB;color-interpolation-filters:linearRGB;solid-color:#000000;solid-opacity:1;fill:#ffffff;fill-opacity:1;fill-rule:nonzero;stroke:none;stroke-width:1;stroke-linecap:butt;stroke-linejoin:miter;stroke-miterlimit:4;stroke-dasharray:none;stroke-dashoffset:0;stroke-opacity:1;marker:none;color-rendering:auto;image-rendering:auto;shape-rendering:auto;text-rendering:auto;enable-background:accumulate"
         d="m 97.5,85 c -19.252834,0.02403 -37.50441,8.581869 -49.835938,23.36719 l 18.34961,17.03711 C 73.580696,115.69942 85.19374,110.01789 97.5,110 c 22.09139,0 40,17.90861 40,40 l -105,0 c 0,35.89851 29.101491,65 65,65 21.57095,0 40.67655,-10.5155 52.5,-26.69141 4.7099,6.43745 10.57425,11.97694 17.28906,16.31446 l 10.64649,-23.06641 C 168.5455,174.23691 162.5,162.82832 162.5,150 c 0,-35.89851 -29.10149,-65 -65,-65 z m -31.214844,90 62.392574,0 C 121.09692,184.46844 109.6293,189.98566 97.5,190 85.35769,189.997 73.874102,184.47859 66.285156,175 Z"
         transform="translate(17.500208,-63.000001)"
         id="path4552" /></g></g><path
     sodipodi:nodetypes="cccccccccccc"
     inkscape:connector-curvature="0"
     id="path4208"
     d="M -247.86875,94.69375 C -255.68845,104.03241 -259.9818,115.81977 -260,128 l 20,0 c 0.0133,-7.13474 2.41056,-14.0604 6.81094,-19.67656 z m 165.42195,2.150072 -14.74844,13.695308 c 3.386928,5.19403 5.191848,11.2602 5.195312,17.46094 -0.01376,6.8859 -2.248392,13.58367 -6.371872,19.09844 l 13.692184,14.83281 C -76.523016,152.50606 -72.023248,140.46454 -72,128 -73.272272,116.05343 -76.490296,104.96746 -82.4468,96.843822 Z"
     style="color:#000000;text-decoration:none;text-decoration-line:none;text-decoration-style:solid;text-decoration-color:#000000;clip-rule:nonzero;display:inline;overflow:visible;visibility:visible;opacity:0.4;isolation:auto;mix-blend-mode:normal;color-interpolation:sRGB;color-interpolation-filters:linearRGB;solid-color:#000000;solid-opacity:1;fill:#ffffff;fill-opacity:1;fill-rule:nonzero;stroke:none;stroke-width:0.80000001;stroke-linecap:butt;stroke-linejoin:miter;stroke-miterlimit:4;stroke-dasharray:none;stroke-dashoffset:0;stroke-opacity:1;marker:none;color-rendering:auto;image-rendering:auto;shape-rendering:auto;text-rendering:auto;enable-background:accumulate" /><circle
     r="128"
     style="color:#000000;text-decoration:none;text-decoration-line:none;text-decoration-style:solid;text-decoration-color:#000000;clip-rule:nonzero;display:inline;overflow:visible;visibility:visible;opacity:1;isolation:auto;mix-blend-mode:normal;color-interpolation:sRGB;color-interpolation-filters:linearRGB;solid-color:#000000;solid-opacity:1;fill:#ffffff;fill-opacity:0;fill-rule:nonzero;stroke:none;stroke-width:0.80000001;stroke-linecap:butt;stroke-linejoin:miter;stroke-miterlimit:4;stroke-dasharray:none;stroke-dashoffset:0;stroke-opacity:1;marker:none;color-rendering:auto;image-rendering:auto;shape-rendering:auto;text-rendering:auto;enable-background:accumulate"
     id="circle4202"
     cx="-166"
     cy="128" /><path
     style="color:#000000;text-decoration:none;text-decoration-line:none;text-decoration-style:solid;text-decoration-color:#000000;clip-rule:nonzero;display:inline;overflow:visible;visibility:visible;opacity:0.85;isolation:auto;mix-blend-mode:normal;color-interpolation:sRGB;color-interpolation-filters:linearRGB;solid-color:#000000;solid-opacity:1;fill:#ffffff;fill-opacity:1;fill-rule:nonzero;stroke:none;stroke-width:0.80000001;stroke-linecap:butt;stroke-linejoin:miter;stroke-miterlimit:4;stroke-dasharray:none;stroke-dashoffset:0;stroke-opacity:1;marker:none;color-rendering:auto;image-rendering:auto;shape-rendering:auto;text-rendering:auto;enable-background:accumulate"
     d="m -124.00017,76 a 52,52 0 0 0 -52,52 52,52 0 0 0 52,52 52,52 0 0 0 39.320312,-18.06875 L -98.372042,147.09844 A 32,32 0 0 1 -124.00017,160 a 32,32 0 0 1 -32,-32 32,32 0 0 1 32,-32 32,32 0 0 1 26.804688,14.53906 l 14.74844,-13.695308 A 52,52 0 0 0 -124.00017,76 Z"
     id="path4212"
     inkscape:connector-curvature="0" /><path
     inkscape:connector-curvature="0"
     id="path4214"
     d="m -208,75.999999 c -15.40227,0.01922 -30.00353,6.865495 -39.86875,18.693752 l 14.67969,13.629689 c 6.05362,-7.7639 15.34405,-12.309129 25.18906,-12.323441 17.67311,0 32,14.326891 32,32.000001 l -84,0 c 0,28.71881 23.28119,52 52,52 17.25676,0 32.54124,-8.4124 42,-21.35313 3.76792,5.14996 8.4594,9.58155 13.83125,13.05157 l 8.51719,-18.45313 C -151.1636,147.38953 -156,138.26266 -156,128 -156,99.281191 -179.28119,75.999999 -208,75.999999 Z M -232.97188,148 l 49.91406,0 c -6.06464,7.57475 -15.23874,11.98853 -24.94218,12 -9.71385,-0.002 -18.90072,-4.41713 -24.97188,-12 z"
     style="color:#000000;text-decoration:none;text-decoration-line:none;text-decoration-style:solid;text-decoration-color:#000000;clip-rule:nonzero;display:inline;overflow:visible;visibility:visible;opacity:1;isolation:auto;mix-blend-mode:normal;color-interpolation:sRGB;color-interpolation-filters:linearRGB;solid-color:#000000;solid-opacity:1;fill:#ffffff;fill-opacity:1;fill-rule:nonzero;stroke:none;stroke-width:0.80000001;stroke-linecap:butt;stroke-linejoin:miter;stroke-miterlimit:4;stroke-dasharray:none;stroke-dashoffset:0;stroke-opacity:1;marker:none;color-rendering:auto;image-rendering:auto;shape-rendering:auto;text-rendering:auto;enable-background:accumulate" /><g
     id="g4272"
     transform="translate(4.49793,-90.39755)" /><g
     id="g4398"
     transform="translate(-5.2230785)"><path
       sodipodi:nodetypes="ccccccc"
       inkscape:connector-curvature="0"
       id="path4332"
       d="m 216.77541,96.843753 -14.74805,13.693357 c 3.38729,5.19458 5.19223,11.26149 5.19532,17.46289 -0.0137,6.88554 -2.24805,13.58301 -6.3711,19.09766 l 13.69336,14.83398 C 222.701,152.50608 227.20007,140.46443 227.22268,128 c -0.0231,-11.24167 -3.68862,-22.17314 -10.44727,-31.156247 z"
       style="color:#000000;text-decoration:none;text-decoration-line:none;text-decoration-style:solid;text-decoration-color:#000000;clip-rule:nonzero;display:inline;overflow:visible;visibility:visible;opacity:0.25;isolation:auto;mix-blend-mode:normal;color-interpolation:sRGB;color-interpolation-filters:linearRGB;solid-color:#000000;solid-opacity:1;fill:#ffffff;fill-opacity:1;fill-rule:nonzero;stroke:none;stroke-width:0.80000001;stroke-linecap:butt;stroke-linejoin:miter;stroke-miterlimit:4;stroke-dasharray:none;stroke-dashoffset:0;stroke-opacity:1;marker:none;color-rendering:auto;image-rendering:auto;shape-rendering:auto;text-rendering:auto;enable-background:accumulate" /><path
       id="path4295"
       d="M 175.22342,76.000044 A 51.999979,51.999979 0 0 0 123.22344,128.00002 51.999979,51.999979 0 0 0 175.22342,180 51.999979,51.999979 0 0 0 214.54528,161.93126 l -13.69374,-14.83437 a 31.999987,31.999987 0 0 1 -25.62812,12.90312 31.999987,31.999987 0 0 1 -31.99999,-31.99999 31.999987,31.999987 0 0 1 31.99999,-31.999984 31.999987,31.999987 0 0 1 26.80468,14.537494 L 216.77653,96.842219 A 51.999979,51.999979 0 0 0 175.22342,76.000044 Z"
       style="color:#000000;text-decoration:none;text-decoration-line:none;text-decoration-style:solid;text-decoration-color:#000000;clip-rule:nonzero;display:inline;overflow:visible;visibility:visible;opacity:0.7;isolation:auto;mix-blend-mode:normal;color-interpolation:sRGB;color-interpolation-filters:linearRGB;solid-color:#000000;solid-opacity:1;fill:#ffffff;fill-opacity:1;fill-rule:nonzero;stroke:none;stroke-width:0.80000001;stroke-linecap:butt;stroke-linejoin:miter;stroke-miterlimit:4;stroke-dasharray:none;stroke-dashoffset:0;stroke-opacity:1;marker:none;color-rendering:auto;image-rendering:auto;shape-rendering:auto;text-rendering:auto;enable-background:accumulate"
       inkscape:connector-curvature="0" /><path
       inkscape:connector-curvature="0"
       style="color:#000000;text-decoration:none;text-decoration-line:none;text-decoration-style:solid;text-decoration-color:#000000;clip-rule:nonzero;display:inline;overflow:visible;visibility:visible;opacity:1;isolation:auto;mix-blend-mode:normal;color-interpolation:sRGB;color-interpolation-filters:linearRGB;solid-color:#000000;solid-opacity:1;fill:#ffffff;fill-opacity:1;fill-rule:nonzero;stroke:none;stroke-width:0.80000001;stroke-linecap:butt;stroke-linejoin:miter;stroke-miterlimit:4;stroke-dasharray:none;stroke-dashoffset:0;stroke-opacity:1;marker:none;color-rendering:auto;image-rendering:auto;shape-rendering:auto;text-rendering:auto;enable-background:accumulate"
       d="M 91.223455,76.000044 A 51.999979,51.999979 0 0 0 39.223477,128.00002 51.999979,51.999979 0 0 0 91.223455,180 a 51.999979,51.999979 0 0 0 42.007805,-21.46092 51.999979,51.999979 0 0 0 13.32342,12.80311 l 8.73437,-18.31562 a 31.999987,31.999987 0 0 1 -12.06561,-25.02655 51.999979,51.999979 0 0 0 0,-0.002 51.999979,51.999979 0 0 0 -51.999985,-51.998416 z m 0,19.999992 a 31.999987,31.999987 0 0 1 31.999985,31.998424 31.999987,31.999987 0 0 1 0,0.002 31.999987,31.999987 0 0 1 -31.999985,31.99999 31.999987,31.999987 0 0 1 -31.999986,-31.99999 31.999987,31.999987 0 0 1 31.999986,-31.999984 z"
       id="path4291" /></g></svg>